{"glyphs":{"0":{"ha":651,"x_min":49,"x_max":603,"o":"m 394 719 q 380 772 394 754 q 325 789 365 789 q 271 772 285 789 q 257 719 257 756 l 257 243 q 271 191 257 208 q 325 174 285 174 q 380 191 365 174 q 394 243 394 208 l 394 719 m 49 728 q 116 910 49 844 q 325 976 183 976 q 535 910 467 976 q 603 728 603 843 l 603 235 q 535 53 603 119 q 325 -14 467 -14 q 116 52 183 -14 q 49 235 49 118 l 49 728 z "},"1":{"ha":446,"x_min":21,"x_max":383,"o":"m 383 963 l 383 0 l 172 0 l 172 710 l 21 599 l 21 828 l 203 963 l 383 963 z "},"2":{"ha":614,"x_min":49,"x_max":565,"o":"m 264 969 q 565 736 565 969 l 565 654 q 463 443 565 519 l 338 338 q 273 271 285 293 q 261 201 261 249 l 261 183 l 553 183 l 553 0 l 49 0 l 49 226 q 164 453 49 364 l 303 572 q 344 620 333 596 q 354 690 354 644 l 354 710 q 334 759 354 742 q 261 776 314 776 q 68 739 156 776 l 68 939 q 264 969 151 969 z "},"3":{"ha":585,"x_min":35,"x_max":536,"o":"m 226 971 q 457 910 381 971 q 533 738 533 849 l 533 642 q 508 543 533 582 q 439 493 482 504 q 536 358 536 483 l 536 225 q 461 53 536 114 q 245 -8 386 -8 q 35 21 104 -8 l 35 218 q 223 182 119 182 q 326 249 326 182 l 326 329 q 311 374 326 363 q 256 386 296 386 l 147 386 l 147 581 l 253 581 q 324 649 324 581 l 324 714 q 223 781 324 781 q 57 756 122 781 l 57 951 q 226 971 115 971 z "},"4":{"ha":643,"x_min":14,"x_max":636,"o":"m 636 344 l 636 163 l 546 163 l 546 0 l 350 0 l 350 163 l 14 163 l 14 356 l 281 963 l 546 963 l 546 344 l 636 344 m 358 344 l 358 740 l 190 344 l 358 344 z "},"5":{"ha":613,"x_min":56,"x_max":568,"o":"m 358 363 q 296 422 358 422 q 63 410 269 422 l 63 963 l 536 963 l 536 768 l 269 768 l 269 606 q 344 607 293 607 q 509 553 450 607 q 568 394 568 500 l 568 225 q 268 -8 568 -8 q 56 24 156 -8 l 56 218 q 265 182 171 182 q 358 249 358 182 l 358 363 z "},"6":{"ha":644,"x_min":49,"x_max":603,"o":"m 326 454 q 257 446 290 454 l 257 239 q 271 187 257 204 q 325 169 285 169 q 380 187 365 169 q 394 239 394 204 l 394 392 q 326 454 394 454 m 49 708 q 122 898 49 826 q 357 969 196 969 q 554 940 485 969 l 554 743 q 367 776 476 776 q 257 685 257 776 l 257 621 q 371 633 294 633 q 543 575 483 633 q 603 413 603 517 l 603 235 q 535 53 603 119 q 325 -14 467 -14 q 116 52 183 -14 q 49 235 49 118 l 49 708 z "},"7":{"ha":536,"x_min":7,"x_max":515,"o":"m 7 963 l 515 963 l 515 794 l 394 432 q 351 144 351 306 l 351 0 l 140 0 l 140 163 q 186 467 140 344 l 281 769 l 7 769 l 7 963 z "},"8":{"ha":660,"x_min":49,"x_max":611,"o":"m 611 733 l 611 636 q 547 481 611 531 q 611 324 611 429 l 611 229 q 542 51 611 115 q 330 -14 472 -14 q 118 50 188 -14 q 49 229 49 114 l 49 324 q 113 481 49 429 q 49 636 49 531 l 49 733 q 118 913 49 849 q 330 976 188 976 q 542 912 472 976 q 611 733 611 847 m 254 731 l 254 629 q 330 560 254 560 q 406 629 406 560 l 406 731 q 329 797 406 797 q 271 781 288 797 q 254 731 254 764 m 406 232 l 406 331 q 330 400 406 400 q 254 331 254 400 l 254 232 q 330 165 254 165 q 406 232 406 165 z "},"9":{"ha":644,"x_min":42,"x_max":596,"o":"m 315 494 q 388 507 356 494 l 388 724 q 374 776 388 758 q 319 793 360 793 q 265 776 279 793 q 250 724 250 758 l 250 563 q 315 494 250 494 m 42 728 q 110 910 42 843 q 319 976 178 976 q 528 910 461 976 q 596 728 596 844 l 596 226 q 519 54 596 115 q 294 -7 442 -7 q 78 22 147 -7 l 78 219 q 275 183 163 183 q 388 250 388 183 l 388 332 q 249 315 346 315 q 97 374 151 315 q 42 538 42 432 l 42 728 z "},"\r":{"ha":0,"x_min":0,"x_max":0,"o":""}," ":{"ha":258,"x_min":0,"x_max":0,"o":""},"!":{"ha":458,"x_min":115,"x_max":347,"o":"m 231 -14 q 173 -14 231 -14 q 115 95 115 -14 q 231 204 115 204 q 347 95 347 204 q 231 -14 347 -14 m 118 963 l 340 963 l 313 308 l 146 308 l 118 963 z "},"\"":{"ha":681,"x_min":117,"x_max":556,"o":"m 117 1079 l 297 1079 l 297 693 l 117 693 l 117 1079 m 375 1079 l 556 1079 l 556 693 l 375 693 l 375 1079 z "},"#":{"ha":874,"x_min":51,"x_max":807,"o":"m 807 544 l 688 544 l 669 418 l 765 418 l 765 254 l 646 254 l 610 0 l 426 0 l 463 254 l 333 254 l 297 0 l 114 0 l 150 254 l 51 254 l 51 418 l 174 418 l 192 544 l 93 544 l 93 708 l 215 708 l 251 963 l 435 963 l 399 708 l 528 708 l 564 963 l 747 963 l 711 708 l 807 708 l 807 544 m 486 418 l 504 544 l 375 544 l 357 418 l 486 418 z "},"$":{"ha":610,"x_min":28,"x_max":585,"o":"m 585 313 l 585 226 q 392 7 585 50 l 392 -74 l 194 -74 l 194 -4 q 40 25 94 3 l 40 226 q 254 186 135 186 q 374 254 374 186 l 374 275 q 360 323 374 307 q 311 358 347 339 l 163 439 q 28 650 28 514 l 28 738 q 204 956 28 911 l 204 1038 l 401 1038 l 401 967 q 529 940 485 960 l 529 740 q 336 776 444 776 q 261 759 281 776 q 242 710 242 742 l 242 689 q 255 631 242 650 q 313 589 268 613 l 471 500 q 585 313 585 438 z "},"%":{"ha":1001,"x_min":49,"x_max":953,"o":"m 953 231 q 953 111 953 231 q 753 -8 953 -8 q 553 231 553 -8 q 753 469 553 469 q 953 231 953 469 m 693 231 q 693 176 693 231 q 751 122 693 122 q 810 231 810 122 q 751 339 810 339 q 693 231 693 339 m 449 732 q 449 613 449 732 q 249 493 449 493 q 49 732 49 493 q 249 971 49 971 q 449 732 449 971 m 189 732 q 189 678 189 732 q 247 624 189 624 q 306 732 306 624 q 247 840 306 840 q 189 732 189 840 m 656 963 l 794 963 l 346 0 l 207 0 l 656 963 z "},"&":{"ha":700,"x_min":74,"x_max":690,"o":"m 690 589 l 690 411 l 621 411 l 621 240 q 350 -8 621 -8 q 141 58 208 -8 q 74 240 74 124 l 74 358 q 171 507 74 478 q 76 656 76 539 l 76 739 q 154 910 76 849 q 390 971 232 971 q 567 951 508 971 l 567 757 q 419 781 506 781 q 308 764 332 781 q 285 714 285 747 l 285 660 q 299 605 285 621 q 353 589 314 589 l 421 589 l 421 681 l 621 681 l 621 589 l 690 589 m 421 246 l 421 411 l 353 411 q 299 395 315 411 q 282 344 282 379 l 282 246 q 296 193 282 211 q 350 175 310 175 q 406 193 390 175 q 421 246 421 211 z "},"'":{"ha":431,"x_min":117,"x_max":311,"o":"m 117 1079 l 311 1079 l 311 693 l 117 693 l 117 1079 z "},"(":{"ha":494,"x_min":88,"x_max":421,"o":"m 421 1183 q 313 862 357 1049 q 268 467 268 675 q 313 72 268 260 q 421 -249 357 -115 l 240 -249 q 132 72 176 -115 q 88 467 88 260 q 132 862 88 675 q 240 1183 176 1049 l 421 1183 z "},")":{"ha":496,"x_min":72,"x_max":406,"o":"m 253 1183 q 361 862 317 1049 q 406 467 406 675 q 361 72 406 260 q 253 -249 317 -115 l 72 -249 q 181 72 136 -115 q 225 467 225 260 q 181 862 225 675 q 72 1183 136 1049 l 253 1183 z "},"*":{"ha":772,"x_min":36,"x_max":733,"o":"m 288 1040 l 288 1164 l 482 1164 l 482 1040 q 472 949 482 992 q 557 986 507 969 l 674 1025 l 733 840 l 617 801 q 525 783 567 786 q 588 714 553 760 l 660 615 l 503 501 l 429 600 q 385 679 401 639 q 339 600 369 644 l 267 501 l 110 615 l 182 715 q 244 783 214 757 q 153 803 199 788 l 36 840 l 96 1025 l 214 988 q 297 950 253 975 q 288 1040 288 994 z "},"+":{"ha":706,"x_min":64,"x_max":639,"o":"m 639 551 l 639 371 l 449 371 l 449 172 l 254 172 l 254 371 l 64 371 l 64 551 l 254 551 l 254 750 l 449 750 l 449 551 l 639 551 z "},",":{"ha":306,"x_min":21,"x_max":276,"o":"m 189 201 q 276 122 276 201 q 228 -30 276 63 q 132 -185 179 -122 l 21 -185 l 85 201 l 189 201 z "},"-":{"ha":433,"x_min":57,"x_max":385,"o":"m 57 551 l 385 551 l 385 371 l 57 371 l 57 551 z "},".":{"ha":342,"x_min":53,"x_max":285,"o":"m 169 -14 q 111 -14 169 -14 q 53 95 53 -14 q 169 204 53 204 q 285 95 285 204 q 169 -14 285 -14 z "},"/":{"ha":636,"x_min":51,"x_max":593,"o":"m 408 1183 l 593 1183 l 236 -249 l 51 -249 l 408 1183 z "},":":{"ha":357,"x_min":53,"x_max":285,"o":"m 169 -14 q 111 -14 169 -14 q 53 95 53 -14 q 169 204 53 204 q 285 95 285 204 q 169 -14 285 -14 m 169 474 q 111 474 169 474 q 53 583 53 474 q 169 692 53 692 q 285 583 285 692 q 169 474 285 474 z "},";":{"ha":365,"x_min":21,"x_max":285,"o":"m 169 474 q 111 474 169 474 q 53 583 53 474 q 169 692 53 692 q 285 583 285 692 q 169 474 285 474 m 189 201 q 276 122 276 201 q 228 -30 276 63 q 132 -185 179 -122 l 21 -185 l 85 201 l 189 201 z "},"<":{"ha":711,"x_min":46,"x_max":638,"o":"m 638 760 l 638 572 l 265 461 l 638 350 l 638 163 l 46 371 l 46 551 l 638 760 z "},"=":{"ha":693,"x_min":46,"x_max":638,"o":"m 46 410 l 638 410 l 638 229 l 46 229 l 46 410 m 46 693 l 638 693 l 638 513 l 46 513 l 46 693 z "},">":{"ha":704,"x_min":56,"x_max":649,"o":"m 56 760 l 649 551 l 649 371 l 56 163 l 56 350 l 429 461 l 56 572 l 56 760 z "},"?":{"ha":589,"x_min":36,"x_max":528,"o":"m 223 -14 q 165 -14 223 -14 q 107 95 107 -14 q 223 204 107 204 q 339 95 339 204 q 223 -14 339 -14 m 229 976 q 528 743 528 976 l 528 626 q 479 458 528 513 q 315 403 431 403 l 306 308 l 135 308 l 125 556 l 207 556 q 300 571 274 556 q 326 631 326 586 l 326 721 q 308 772 326 757 q 236 788 289 788 q 36 753 117 788 l 36 950 q 229 976 115 976 z "},"@":{"ha":1274,"x_min":82,"x_max":1204,"o":"m 774 -193 l 644 -193 q 149 42 263 -193 q 97 202 111 118 q 82 410 82 286 q 107 634 82 533 q 192 817 132 735 q 646 986 315 986 q 1100 819 981 986 q 1181 638 1158 738 q 1204 399 1204 539 q 1131 98 1204 186 q 915 10 1057 10 q 717 97 774 10 q 592 74 667 74 q 439 231 439 74 l 439 269 q 465 374 439 335 q 550 436 492 414 l 682 485 l 682 567 q 672 597 682 588 q 604 607 661 607 q 461 581 547 607 l 461 715 q 639 739 540 739 q 788 699 738 739 q 838 575 838 660 l 838 253 q 858 183 838 204 q 933 161 879 161 q 1010 210 988 161 q 1032 361 1032 260 q 1030 502 1032 463 q 1020 592 1028 542 q 997 673 1013 643 q 954 735 982 703 q 886 786 926 768 q 646 825 792 825 q 429 792 503 825 q 361 755 390 775 q 313 703 332 735 q 283 641 294 671 q 265 567 271 611 q 257 417 257 500 q 259 293 257 335 q 270 203 261 251 q 295 123 279 154 q 340 60 311 92 q 408 10 368 28 q 646 -31 500 -31 l 774 -31 l 774 -193 m 594 232 q 601 209 594 215 q 630 203 608 203 q 682 214 651 203 l 682 349 l 631 331 q 601 311 608 322 q 594 275 594 300 l 594 232 z "},"A":{"ha":679,"x_min":7,"x_max":672,"o":"m 474 0 l 433 222 l 243 222 l 206 0 l 7 0 l 196 963 l 486 963 l 672 0 l 474 0 m 272 399 l 403 399 l 336 771 l 272 399 z "},"B":{"ha":685,"x_min":63,"x_max":636,"o":"m 628 742 l 628 651 q 529 486 628 517 q 636 319 636 461 l 636 221 q 400 0 636 0 l 63 0 l 63 963 l 392 963 q 628 742 628 963 m 357 788 l 271 788 l 271 578 l 357 578 q 422 638 422 578 l 422 728 q 357 788 422 788 m 431 235 l 431 333 q 365 393 431 393 l 271 393 l 271 175 l 365 175 q 431 235 431 175 z "},"C":{"ha":572,"x_min":49,"x_max":538,"o":"m 49 735 q 126 908 49 846 q 358 969 203 969 q 533 950 461 969 l 533 758 q 380 782 456 782 q 282 765 304 782 q 260 714 260 747 l 260 247 q 365 181 260 181 q 538 201 469 181 l 538 14 q 356 -7 463 -7 q 124 54 200 -7 q 49 226 49 115 l 49 735 z "},"D":{"ha":685,"x_min":63,"x_max":636,"o":"m 428 740 q 416 778 428 765 q 371 792 404 792 l 271 792 l 271 179 l 371 179 q 428 243 428 179 l 428 740 m 63 963 l 400 963 q 574 908 513 963 q 636 749 636 854 l 636 226 q 413 0 636 0 l 63 0 l 63 963 z "},"E":{"ha":585,"x_min":63,"x_max":550,"o":"m 63 963 l 550 963 l 550 782 l 271 782 l 271 578 l 513 578 l 513 397 l 271 397 l 271 181 l 550 181 l 550 0 l 63 0 l 63 963 z "},"F":{"ha":560,"x_min":63,"x_max":539,"o":"m 63 963 l 539 963 l 539 781 l 274 781 l 274 543 l 518 543 l 518 357 l 274 357 l 274 0 l 63 0 l 63 963 z "},"G":{"ha":650,"x_min":49,"x_max":608,"o":"m 49 731 q 133 905 49 840 q 372 969 217 969 q 568 943 489 969 l 568 746 q 401 778 485 778 q 289 758 318 778 q 260 706 260 739 l 260 249 q 281 198 260 215 q 342 181 301 181 q 406 192 383 181 l 406 517 l 608 517 l 608 51 q 351 -7 500 -7 q 126 54 203 -7 q 49 226 49 115 l 49 731 z "},"H":{"ha":739,"x_min":63,"x_max":676,"o":"m 465 963 l 676 963 l 676 0 l 465 0 l 465 381 l 274 381 l 274 0 l 63 0 l 63 963 l 274 963 l 274 567 l 465 567 l 465 963 z "},"I":{"ha":336,"x_min":63,"x_max":274,"o":"m 63 963 l 274 963 l 274 0 l 63 0 l 63 963 z "},"J":{"ha":343,"x_min":-32,"x_max":281,"o":"m 69 963 l 281 963 l 281 289 q 271 105 281 175 q 232 -64 261 35 l 189 -207 l -32 -207 l 10 -64 q 69 288 69 140 l 69 963 z "},"K":{"ha":675,"x_min":63,"x_max":668,"o":"m 271 0 l 63 0 l 63 963 l 271 963 l 271 529 l 429 963 l 651 963 l 475 497 l 668 0 l 436 0 l 271 460 l 271 0 z "},"L":{"ha":538,"x_min":63,"x_max":531,"o":"m 63 963 l 274 963 l 274 175 l 531 175 l 531 0 l 63 0 l 63 963 z "},"M":{"ha":901,"x_min":63,"x_max":839,"o":"m 839 963 l 839 0 l 638 0 l 638 335 q 664 619 638 479 l 531 244 l 369 244 l 236 619 q 263 335 263 490 l 263 0 l 63 0 l 63 963 l 276 963 l 450 471 l 624 963 l 839 963 z "},"N":{"ha":739,"x_min":63,"x_max":676,"o":"m 471 963 l 676 963 l 676 0 l 476 0 q 239 633 271 525 q 268 256 268 524 l 268 0 l 63 0 l 63 963 l 268 963 l 394 640 q 503 326 475 433 q 471 721 471 461 l 471 963 z "},"O":{"ha":679,"x_min":49,"x_max":631,"o":"m 422 717 q 340 786 422 786 q 257 717 257 786 l 257 246 q 340 176 257 176 q 422 246 422 176 l 422 717 m 49 728 q 122 909 49 842 q 339 976 196 976 q 556 909 482 976 q 631 728 631 842 l 631 235 q 556 53 631 121 q 339 -14 482 -14 q 122 53 196 -14 q 49 235 49 121 l 49 728 z "},"P":{"ha":653,"x_min":63,"x_max":618,"o":"m 410 724 q 350 782 410 782 l 272 782 l 272 458 l 350 458 q 410 517 410 458 l 410 724 m 63 963 l 376 963 q 553 908 489 963 q 618 749 618 854 l 618 492 q 553 332 618 386 q 376 278 489 278 l 272 278 l 272 0 l 63 0 l 63 963 z "},"Q":{"ha":679,"x_min":49,"x_max":706,"o":"m 339 -14 q 122 53 196 -14 q 49 235 49 121 l 49 728 q 122 909 49 842 q 339 976 196 976 q 556 909 482 976 q 631 728 631 842 l 631 235 q 544 44 631 110 l 706 -121 l 460 -121 l 357 -14 l 339 -14 m 257 717 l 257 246 q 340 176 257 176 q 422 246 422 176 l 422 717 q 340 786 422 786 q 257 717 257 786 z "},"R":{"ha":669,"x_min":63,"x_max":656,"o":"m 271 347 l 271 0 l 63 0 l 63 963 l 376 963 q 554 908 490 963 q 618 750 618 854 l 618 572 q 504 364 618 406 l 656 0 l 426 0 l 297 347 l 271 347 m 271 785 l 271 513 l 353 513 q 397 526 385 513 q 410 575 410 540 l 410 732 q 396 774 410 763 q 353 785 382 785 l 271 785 z "},"S":{"ha":610,"x_min":28,"x_max":585,"o":"m 28 738 q 103 909 28 849 q 319 969 178 969 q 529 940 460 969 l 529 740 q 336 776 444 776 q 261 759 281 776 q 242 710 242 742 l 242 689 q 255 631 242 650 q 313 589 268 613 l 471 500 q 585 313 585 438 l 585 226 q 501 53 585 114 q 267 -7 418 -7 q 40 25 117 -7 l 40 226 q 254 186 135 186 q 374 254 374 186 l 374 275 q 360 323 374 307 q 311 358 347 339 l 163 439 q 28 650 28 514 l 28 738 z "},"T":{"ha":572,"x_min":7,"x_max":565,"o":"m 565 963 l 565 782 l 392 782 l 392 0 l 181 0 l 181 782 l 7 782 l 7 963 l 565 963 z "},"U":{"ha":688,"x_min":56,"x_max":632,"o":"m 424 963 l 632 963 l 632 235 q 559 53 632 121 q 344 -14 486 -14 q 128 53 201 -14 q 56 235 56 119 l 56 963 l 264 963 l 264 246 q 344 176 264 176 q 424 246 424 176 l 424 963 z "},"V":{"ha":674,"x_min":7,"x_max":667,"o":"m 450 963 l 667 963 l 483 0 l 193 0 l 7 963 l 219 963 q 313 407 300 503 q 340 181 325 311 q 386 553 367 429 l 450 963 z "},"W":{"ha":824,"x_min":7,"x_max":817,"o":"m 638 963 l 817 963 l 689 0 l 503 0 l 446 381 l 415 646 q 388 381 404 492 l 329 0 l 131 0 l 7 963 l 189 963 q 247 519 242 583 q 257 381 253 456 q 326 963 278 572 l 503 963 l 568 390 q 592 646 575 529 l 638 963 z "},"X":{"ha":650,"x_min":7,"x_max":643,"o":"m 418 963 l 643 963 l 436 479 l 643 0 l 417 0 l 328 263 l 233 0 l 7 0 l 213 479 l 7 963 l 232 963 l 328 697 l 418 963 z "},"Y":{"ha":669,"x_min":0,"x_max":669,"o":"m 440 0 l 229 0 l 229 299 l 0 963 l 214 963 l 260 817 q 338 514 314 646 q 417 819 364 649 l 461 963 l 669 963 l 440 299 l 440 0 z "},"Z":{"ha":590,"x_min":28,"x_max":563,"o":"m 33 963 l 557 963 l 557 794 l 246 176 l 563 176 l 563 0 l 28 0 l 28 176 l 331 786 l 33 786 l 33 963 z "},"[":{"ha":519,"x_min":122,"x_max":457,"o":"m 290 -90 l 457 -90 l 457 -254 l 122 -254 l 122 1207 l 457 1207 l 457 1044 l 290 1044 l 290 -90 z "},"\\":{"ha":676,"x_min":54,"x_max":624,"o":"m 54 1207 l 247 1207 l 624 -254 l 429 -254 l 54 1207 z "},"]":{"ha":519,"x_min":61,"x_max":396,"o":"m 61 1207 l 396 1207 l 396 -254 l 61 -254 l 61 -90 l 228 -90 l 228 1044 l 61 1044 l 61 1207 z "},"^":{"ha":613,"x_min":0,"x_max":610,"o":"m 610 556 l 403 556 l 306 879 l 207 556 l 0 556 l 189 1024 l 422 1024 l 610 556 z "},"_":{"ha":785,"x_min":14,"x_max":771,"o":"m 14 0 l 771 0 l 769 -167 l 14 -167 l 14 0 z "},"`":{"ha":486,"x_min":136,"x_max":350,"o":"m 136 1038 l 289 1038 l 350 878 l 240 878 l 136 1038 z "},"a":{"ha":607,"x_min":26,"x_max":551,"o":"m 232 238 l 232 199 q 281 151 232 151 q 350 167 322 151 l 350 335 l 286 318 q 242 293 251 308 q 232 238 232 278 m 69 800 q 288 826 146 826 q 490 765 429 826 q 551 578 551 703 l 551 0 l 356 0 l 356 60 q 215 -3 315 -3 q 71 45 115 -3 q 26 199 26 93 l 26 246 q 67 389 26 339 q 200 464 108 439 l 351 503 l 351 579 q 331 630 350 615 q 260 644 311 644 q 69 615 144 644 l 69 800 z "},"b":{"ha":643,"x_min":63,"x_max":594,"o":"m 382 597 q 340 631 382 631 q 272 615 297 631 l 272 193 l 328 193 q 382 238 382 193 l 382 597 m 63 1038 l 272 1038 l 272 803 q 415 824 332 824 q 547 780 499 824 q 594 649 594 736 l 594 204 q 537 50 594 100 q 382 0 479 0 l 63 0 l 63 1038 z "},"c":{"ha":522,"x_min":49,"x_max":494,"o":"m 49 585 q 321 826 49 826 q 494 806 418 826 l 494 613 q 363 635 421 635 q 282 620 306 635 q 258 567 258 606 l 258 253 q 282 199 258 214 q 363 185 306 185 q 494 207 421 185 l 494 14 q 321 -7 418 -7 q 49 235 49 -7 l 49 585 z "},"d":{"ha":642,"x_min":49,"x_max":579,"o":"m 369 633 l 324 633 q 258 564 258 633 l 258 221 q 300 185 258 185 q 369 201 342 185 l 369 633 m 368 1038 l 579 1038 l 579 0 l 375 0 l 375 58 q 233 -6 325 -6 q 94 44 140 -6 q 49 183 49 94 l 49 571 q 113 753 49 688 q 307 819 176 819 l 368 819 l 368 1038 z "},"e":{"ha":600,"x_min":49,"x_max":565,"o":"m 49 233 l 49 610 q 114 774 49 715 q 311 833 179 833 q 565 610 565 833 l 565 328 l 250 328 l 250 250 q 273 191 250 208 q 374 174 296 174 q 546 201 453 174 l 546 18 q 338 -8 449 -8 q 49 233 49 -8 m 250 488 l 372 488 l 372 607 q 311 660 372 660 q 250 607 250 660 l 250 488 z "},"f":{"ha":410,"x_min":7,"x_max":410,"o":"m 86 829 q 333 1064 86 1064 q 410 1057 365 1064 l 410 896 q 368 899 388 899 q 297 832 297 899 l 297 819 l 410 819 l 410 656 l 297 656 l 297 0 l 86 0 l 86 656 l 7 656 l 7 819 l 86 819 l 86 829 z "},"g":{"ha":633,"x_min":21,"x_max":626,"o":"m 626 729 l 578 729 q 547 726 567 729 q 574 615 574 682 l 574 496 q 510 336 574 393 q 317 276 446 279 q 281 246 281 276 q 292 222 281 228 q 336 215 304 215 l 413 215 q 572 173 519 215 q 624 40 624 131 l 624 6 q 550 -152 624 -96 q 331 -208 476 -208 l 279 -208 q 122 -190 190 -208 q 21 -147 54 -171 l 21 43 q 129 -10 60 13 q 274 -33 199 -33 l 303 -33 q 402 -23 375 -33 q 429 11 429 -12 l 429 18 q 382 46 429 46 l 297 46 q 147 75 197 46 q 97 169 97 104 l 97 192 q 175 293 97 279 q 32 496 32 340 l 32 615 q 99 776 32 719 q 303 833 167 833 q 454 808 393 833 q 604 915 486 915 l 626 915 l 626 729 m 365 497 l 365 614 q 303 668 365 668 q 240 614 240 668 l 240 497 q 303 443 240 443 q 365 497 365 443 z "},"h":{"ha":643,"x_min":63,"x_max":588,"o":"m 63 1038 l 272 1038 l 272 806 q 390 825 328 825 q 588 649 588 825 l 588 0 l 375 0 l 375 597 q 335 631 375 631 q 272 617 296 631 l 272 0 l 63 0 l 63 1038 z "},"i":{"ha":335,"x_min":51,"x_max":283,"o":"m 167 843 q 109 843 167 843 q 51 952 51 843 q 167 1061 51 1061 q 283 952 283 1061 q 167 843 283 843 m 63 797 l 272 797 l 272 0 l 63 0 l 63 797 z "},"j":{"ha":335,"x_min":-26,"x_max":283,"o":"m 167 843 q 109 843 167 843 q 51 952 51 843 q 167 1061 51 1061 q 283 952 283 1061 q 167 843 283 843 m 63 797 l 272 797 l 272 44 q 209 -141 272 -69 q 24 -212 146 -212 q -26 -207 -8 -212 l -26 -15 q 6 -18 -4 -18 q 63 44 63 -18 l 63 797 z "},"k":{"ha":603,"x_min":63,"x_max":596,"o":"m 265 0 l 63 0 l 63 1038 l 265 1038 l 265 479 l 368 819 l 575 819 l 457 432 l 596 0 l 376 0 l 265 403 l 265 0 z "},"l":{"ha":335,"x_min":63,"x_max":272,"o":"m 63 1038 l 272 1038 l 272 0 l 63 0 l 63 1038 z "},"m":{"ha":958,"x_min":63,"x_max":903,"o":"m 543 776 q 720 824 633 824 q 855 780 807 824 q 903 649 903 736 l 903 0 l 690 0 l 690 597 q 653 631 690 631 q 586 613 617 631 q 588 599 588 610 l 588 0 l 375 0 l 375 597 q 339 631 375 631 q 272 613 303 631 l 272 0 l 63 0 l 63 819 l 260 819 l 260 783 q 415 824 333 824 q 543 776 496 824 z "},"n":{"ha":643,"x_min":63,"x_max":588,"o":"m 260 783 q 413 824 333 824 q 540 780 492 824 q 588 649 588 736 l 588 0 l 375 0 l 375 597 q 339 631 375 631 q 272 613 303 631 l 272 0 l 63 0 l 63 819 l 260 819 l 260 783 z "},"o":{"ha":625,"x_min":49,"x_max":576,"o":"m 371 603 q 313 656 371 656 q 254 603 254 656 l 254 217 q 313 164 254 164 q 371 217 371 164 l 371 603 m 49 610 q 115 774 49 715 q 313 833 181 833 q 510 774 444 833 q 576 610 576 715 l 576 210 q 510 45 576 104 q 313 -14 444 -14 q 115 45 181 -14 q 49 210 49 104 l 49 610 z "},"p":{"ha":643,"x_min":63,"x_max":594,"o":"m 382 597 q 342 631 382 631 q 272 613 303 631 l 272 193 l 328 193 q 382 238 382 193 l 382 597 m 260 783 q 416 824 333 824 q 547 780 499 824 q 594 649 594 736 l 594 204 q 537 50 594 100 q 382 0 479 0 l 272 0 l 272 -207 l 63 -207 l 63 819 l 260 819 l 260 783 z "},"q":{"ha":642,"x_min":49,"x_max":579,"o":"m 369 633 l 324 633 q 258 563 258 633 l 258 231 q 304 188 258 188 q 369 201 335 188 l 369 633 m 307 819 l 579 819 l 579 -207 l 369 -207 l 369 18 q 243 0 319 0 q 49 207 49 0 l 49 571 q 113 753 49 688 q 307 819 176 819 z "},"r":{"ha":447,"x_min":63,"x_max":440,"o":"m 417 824 l 440 824 l 440 631 l 408 631 q 272 603 331 631 l 272 0 l 63 0 l 63 819 l 260 819 l 260 764 q 359 815 331 807 q 417 824 388 824 z "},"s":{"ha":539,"x_min":28,"x_max":511,"o":"m 31 603 q 98 770 31 714 q 315 826 165 826 q 485 806 418 826 l 485 621 q 348 642 422 642 q 253 629 274 642 q 233 589 233 617 l 233 578 q 244 549 233 561 q 289 514 254 538 l 401 439 q 483 363 454 404 q 511 258 511 321 l 511 224 q 208 -7 511 -7 q 28 11 103 -7 l 28 199 q 172 179 93 179 q 277 192 251 179 q 303 232 303 206 l 303 244 q 289 278 303 265 q 129 389 272 294 q 31 567 31 456 l 31 603 z "},"t":{"ha":443,"x_min":7,"x_max":422,"o":"m 343 176 q 422 196 386 176 l 422 10 q 299 -12 375 -12 q 131 43 181 -12 q 81 204 81 99 l 81 643 l 7 643 l 7 819 l 90 819 l 154 961 l 290 961 l 290 819 l 414 819 l 414 643 l 290 643 l 290 226 q 343 176 290 176 z "},"u":{"ha":649,"x_min":56,"x_max":586,"o":"m 376 819 l 586 819 l 586 0 l 389 0 l 389 38 q 234 0 321 0 q 101 47 147 0 q 56 183 56 94 l 56 819 l 268 819 l 268 225 q 308 189 268 189 q 376 206 349 189 l 376 819 z "},"v":{"ha":608,"x_min":7,"x_max":601,"o":"m 396 819 l 601 819 l 429 0 l 185 0 l 7 819 l 217 819 l 264 567 q 308 165 303 356 q 351 563 311 333 l 396 819 z "},"w":{"ha":867,"x_min":7,"x_max":860,"o":"m 647 819 l 860 819 l 733 0 l 499 0 l 467 293 l 438 536 l 374 0 l 140 0 l 7 819 l 225 819 l 268 271 l 340 819 l 531 819 l 607 268 l 647 819 z "},"x":{"ha":568,"x_min":7,"x_max":561,"o":"m 332 819 l 560 819 l 390 414 l 561 0 l 332 0 l 285 218 l 235 0 l 7 0 l 172 414 l 8 819 l 235 819 l 285 614 l 332 819 z "},"y":{"ha":622,"x_min":14,"x_max":608,"o":"m 407 819 l 608 819 l 414 -207 l 211 -207 l 250 0 l 178 0 l 14 819 l 219 819 q 299 363 286 465 q 315 165 311 261 q 363 563 322 333 l 407 819 z "},"z":{"ha":506,"x_min":28,"x_max":478,"o":"m 32 819 l 474 819 l 474 694 l 258 175 l 478 175 l 478 0 l 28 0 l 28 128 l 249 644 l 32 644 l 32 819 z "},"{":{"ha":572,"x_min":75,"x_max":475,"o":"m 358 950 l 358 690 q 331 538 358 593 q 229 468 303 483 q 331 404 303 454 q 358 258 358 354 l 358 -17 q 413 -71 358 -71 l 475 -71 l 475 -250 l 397 -250 q 235 -183 293 -250 q 178 -7 178 -117 l 178 296 q 82 378 178 378 l 75 378 l 75 557 l 82 557 q 178 639 178 557 l 178 940 q 235 1117 178 1050 q 397 1183 293 1183 l 475 1183 l 475 1004 l 413 1004 q 358 950 358 1004 z "},"|":{"ha":311,"x_min":85,"x_max":224,"o":"m 85 1222 l 224 1222 l 224 -264 l 85 -264 l 85 1222 z "},"}":{"ha":568,"x_min":89,"x_max":489,"o":"m 482 557 l 489 557 l 489 378 l 482 378 q 386 296 386 378 l 386 -7 q 328 -183 386 -117 q 167 -250 271 -250 l 89 -250 l 89 -71 l 151 -71 q 206 -17 206 -71 l 206 258 q 233 404 206 354 q 335 468 261 454 q 233 538 261 483 q 206 690 206 593 l 206 950 q 151 1004 206 1004 l 89 1004 l 89 1183 l 167 1183 q 328 1117 271 1183 q 386 940 386 1050 l 386 639 q 482 557 386 557 z "},"~":{"ha":868,"x_min":35,"x_max":829,"o":"m 821 614 q 829 521 829 578 q 804 419 829 464 q 736 357 779 375 q 531 361 651 321 l 333 428 q 252 433 285 449 q 229 361 219 417 l 42 361 q 35 456 35 401 q 60 556 35 511 q 128 618 85 600 q 333 614 213 654 l 531 547 q 612 542 579 526 q 635 614 644 558 l 821 614 z "}," ":{"ha":258,"x_min":0,"x_max":0,"o":""},"¡":{"ha":458,"x_min":115,"x_max":347,"o":"m 340 -143 l 118 -143 l 146 511 l 313 511 l 340 -143 m 231 615 q 173 615 231 615 q 115 724 115 615 q 231 833 115 833 q 347 724 347 833 q 231 615 347 615 z "},"¢":{"ha":526,"x_min":51,"x_max":497,"o":"m 497 613 q 366 635 424 635 q 285 620 308 635 q 261 567 261 606 l 261 253 q 285 199 261 214 q 366 185 308 185 q 497 207 424 185 l 497 14 q 407 -3 454 1 l 407 -93 l 213 -93 l 213 6 q 51 235 51 50 l 51 585 q 221 815 51 775 l 221 910 l 415 910 l 415 822 q 497 806 453 818 l 497 613 z "},"£":{"ha":722,"x_min":76,"x_max":642,"o":"m 642 181 l 642 0 l 76 0 l 76 176 q 142 219 119 190 q 164 306 164 247 l 164 399 l 76 399 l 76 576 l 164 576 l 164 689 q 243 899 164 828 q 468 969 322 969 q 626 951 572 969 l 626 758 q 494 779 563 779 q 399 753 425 779 q 372 672 372 728 l 372 576 l 563 576 l 563 399 l 372 399 l 372 338 q 358 241 372 274 q 308 181 343 208 l 642 181 z "},"¤":{"ha":639,"x_min":1,"x_max":646,"o":"m 604 561 l 604 401 q 578 276 604 329 l 644 210 l 526 92 l 447 171 q 326 153 397 153 q 197 171 256 153 l 119 92 l 1 210 l 69 278 q 43 401 43 329 l 43 561 q 69 686 43 633 l 3 753 l 121 871 l 199 792 q 320 810 249 810 q 450 792 392 810 l 528 871 l 646 753 l 578 685 q 604 561 604 633 m 244 554 l 244 408 q 324 335 244 335 q 403 408 403 335 l 403 554 q 324 628 403 628 q 244 554 244 628 z "},"¥":{"ha":781,"x_min":56,"x_max":725,"o":"m 710 618 l 710 456 l 550 456 l 522 378 l 710 378 l 710 215 l 496 215 l 496 0 l 285 0 l 285 215 l 61 215 l 61 378 l 257 378 l 231 456 l 61 456 l 61 618 l 174 618 l 56 963 l 269 963 l 347 710 l 393 551 l 439 710 l 517 963 l 725 963 l 606 618 l 710 618 z "},"¦":{"ha":313,"x_min":85,"x_max":224,"o":"m 85 278 l 224 278 l 224 -264 l 85 -264 l 85 278 m 85 1222 l 224 1222 l 224 681 l 85 681 l 85 1222 z "},"§":{"ha":561,"x_min":44,"x_max":535,"o":"m 253 390 l 253 353 q 264 325 253 338 q 425 214 279 311 q 506 138 478 179 q 535 33 535 96 l 535 22 q 232 -208 535 -208 q 51 -190 126 -208 l 51 -3 q 197 -22 117 -22 q 301 -12 276 -22 q 326 19 326 -1 q 311 53 326 39 q 153 164 296 69 q 54 342 54 231 l 54 390 l 253 390 m 44 747 q 112 915 44 858 q 329 971 179 971 q 499 950 432 971 l 499 765 q 362 786 436 786 q 267 775 288 786 q 247 744 247 764 q 258 713 247 724 q 301 681 268 701 l 415 610 q 525 429 525 542 l 525 381 l 322 381 l 322 415 q 308 447 322 433 q 238 497 289 467 l 143 560 q 44 738 44 626 l 44 747 z "},"¨":{"ha":486,"x_min":44,"x_max":443,"o":"m 443 958 q 443 920 443 958 q 363 882 443 882 q 282 958 282 882 q 363 1033 282 1033 q 443 958 443 1033 m 206 958 q 206 920 206 958 q 125 882 206 882 q 44 958 44 882 q 125 1033 44 1033 q 206 958 206 1033 z "},"©":{"ha":983,"x_min":49,"x_max":935,"o":"m 781 358 q 785 462 785 400 q 783 557 785 524 q 772 633 781 590 q 745 700 764 676 q 694 747 726 724 q 612 779 663 769 q 492 789 561 789 q 372 779 422 789 q 290 747 322 769 q 240 699 258 724 q 211 633 221 675 q 199 484 199 571 q 202 357 199 397 q 222 270 206 317 q 268 200 238 224 q 492 142 340 142 q 714 200 643 142 q 781 358 769 247 m 503 715 q 611 701 564 715 l 611 578 q 512 588 550 588 q 465 578 474 588 q 456 549 456 569 l 456 386 q 465 356 456 365 q 516 347 474 347 q 611 356 558 347 l 611 233 q 503 219 572 219 q 314 382 314 219 l 314 553 q 503 715 314 715 m 133 133 q 67 277 86 199 q 49 465 49 356 q 68 653 49 574 q 135 799 88 733 q 492 932 231 932 q 883 747 796 932 q 935 465 935 639 q 915 279 935 358 q 849 133 896 200 q 492 0 753 0 q 133 133 228 0 z "},"ª":{"ha":461,"x_min":49,"x_max":426,"o":"m 181 585 l 181 557 q 192 520 181 532 q 235 508 203 508 q 294 522 267 508 l 294 672 l 233 650 q 181 585 181 632 m 229 1033 q 426 876 426 1033 l 426 394 l 294 394 l 294 446 q 188 401 254 401 q 49 554 49 401 l 49 599 q 86 696 49 661 q 208 760 124 731 l 294 789 l 294 872 q 221 914 294 914 q 76 894 147 914 l 76 1014 q 229 1033 140 1033 z "},"«":{"ha":889,"x_min":83,"x_max":785,"o":"m 251 701 l 460 701 l 290 447 l 460 193 l 251 193 l 83 447 l 251 701 m 576 701 l 785 701 l 615 447 l 785 193 l 576 193 l 408 447 l 576 701 z "},"¬":{"ha":739,"x_min":61,"x_max":676,"o":"m 61 567 l 676 567 l 676 222 l 465 222 l 465 381 l 61 381 l 61 567 z "},"­":{"ha":433,"x_min":57,"x_max":385,"o":"m 57 551 l 385 551 l 385 371 l 57 371 l 57 551 z "},"®":{"ha":842,"x_min":132,"x_max":783,"o":"m 132 736 q 132 817 132 736 q 203 989 132 899 q 459 1079 274 1079 q 714 991 644 1079 q 783 733 783 903 q 721 488 783 575 q 458 388 650 388 q 194 486 265 388 q 132 736 132 574 m 280 522 q 292 513 280 522 q 349 490 304 503 q 458 476 393 476 q 567 490 522 476 q 635 523 611 503 q 672 580 658 543 q 688 649 685 617 q 690 731 690 681 q 689 807 690 781 q 681 868 688 833 q 658 922 674 903 q 618 958 643 940 q 458 992 572 992 q 278 944 339 992 q 242 888 254 926 q 227 819 229 850 q 225 734 225 789 q 228 647 225 679 q 243 578 231 615 q 280 522 256 542 m 335 932 l 453 932 q 596 807 596 932 q 550 701 596 733 l 613 540 l 514 540 l 469 678 l 426 678 l 426 540 l 335 540 l 335 932 m 426 753 l 444 753 q 493 763 481 753 q 506 806 506 774 q 493 848 506 839 q 451 857 481 857 l 426 857 l 426 753 z "},"¯":{"ha":486,"x_min":57,"x_max":428,"o":"m 57 1011 l 428 1011 l 428 904 l 57 904 l 57 1011 z "},"°":{"ha":611,"x_min":58,"x_max":551,"o":"m 304 840 q 379 936 379 840 q 304 1032 379 1032 q 247 1008 264 1032 q 231 936 231 985 q 247 864 231 888 q 304 840 264 840 m 119 751 q 89 785 119 751 q 58 936 58 819 q 119 1121 58 1053 q 305 1189 179 1189 q 491 1121 431 1189 q 551 936 551 1053 q 491 751 551 819 q 305 683 431 683 q 119 751 179 683 z "},"±":{"ha":692,"x_min":64,"x_max":640,"o":"m 639 181 l 640 0 l 65 0 l 64 181 l 639 181 m 254 242 l 254 371 l 64 371 l 64 551 l 254 551 l 254 681 l 449 681 l 449 551 l 639 551 l 639 371 l 449 371 l 449 242 l 254 242 z "},"²":{"ha":417,"x_min":49,"x_max":383,"o":"m 215 1033 q 383 881 383 1033 l 383 814 q 324 696 383 740 l 225 622 q 189 590 196 601 q 182 551 182 579 l 182 522 l 381 522 l 381 401 l 49 401 l 49 563 q 114 694 49 647 l 222 772 q 247 799 242 788 q 251 838 251 810 l 251 876 q 210 914 251 914 q 61 896 135 914 l 61 1017 q 215 1033 111 1033 z "},"³":{"ha":403,"x_min":35,"x_max":357,"o":"m 189 1033 q 357 881 357 1033 l 357 811 q 313 717 357 744 q 357 618 357 688 l 357 547 q 189 394 357 394 q 35 411 85 394 l 35 532 q 183 514 108 514 q 225 551 225 514 l 225 618 q 217 645 225 636 q 188 654 210 654 l 118 654 l 118 775 l 188 775 q 225 811 225 775 l 225 876 q 183 914 225 914 q 35 896 108 914 l 35 1017 q 189 1033 85 1033 z "},"´":{"ha":486,"x_min":136,"x_max":350,"o":"m 197 1038 l 350 1038 l 246 878 l 136 878 l 197 1038 z "},"µ":{"ha":646,"x_min":53,"x_max":583,"o":"m 386 38 q 265 1 322 1 l 265 -206 l 53 -206 l 53 819 l 265 819 l 265 193 q 308 190 274 190 q 374 206 343 190 l 374 819 l 583 819 l 583 0 l 386 0 l 386 38 z "},"¶":{"ha":643,"x_min":79,"x_max":567,"o":"m 321 963 l 567 963 l 567 0 l 356 0 l 356 539 l 321 539 q 144 593 208 539 q 79 751 79 647 q 144 909 79 856 q 321 963 208 963 z "},"·":{"ha":399,"x_min":93,"x_max":301,"o":"m 197 376 q 145 376 197 376 q 93 481 93 376 q 197 585 93 585 q 301 481 301 585 q 197 376 301 376 z "},"¸":{"ha":486,"x_min":136,"x_max":349,"o":"m 268 -54 q 323 -79 297 -57 q 349 -151 349 -101 q 310 -233 349 -201 q 223 -265 272 -265 q 136 -257 174 -265 l 136 -165 q 190 -172 153 -172 q 228 -141 228 -172 q 183 -107 228 -110 l 168 -107 l 193 8 l 282 8 l 268 -54 z "},"¹":{"ha":296,"x_min":11,"x_max":247,"o":"m 247 1024 l 247 400 l 117 400 l 117 878 l 11 803 l 11 949 l 117 1024 l 247 1024 z "},"º":{"ha":444,"x_min":58,"x_max":425,"o":"m 293 876 q 242 914 293 914 q 190 876 190 914 l 190 554 q 242 517 190 517 q 293 554 293 517 l 293 876 m 58 874 q 242 1036 58 1036 q 425 874 425 1036 l 425 557 q 242 394 425 394 q 58 557 58 394 l 58 874 z "},"»":{"ha":885,"x_min":83,"x_max":785,"o":"m 83 701 l 292 701 l 460 447 l 292 193 l 83 193 l 253 447 l 83 701 m 408 701 l 617 701 l 785 447 l 617 193 l 408 193 l 578 447 l 408 701 z "},"¼":{"ha":1151,"x_min":56,"x_max":1082,"o":"m 750 963 l 882 963 l 322 0 l 190 0 l 750 963 m 893 222 l 893 511 l 793 222 l 893 222 m 1024 624 l 1024 222 l 1082 222 l 1082 106 l 1024 106 l 1024 0 l 893 0 l 893 106 l 672 106 l 672 229 l 819 624 l 1024 624 m 292 963 l 292 339 l 161 339 l 161 817 l 56 742 l 56 888 l 161 963 l 292 963 z "},"½":{"ha":1168,"x_min":56,"x_max":1075,"o":"m 750 963 l 882 963 l 322 0 l 190 0 l 750 963 m 292 963 l 292 339 l 161 339 l 161 817 l 56 742 l 56 888 l 161 963 l 292 963 m 907 632 q 1075 479 1075 632 l 1075 413 q 1015 294 1075 339 l 917 221 q 881 189 888 200 q 874 150 874 178 l 874 121 l 1072 121 l 1072 0 l 740 0 l 740 161 q 806 293 740 246 l 914 371 q 938 397 933 386 q 943 436 943 408 l 943 475 q 901 513 943 513 q 753 494 826 513 l 753 615 q 907 632 803 632 z "},"¾":{"ha":1182,"x_min":56,"x_max":1113,"o":"m 210 971 q 378 818 378 971 l 378 749 q 333 654 378 682 q 378 556 378 625 l 378 485 q 210 332 378 332 q 56 349 106 332 l 56 469 q 204 451 129 451 q 246 489 246 451 l 246 556 q 238 583 246 574 q 208 592 231 592 l 139 592 l 139 713 l 208 713 q 246 749 246 713 l 246 814 q 204 851 246 851 q 56 833 129 851 l 56 954 q 210 971 106 971 m 781 963 l 913 963 l 353 0 l 221 0 l 781 963 m 924 222 l 924 511 l 824 222 l 924 222 m 1054 624 l 1054 222 l 1113 222 l 1113 106 l 1054 106 l 1054 0 l 924 0 l 924 106 l 703 106 l 703 229 l 850 624 l 1054 624 z "},"¿":{"ha":589,"x_min":36,"x_max":528,"o":"m 341 835 q 399 835 341 835 q 457 726 457 835 q 341 617 457 617 q 225 726 225 617 q 341 835 225 835 m 335 -156 q 36 78 36 -156 l 36 194 q 85 363 36 308 q 249 418 133 418 l 258 513 l 429 513 l 439 265 l 357 265 q 264 250 290 265 q 238 190 238 235 l 238 100 q 256 49 238 64 q 328 33 275 33 q 528 68 447 33 l 528 -129 q 335 -156 449 -156 z "},"À":{"ha":679,"x_min":7,"x_max":672,"o":"m 474 0 l 433 222 l 243 222 l 206 0 l 7 0 l 196 963 l 486 963 l 672 0 l 474 0 m 272 399 l 403 399 l 336 771 l 272 399 m 392 1017 l 282 1017 l 178 1176 l 331 1176 l 392 1017 z "},"Á":{"ha":679,"x_min":7,"x_max":672,"o":"m 474 0 l 433 222 l 243 222 l 206 0 l 7 0 l 196 963 l 486 963 l 672 0 l 474 0 m 272 399 l 403 399 l 336 771 l 272 399 m 489 1176 l 385 1017 l 275 1017 l 336 1176 l 489 1176 z "},"Â":{"ha":679,"x_min":7,"x_max":672,"o":"m 474 0 l 433 222 l 243 222 l 206 0 l 7 0 l 196 963 l 486 963 l 672 0 l 474 0 m 272 399 l 403 399 l 336 771 l 272 399 m 347 1092 l 290 1017 l 189 1017 l 272 1176 l 421 1176 l 504 1017 l 403 1017 l 347 1092 z "},"Ã":{"ha":679,"x_min":7,"x_max":672,"o":"m 474 0 l 433 222 l 243 222 l 206 0 l 7 0 l 196 963 l 486 963 l 672 0 l 474 0 m 272 399 l 403 399 l 336 771 l 272 399 m 238 1022 l 238 1018 l 128 1018 l 128 1021 q 251 1171 131 1171 q 338 1144 293 1171 q 396 1117 383 1117 q 425 1167 425 1117 l 425 1172 l 535 1172 l 535 1165 q 503 1058 533 1097 q 411 1019 472 1019 q 326 1047 374 1019 q 267 1074 279 1074 q 238 1022 238 1074 z "},"Ä":{"ha":679,"x_min":7,"x_max":672,"o":"m 474 0 l 433 222 l 243 222 l 206 0 l 7 0 l 196 963 l 486 963 l 672 0 l 474 0 m 272 399 l 403 399 l 336 771 l 272 399 m 299 1097 q 299 1059 299 1097 q 218 1021 299 1021 q 138 1097 138 1021 q 218 1172 138 1172 q 299 1097 299 1172 m 536 1097 q 536 1059 536 1097 q 456 1021 536 1021 q 375 1097 375 1021 q 456 1172 375 1172 q 536 1097 536 1172 z "},"Å":{"ha":679,"x_min":7,"x_max":672,"o":"m 474 0 l 433 222 l 243 222 l 206 0 l 7 0 l 196 963 l 486 963 l 672 0 l 474 0 m 272 399 l 403 399 l 336 771 l 272 399 m 419 1016 q 404 1000 419 1016 q 336 985 389 985 q 253 1017 283 985 q 224 1096 224 1049 q 253 1174 224 1143 q 336 1206 283 1206 q 419 1174 389 1206 q 449 1095 449 1143 q 419 1016 449 1047 m 365 1124 q 359 1129 365 1124 q 336 1135 354 1135 q 308 1124 318 1135 q 297 1096 297 1113 q 336 1056 297 1056 q 375 1096 375 1056 q 365 1124 375 1113 z "},"Æ":{"ha":1007,"x_min":0,"x_max":967,"o":"m 967 782 l 688 782 l 688 578 l 929 578 l 929 397 l 688 397 l 688 181 l 967 181 l 967 0 l 493 0 l 493 222 l 281 222 l 201 0 l 0 0 l 369 963 l 967 963 l 967 782 m 493 399 l 493 818 l 343 399 l 493 399 z "},"Ç":{"ha":572,"x_min":49,"x_max":538,"o":"m 354 -54 q 409 -79 383 -57 q 435 -151 435 -101 q 397 -233 435 -201 q 309 -265 358 -265 q 222 -257 260 -265 l 222 -165 q 276 -172 239 -172 q 314 -141 314 -172 q 269 -107 314 -110 l 254 -107 l 276 -3 q 49 226 49 28 l 49 735 q 126 908 49 846 q 358 969 203 969 q 533 950 461 969 l 533 758 q 380 782 456 782 q 282 765 304 782 q 260 714 260 747 l 260 247 q 365 181 260 181 q 538 201 469 181 l 538 14 q 365 -7 472 -4 l 354 -54 z "},"È":{"ha":585,"x_min":63,"x_max":550,"o":"m 150 1176 l 303 1176 l 364 1017 l 254 1017 l 150 1176 m 63 963 l 550 963 l 550 782 l 271 782 l 271 578 l 513 578 l 513 397 l 271 397 l 271 181 l 550 181 l 550 0 l 63 0 l 63 963 z "},"É":{"ha":585,"x_min":63,"x_max":550,"o":"m 63 963 l 550 963 l 550 782 l 271 782 l 271 578 l 513 578 l 513 397 l 271 397 l 271 181 l 550 181 l 550 0 l 63 0 l 63 963 m 307 1176 l 460 1176 l 356 1017 l 246 1017 l 307 1176 z "},"Ê":{"ha":585,"x_min":63,"x_max":550,"o":"m 550 782 l 271 782 l 271 578 l 513 578 l 513 397 l 271 397 l 271 181 l 550 181 l 550 0 l 63 0 l 63 963 l 550 963 l 550 782 m 297 1092 l 240 1017 l 139 1017 l 222 1176 l 371 1176 l 454 1017 l 353 1017 l 297 1092 z "},"Ë":{"ha":585,"x_min":63,"x_max":550,"o":"m 63 963 l 550 963 l 550 782 l 271 782 l 271 578 l 513 578 l 513 397 l 271 397 l 271 181 l 550 181 l 550 0 l 63 0 l 63 963 m 507 1097 q 507 1059 507 1097 q 426 1021 507 1021 q 346 1097 346 1021 q 426 1172 346 1172 q 507 1097 507 1172 m 269 1097 q 269 1059 269 1097 q 189 1021 269 1021 q 108 1097 108 1021 q 189 1172 108 1172 q 269 1097 269 1172 z "},"Ì":{"ha":585,"x_min":63,"x_max":550,"o":"m 146 1176 l 299 1176 l 360 1017 l 250 1017 l 146 1176 m 63 963 l 550 963 l 550 782 l 271 782 l 271 578 l 513 578 l 513 397 l 271 397 l 271 181 l 550 181 l 550 0 l 63 0 l 63 963 z "},"Í":{"ha":585,"x_min":63,"x_max":550,"o":"m 63 963 l 550 963 l 550 782 l 271 782 l 271 578 l 513 578 l 513 397 l 271 397 l 271 181 l 550 181 l 550 0 l 63 0 l 63 963 m 308 1176 l 461 1176 l 357 1017 l 247 1017 l 308 1176 z "},"Î":{"ha":336,"x_min":10,"x_max":325,"o":"m 63 0 l 63 963 l 274 963 l 274 0 l 63 0 m 168 1092 l 111 1017 l 10 1017 l 93 1176 l 242 1176 l 325 1017 l 224 1017 l 168 1092 z "},"Ï":{"ha":336,"x_min":-32,"x_max":367,"o":"m 367 1097 q 367 1059 367 1097 q 286 1021 367 1021 q 206 1097 206 1021 q 286 1172 206 1172 q 367 1097 367 1172 m 129 1097 q 129 1059 129 1097 q 49 1021 129 1021 q -32 1097 -32 1021 q 49 1172 -32 1172 q 129 1097 129 1172 m 63 963 l 274 963 l 274 0 l 63 0 l 63 963 z "},"Ð":{"ha":693,"x_min":-12,"x_max":650,"o":"m 76 963 l 414 963 q 588 908 526 963 q 650 749 650 854 l 650 226 q 426 0 650 0 l 76 0 l 76 388 l -12 388 l -12 560 l 76 560 l 76 963 m 442 243 l 442 740 q 430 778 442 765 q 385 792 418 792 l 285 792 l 285 560 l 363 560 l 363 388 l 285 388 l 285 179 l 385 179 q 442 243 442 179 z "},"Ñ":{"ha":739,"x_min":63,"x_max":676,"o":"m 471 963 l 676 963 l 676 0 l 476 0 q 239 633 271 525 q 268 256 268 524 l 268 0 l 63 0 l 63 963 l 268 963 l 394 640 q 503 326 475 433 q 471 721 471 461 l 471 963 m 283 1022 l 283 1018 l 174 1018 l 174 1021 q 297 1171 176 1171 q 385 1144 339 1171 q 442 1117 431 1117 q 471 1167 471 1117 l 471 1172 l 581 1172 l 581 1165 q 549 1058 579 1097 q 457 1019 518 1019 q 372 1047 419 1019 q 313 1074 325 1074 q 283 1022 283 1074 z "},"Ò":{"ha":679,"x_min":49,"x_max":631,"o":"m 178 1176 l 331 1176 l 392 1017 l 282 1017 l 178 1176 m 422 717 q 340 786 422 786 q 257 717 257 786 l 257 246 q 340 176 257 176 q 422 246 422 176 l 422 717 m 49 728 q 122 909 49 842 q 339 976 196 976 q 556 909 482 976 q 631 728 631 842 l 631 235 q 556 53 631 121 q 339 -14 482 -14 q 122 53 196 -14 q 49 235 49 121 l 49 728 z "},"Ó":{"ha":679,"x_min":49,"x_max":631,"o":"m 422 717 q 340 786 422 786 q 257 717 257 786 l 257 246 q 340 176 257 176 q 422 246 422 176 l 422 717 m 49 728 q 122 909 49 842 q 339 976 196 976 q 556 909 482 976 q 631 728 631 842 l 631 235 q 556 53 631 121 q 339 -14 482 -14 q 122 53 196 -14 q 49 235 49 121 l 49 728 m 357 1176 l 510 1176 l 406 1017 l 296 1017 l 357 1176 z "},"Ô":{"ha":679,"x_min":49,"x_max":631,"o":"m 49 235 l 49 728 q 122 909 49 842 q 339 976 196 976 q 556 909 482 976 q 631 728 631 842 l 631 235 q 556 53 631 121 q 339 -14 482 -14 q 122 53 196 -14 q 49 235 49 121 m 422 246 l 422 717 q 340 786 422 786 q 257 717 257 786 l 257 246 q 340 176 257 176 q 422 246 422 176 m 343 1092 l 286 1017 l 185 1017 l 268 1176 l 417 1176 l 500 1017 l 399 1017 l 343 1092 z "},"Õ":{"ha":679,"x_min":49,"x_max":631,"o":"m 429 1172 l 539 1172 l 539 1165 q 507 1058 538 1097 q 415 1019 476 1019 q 331 1047 378 1019 q 271 1074 283 1074 q 242 1022 242 1074 l 242 1018 l 132 1018 l 132 1021 q 256 1171 135 1171 q 342 1144 296 1171 q 400 1117 389 1117 q 429 1167 429 1117 l 429 1172 m 422 717 q 340 786 422 786 q 257 717 257 786 l 257 246 q 340 176 257 176 q 422 246 422 176 l 422 717 m 49 728 q 122 909 49 842 q 339 976 196 976 q 556 909 482 976 q 631 728 631 842 l 631 235 q 556 53 631 121 q 339 -14 482 -14 q 122 53 196 -14 q 49 235 49 121 l 49 728 z "},"Ö":{"ha":679,"x_min":49,"x_max":631,"o":"m 422 717 q 340 786 422 786 q 257 717 257 786 l 257 246 q 340 176 257 176 q 422 246 422 176 l 422 717 m 49 728 q 122 909 49 842 q 339 976 196 976 q 556 909 482 976 q 631 728 631 842 l 631 235 q 556 53 631 121 q 339 -14 482 -14 q 122 53 196 -14 q 49 235 49 121 l 49 728 m 539 1097 q 539 1059 539 1097 q 458 1021 539 1021 q 378 1097 378 1021 q 458 1172 378 1172 q 539 1097 539 1172 m 301 1097 q 301 1059 301 1097 q 221 1021 301 1021 q 140 1097 140 1021 q 221 1172 140 1172 q 301 1097 301 1172 z "},"×":{"ha":685,"x_min":58,"x_max":624,"o":"m 624 310 l 496 182 l 342 338 l 186 182 l 58 310 l 214 465 l 61 617 l 189 744 l 342 593 l 493 744 l 621 617 l 469 465 l 624 310 z "},"Ø":{"ha":679,"x_min":42,"x_max":638,"o":"m 631 728 l 631 235 q 556 53 631 121 q 339 -14 482 -14 q 175 18 243 -14 l 167 0 l 42 0 l 88 93 q 49 235 49 150 l 49 728 q 122 909 49 842 q 339 976 196 976 q 503 944 436 976 l 513 963 l 638 963 l 592 868 q 631 728 631 811 m 257 717 l 257 440 l 411 757 q 339 786 393 786 q 257 717 257 786 m 422 246 l 422 522 l 267 206 q 339 176 288 176 q 422 246 422 176 z "},"Ù":{"ha":688,"x_min":56,"x_max":632,"o":"m 186 1176 l 339 1176 l 400 1017 l 290 1017 l 186 1176 m 424 963 l 632 963 l 632 235 q 559 53 632 121 q 344 -14 486 -14 q 128 53 201 -14 q 56 235 56 119 l 56 963 l 264 963 l 264 246 q 344 176 264 176 q 424 246 424 176 l 424 963 z "},"Ú":{"ha":688,"x_min":56,"x_max":632,"o":"m 424 963 l 632 963 l 632 235 q 559 53 632 121 q 344 -14 486 -14 q 128 53 201 -14 q 56 235 56 119 l 56 963 l 264 963 l 264 246 q 344 176 264 176 q 424 246 424 176 l 424 963 m 349 1176 l 501 1176 l 397 1017 l 288 1017 l 349 1176 z "},"Û":{"ha":688,"x_min":56,"x_max":632,"o":"m 424 963 l 632 963 l 632 235 q 559 53 632 121 q 344 -14 486 -14 q 128 53 201 -14 q 56 235 56 119 l 56 963 l 264 963 l 264 246 q 344 176 264 176 q 424 246 424 176 l 424 963 m 344 1092 l 288 1017 l 186 1017 l 269 1176 l 418 1176 l 501 1017 l 400 1017 l 344 1092 z "},"Ü":{"ha":688,"x_min":56,"x_max":632,"o":"m 424 963 l 632 963 l 632 235 q 559 53 632 121 q 344 -14 486 -14 q 128 53 201 -14 q 56 235 56 119 l 56 963 l 264 963 l 264 246 q 344 176 264 176 q 424 246 424 176 l 424 963 m 542 1097 q 542 1059 542 1097 q 461 1021 542 1021 q 381 1097 381 1021 q 461 1172 381 1172 q 542 1097 542 1172 m 304 1097 q 304 1059 304 1097 q 224 1021 304 1021 q 143 1097 143 1021 q 224 1172 143 1172 q 304 1097 304 1172 z "},"Ý":{"ha":669,"x_min":0,"x_max":669,"o":"m 339 1178 l 492 1178 l 388 1018 l 278 1018 l 339 1178 m 440 0 l 229 0 l 229 299 l 0 963 l 214 963 l 260 817 q 338 514 314 646 q 417 819 364 649 l 461 963 l 669 963 l 440 299 l 440 0 z "},"Þ":{"ha":629,"x_min":76,"x_max":615,"o":"m 276 819 l 374 819 q 551 765 486 819 q 615 606 615 711 l 615 358 q 551 199 615 253 q 374 144 486 144 l 276 144 l 276 0 l 76 0 l 76 963 l 276 963 l 276 819 m 415 381 l 415 583 q 356 642 415 642 l 276 642 l 276 322 l 356 322 q 415 381 415 322 z "},"ß":{"ha":790,"x_min":63,"x_max":767,"o":"m 63 725 q 138 936 63 863 q 351 1010 213 1010 q 569 943 489 1010 q 649 760 649 876 q 615 624 649 694 q 582 539 582 553 l 582 524 q 621 465 582 497 q 648 444 629 458 q 675 422 667 429 q 767 258 767 344 l 767 213 q 488 -4 767 -4 q 333 13 419 -4 l 333 197 q 463 176 400 176 q 547 188 526 176 q 567 231 567 200 l 567 242 q 552 276 567 261 q 527 299 538 290 q 510 314 517 308 q 468 347 489 333 q 369 500 369 429 l 369 528 q 406 642 369 569 q 442 749 442 714 q 356 826 442 826 q 282 798 306 826 q 258 707 258 769 l 258 0 l 63 0 l 63 725 z "},"à":{"ha":607,"x_min":26,"x_max":551,"o":"m 136 1038 l 289 1038 l 350 878 l 240 878 l 136 1038 m 232 238 l 232 199 q 281 151 232 151 q 350 167 322 151 l 350 335 l 286 318 q 242 293 251 308 q 232 238 232 278 m 69 800 q 288 826 146 826 q 490 765 429 826 q 551 578 551 703 l 551 0 l 356 0 l 356 60 q 215 -3 315 -3 q 71 45 115 -3 q 26 199 26 93 l 26 246 q 67 389 26 339 q 200 464 108 439 l 351 503 l 351 579 q 331 630 350 615 q 260 644 311 644 q 69 615 144 644 l 69 800 z "},"á":{"ha":607,"x_min":26,"x_max":551,"o":"m 292 1038 l 444 1038 l 340 878 l 231 878 l 292 1038 m 232 238 l 232 199 q 281 151 232 151 q 350 167 322 151 l 350 335 l 286 318 q 242 293 251 308 q 232 238 232 278 m 69 800 q 288 826 146 826 q 490 765 429 826 q 551 578 551 703 l 551 0 l 356 0 l 356 60 q 215 -3 315 -3 q 71 45 115 -3 q 26 199 26 93 l 26 246 q 67 389 26 339 q 200 464 108 439 l 351 503 l 351 579 q 331 630 350 615 q 260 644 311 644 q 69 615 144 644 l 69 800 z "},"â":{"ha":607,"x_min":26,"x_max":551,"o":"m 69 800 q 288 826 146 826 q 490 765 429 826 q 551 578 551 703 l 551 0 l 356 0 l 356 60 q 215 -3 315 -3 q 71 45 115 -3 q 26 199 26 93 l 26 246 q 67 389 26 339 q 200 464 108 439 l 351 503 l 351 579 q 331 630 350 615 q 260 644 311 644 q 69 615 144 644 l 69 800 m 232 238 l 232 199 q 281 151 232 151 q 350 167 322 151 l 350 335 l 286 318 q 242 293 251 308 q 232 238 232 278 m 299 953 l 242 878 l 140 878 l 224 1038 l 372 1038 l 456 878 l 354 878 l 299 953 z "},"ã":{"ha":607,"x_min":26,"x_max":551,"o":"m 388 1033 l 497 1033 l 497 1026 q 465 919 496 958 q 374 881 435 881 q 289 908 336 881 q 229 935 242 935 q 200 883 200 935 l 200 879 l 90 879 l 90 882 q 214 1032 93 1032 q 301 1005 256 1032 q 358 978 347 978 q 388 1028 388 978 l 388 1033 m 232 238 l 232 199 q 281 151 232 151 q 350 167 322 151 l 350 335 l 286 318 q 242 293 251 308 q 232 238 232 278 m 69 800 q 288 826 146 826 q 490 765 429 826 q 551 578 551 703 l 551 0 l 356 0 l 356 60 q 215 -3 315 -3 q 71 45 115 -3 q 26 199 26 93 l 26 246 q 67 389 26 339 q 200 464 108 439 l 351 503 l 351 579 q 331 630 350 615 q 260 644 311 644 q 69 615 144 644 l 69 800 z "},"ä":{"ha":607,"x_min":26,"x_max":551,"o":"m 492 958 q 492 920 492 958 q 411 882 492 882 q 331 958 331 882 q 411 1033 331 1033 q 492 958 492 1033 m 254 958 q 254 920 254 958 q 174 882 254 882 q 93 958 93 882 q 174 1033 93 1033 q 254 958 254 1033 m 232 238 l 232 199 q 281 151 232 151 q 350 167 322 151 l 350 335 l 286 318 q 242 293 251 308 q 232 238 232 278 m 69 800 q 288 826 146 826 q 490 765 429 826 q 551 578 551 703 l 551 0 l 356 0 l 356 60 q 215 -3 315 -3 q 71 45 115 -3 q 26 199 26 93 l 26 246 q 67 389 26 339 q 200 464 108 439 l 351 503 l 351 579 q 331 630 350 615 q 260 644 311 644 q 69 615 144 644 l 69 800 z "},"å":{"ha":607,"x_min":26,"x_max":551,"o":"m 329 957 q 319 985 329 974 q 290 996 308 996 q 262 985 272 996 q 251 957 251 974 q 290 917 251 917 q 329 957 329 917 m 208 878 q 193 894 208 878 q 178 957 178 910 q 208 1035 178 1004 q 290 1067 238 1067 q 373 1035 343 1067 q 403 956 403 1004 q 373 877 403 908 q 290 846 343 846 q 208 878 238 846 m 232 238 l 232 199 q 281 151 232 151 q 350 167 322 151 l 350 335 l 286 318 q 242 293 251 308 q 232 238 232 278 m 69 800 q 288 826 146 826 q 490 765 429 826 q 551 578 551 703 l 551 0 l 356 0 l 356 60 q 215 -3 315 -3 q 71 45 115 -3 q 26 199 26 93 l 26 246 q 67 389 26 339 q 200 464 108 439 l 351 503 l 351 579 q 331 630 350 615 q 260 644 311 644 q 69 615 144 644 l 69 800 z "},"æ":{"ha":910,"x_min":33,"x_max":865,"o":"m 672 607 q 610 660 672 660 q 547 607 547 660 l 547 488 l 672 488 l 672 607 m 232 238 l 232 199 q 281 151 232 151 q 354 168 321 151 l 354 338 l 286 319 q 242 294 251 310 q 232 238 232 278 m 611 833 q 865 610 865 833 l 865 328 l 549 328 l 549 250 q 574 190 549 206 q 676 174 600 174 q 846 201 753 174 l 846 18 q 632 -8 749 -8 q 444 35 515 -8 q 243 -6 381 -6 q 33 197 33 -6 l 33 246 q 72 388 33 339 q 200 465 110 438 l 350 513 l 349 592 q 260 644 349 644 q 69 614 149 644 l 69 797 q 267 826 153 826 q 442 794 381 826 q 611 833 507 833 z "},"ç":{"ha":522,"x_min":49,"x_max":494,"o":"m 494 613 q 363 635 421 635 q 282 620 306 635 q 258 567 258 606 l 258 253 q 282 199 258 214 q 363 185 306 185 q 494 207 421 185 l 494 14 q 336 -7 419 -6 l 325 -54 q 380 -79 354 -57 q 406 -151 406 -101 q 367 -233 406 -201 q 280 -265 329 -265 q 193 -257 231 -265 l 193 -165 q 247 -172 210 -172 q 285 -141 285 -172 q 240 -107 285 -110 l 225 -107 l 247 -1 q 49 235 49 28 l 49 585 q 321 826 49 826 q 494 806 418 826 l 494 613 z "},"è":{"ha":600,"x_min":49,"x_max":565,"o":"m 49 233 l 49 610 q 114 774 49 715 q 311 833 179 833 q 565 610 565 833 l 565 328 l 250 328 l 250 250 q 273 191 250 208 q 374 174 296 174 q 546 201 453 174 l 546 18 q 338 -8 449 -8 q 49 233 49 -8 m 250 488 l 372 488 l 372 607 q 311 660 372 660 q 250 607 250 660 l 250 488 m 364 878 l 254 878 l 150 1038 l 303 1038 l 364 878 z "},"é":{"ha":600,"x_min":49,"x_max":565,"o":"m 49 233 l 49 610 q 114 774 49 715 q 311 833 179 833 q 565 610 565 833 l 565 328 l 250 328 l 250 250 q 273 191 250 208 q 374 174 296 174 q 546 201 453 174 l 546 18 q 338 -8 449 -8 q 49 233 49 -8 m 250 488 l 372 488 l 372 607 q 311 660 372 660 q 250 607 250 660 l 250 488 m 464 1038 l 360 878 l 250 878 l 311 1038 l 464 1038 z "},"ê":{"ha":600,"x_min":49,"x_max":565,"o":"m 49 233 l 49 610 q 114 774 49 715 q 311 833 179 833 q 565 610 565 833 l 565 328 l 250 328 l 250 250 q 273 191 250 208 q 374 174 296 174 q 546 201 453 174 l 546 18 q 338 -8 449 -8 q 49 233 49 -8 m 250 488 l 372 488 l 372 607 q 311 660 372 660 q 250 607 250 660 l 250 488 m 315 953 l 258 878 l 157 878 l 240 1038 l 389 1038 l 472 878 l 371 878 l 315 953 z "},"ë":{"ha":600,"x_min":49,"x_max":565,"o":"m 49 233 l 49 610 q 114 774 49 715 q 311 833 179 833 q 565 610 565 833 l 565 328 l 250 328 l 250 250 q 273 191 250 208 q 374 174 296 174 q 546 201 453 174 l 546 18 q 338 -8 449 -8 q 49 233 49 -8 m 250 488 l 372 488 l 372 607 q 311 660 372 660 q 250 607 250 660 l 250 488 m 274 958 q 274 920 274 958 q 193 882 274 882 q 113 958 113 882 q 193 1033 113 1033 q 274 958 274 1033 m 511 958 q 511 920 511 958 q 431 882 511 882 q 350 958 350 882 q 431 1033 350 1033 q 511 958 511 1033 z "},"ì":{"ha":335,"x_min":-3,"x_max":272,"o":"m -3 1038 l 150 1038 l 211 878 l 101 878 l -3 1038 m 63 797 l 272 797 l 272 0 l 63 0 l 63 797 z "},"í":{"ha":335,"x_min":63,"x_max":322,"o":"m 169 1038 l 322 1038 l 218 878 l 108 878 l 169 1038 m 63 797 l 272 797 l 272 0 l 63 0 l 63 797 z "},"î":{"ha":335,"x_min":11,"x_max":326,"o":"m 63 0 l 63 797 l 272 797 l 272 0 l 63 0 m 169 953 l 113 878 l 11 878 l 94 1038 l 243 1038 l 326 878 l 225 878 l 169 953 z "},"ï":{"ha":335,"x_min":-32,"x_max":367,"o":"m 367 958 q 367 920 367 958 q 286 882 367 882 q 206 958 206 882 q 286 1033 206 1033 q 367 958 367 1033 m 129 958 q 129 920 129 958 q 49 882 129 882 q -32 958 -32 882 q 49 1033 -32 1033 q 129 958 129 1033 m 63 797 l 272 797 l 272 0 l 63 0 l 63 797 z "},"ð":{"ha":629,"x_min":56,"x_max":581,"o":"m 581 431 l 581 222 q 514 53 581 113 q 317 -7 447 -7 q 122 52 188 -7 q 56 221 56 111 l 56 443 q 103 595 56 544 q 251 646 150 646 q 357 593 322 646 q 283 758 335 669 l 135 696 l 135 799 l 229 839 q 131 963 186 899 l 365 963 q 406 913 396 925 l 543 971 l 543 867 l 460 832 q 581 431 581 631 m 381 226 l 381 481 q 319 490 354 490 q 269 479 283 490 q 256 436 256 468 l 256 229 q 318 174 256 174 q 381 226 381 174 z "},"ñ":{"ha":643,"x_min":63,"x_max":588,"o":"m 414 1033 l 524 1033 l 524 1026 q 492 919 522 958 q 400 881 461 881 q 315 908 363 881 q 256 935 268 935 q 226 883 226 935 l 226 879 l 117 879 l 117 882 q 240 1032 119 1032 q 326 1005 281 1032 q 385 978 372 978 q 414 1028 414 978 l 414 1033 m 260 783 q 413 824 333 824 q 540 780 492 824 q 588 649 588 736 l 588 0 l 375 0 l 375 597 q 339 631 375 631 q 272 613 303 631 l 272 0 l 63 0 l 63 819 l 260 819 l 260 783 z "},"ò":{"ha":625,"x_min":49,"x_max":576,"o":"m 164 1038 l 317 1038 l 378 878 l 268 878 l 164 1038 m 371 603 q 313 656 371 656 q 254 603 254 656 l 254 217 q 313 164 254 164 q 371 217 371 164 l 371 603 m 49 610 q 115 774 49 715 q 313 833 181 833 q 510 774 444 833 q 576 610 576 715 l 576 210 q 510 45 576 104 q 313 -14 444 -14 q 115 45 181 -14 q 49 210 49 104 l 49 610 z "},"ó":{"ha":625,"x_min":49,"x_max":576,"o":"m 371 603 q 313 656 371 656 q 254 603 254 656 l 254 217 q 313 164 254 164 q 371 217 371 164 l 371 603 m 49 610 q 115 774 49 715 q 313 833 181 833 q 510 774 444 833 q 576 610 576 715 l 576 210 q 510 45 576 104 q 313 -14 444 -14 q 115 45 181 -14 q 49 210 49 104 l 49 610 m 324 1038 l 476 1038 l 372 878 l 263 878 l 324 1038 z "},"ô":{"ha":625,"x_min":49,"x_max":576,"o":"m 49 210 l 49 610 q 115 774 49 715 q 313 833 181 833 q 510 774 444 833 q 576 610 576 715 l 576 210 q 510 45 576 104 q 313 -14 444 -14 q 115 45 181 -14 q 49 210 49 104 m 371 217 l 371 603 q 313 656 371 656 q 254 603 254 656 l 254 217 q 313 164 254 164 q 371 217 371 164 m 317 953 l 260 878 l 158 878 l 242 1038 l 390 1038 l 474 878 l 372 878 l 317 953 z "},"õ":{"ha":625,"x_min":49,"x_max":576,"o":"m 407 1033 l 517 1033 l 517 1026 q 485 919 515 958 q 393 881 454 881 q 308 908 356 881 q 249 935 261 935 q 219 883 219 935 l 219 879 l 110 879 l 110 882 q 233 1032 113 1032 q 321 1005 275 1032 q 378 978 367 978 q 407 1028 407 978 l 407 1033 m 371 603 q 313 656 371 656 q 254 603 254 656 l 254 217 q 313 164 254 164 q 371 217 371 164 l 371 603 m 49 610 q 115 774 49 715 q 313 833 181 833 q 510 774 444 833 q 576 610 576 715 l 576 210 q 510 45 576 104 q 313 -14 444 -14 q 115 45 181 -14 q 49 210 49 104 l 49 610 z "},"ö":{"ha":625,"x_min":49,"x_max":576,"o":"m 371 603 q 313 656 371 656 q 254 603 254 656 l 254 217 q 313 164 254 164 q 371 217 371 164 l 371 603 m 49 610 q 115 774 49 715 q 313 833 181 833 q 510 774 444 833 q 576 610 576 715 l 576 210 q 510 45 576 104 q 313 -14 444 -14 q 115 45 181 -14 q 49 210 49 104 l 49 610 m 517 958 q 517 920 517 958 q 436 882 517 882 q 356 958 356 882 q 436 1033 356 1033 q 517 958 517 1033 m 279 958 q 279 920 279 958 q 199 882 279 882 q 118 958 118 882 q 199 1033 118 1033 q 279 958 279 1033 z "},"÷":{"ha":692,"x_min":57,"x_max":632,"o":"m 343 594 q 291 594 343 594 q 239 699 239 594 q 343 803 239 803 q 447 699 447 803 q 343 594 447 594 m 344 118 q 239 222 239 118 q 343 326 239 326 q 447 222 447 326 q 344 118 447 118 m 57 550 l 632 550 l 632 369 l 57 369 l 57 550 z "},"ø":{"ha":625,"x_min":21,"x_max":604,"o":"m 576 610 l 576 210 q 510 45 576 104 q 320 -14 444 -14 q 129 33 196 -14 l 110 0 l 21 0 l 76 92 q 49 210 49 139 l 49 610 q 115 774 49 715 q 305 833 181 833 q 496 786 429 833 l 515 819 l 604 819 l 549 728 q 576 610 576 681 m 254 603 l 254 386 l 371 581 l 371 603 q 313 656 371 656 q 254 603 254 656 m 371 217 l 371 433 l 254 239 l 254 217 q 313 164 254 164 q 371 217 371 164 z "},"ù":{"ha":649,"x_min":56,"x_max":586,"o":"m 150 1038 l 303 1038 l 364 878 l 254 878 l 150 1038 m 376 819 l 586 819 l 586 0 l 389 0 l 389 38 q 234 0 321 0 q 101 47 147 0 q 56 183 56 94 l 56 819 l 268 819 l 268 225 q 308 189 268 189 q 376 206 349 189 l 376 819 z "},"ú":{"ha":649,"x_min":56,"x_max":586,"o":"m 376 819 l 586 819 l 586 0 l 389 0 l 389 38 q 234 0 321 0 q 101 47 147 0 q 56 183 56 94 l 56 819 l 268 819 l 268 225 q 308 189 268 189 q 376 206 349 189 l 376 819 m 332 1038 l 485 1038 l 381 878 l 271 878 l 332 1038 z "},"û":{"ha":649,"x_min":56,"x_max":586,"o":"m 376 819 l 586 819 l 586 0 l 389 0 l 389 38 q 234 0 321 0 q 101 47 147 0 q 56 183 56 94 l 56 819 l 268 819 l 268 225 q 308 189 268 189 q 376 206 349 189 l 376 819 m 326 953 l 269 878 l 168 878 l 251 1038 l 400 1038 l 483 878 l 382 878 l 326 953 z "},"ü":{"ha":649,"x_min":56,"x_max":586,"o":"m 376 819 l 586 819 l 586 0 l 389 0 l 389 38 q 234 0 321 0 q 101 47 147 0 q 56 183 56 94 l 56 819 l 268 819 l 268 225 q 308 189 268 189 q 376 206 349 189 l 376 819 m 521 958 q 521 920 521 958 q 440 882 521 882 q 360 958 360 882 q 440 1033 360 1033 q 521 958 521 1033 m 283 958 q 283 920 283 958 q 203 882 283 882 q 122 958 122 882 q 203 1033 122 1033 q 283 958 283 1033 z "},"ý":{"ha":622,"x_min":14,"x_max":608,"o":"m 308 1038 l 461 1038 l 357 878 l 247 878 l 308 1038 m 407 819 l 608 819 l 414 -207 l 211 -207 l 250 0 l 178 0 l 14 819 l 219 819 q 299 363 286 465 q 315 165 311 261 q 363 563 322 333 l 407 819 z "},"þ":{"ha":643,"x_min":63,"x_max":594,"o":"m 382 600 q 342 633 382 633 q 272 615 303 633 l 272 188 l 328 188 q 382 232 382 188 l 382 600 m 63 1038 l 272 1038 l 272 789 q 417 824 335 824 q 547 780 499 824 q 594 649 594 736 l 594 204 q 537 50 594 100 q 382 0 479 0 l 272 0 l 272 -218 l 63 -218 l 63 1038 z "},"ÿ":{"ha":622,"x_min":14,"x_max":608,"o":"m 407 819 l 608 819 l 414 -207 l 211 -207 l 250 0 l 178 0 l 14 819 l 219 819 q 299 363 286 465 q 315 165 311 261 q 363 563 322 333 l 407 819 m 511 958 q 511 920 511 958 q 431 882 511 882 q 350 958 350 882 q 431 1033 350 1033 q 511 958 511 1033 m 274 958 q 274 920 274 958 q 193 882 274 882 q 113 958 113 882 q 193 1033 113 1033 q 274 958 274 1033 z "},"Ā":{"ha":679,"x_min":7,"x_max":672,"o":"m 474 0 l 433 222 l 243 222 l 206 0 l 7 0 l 196 963 l 486 963 l 672 0 l 474 0 m 272 399 l 403 399 l 336 771 l 272 399 m 522 1150 l 522 1043 l 151 1043 l 151 1150 l 522 1150 z "},"ā":{"ha":607,"x_min":26,"x_max":551,"o":"m 124 1011 l 494 1011 l 494 904 l 124 904 l 124 1011 m 232 238 l 232 199 q 281 151 232 151 q 350 167 322 151 l 350 335 l 286 318 q 242 293 251 308 q 232 238 232 278 m 69 800 q 288 826 146 826 q 490 765 429 826 q 551 578 551 703 l 551 0 l 356 0 l 356 60 q 215 -3 315 -3 q 71 45 115 -3 q 26 199 26 93 l 26 246 q 67 389 26 339 q 200 464 108 439 l 351 503 l 351 579 q 331 630 350 615 q 260 644 311 644 q 69 615 144 644 l 69 800 z "},"Ă":{"ha":679,"x_min":7,"x_max":672,"o":"m 474 0 l 433 222 l 243 222 l 206 0 l 7 0 l 196 963 l 486 963 l 672 0 l 474 0 m 272 399 l 403 399 l 336 771 l 272 399 m 396 1176 l 503 1176 q 456 1060 503 1104 q 336 1017 408 1017 q 217 1061 264 1017 q 169 1176 169 1106 l 276 1176 q 292 1129 276 1147 q 336 1111 307 1111 q 381 1129 365 1111 q 396 1176 396 1147 z "},"ă":{"ha":607,"x_min":26,"x_max":551,"o":"m 354 1038 l 461 1038 q 414 922 461 965 q 294 878 367 878 q 175 922 222 878 q 128 1038 128 967 l 235 1038 q 250 990 235 1008 q 294 972 265 972 q 339 990 324 972 q 354 1038 354 1008 m 232 238 l 232 199 q 281 151 232 151 q 350 167 322 151 l 350 335 l 286 318 q 242 293 251 308 q 232 238 232 278 m 69 800 q 288 826 146 826 q 490 765 429 826 q 551 578 551 703 l 551 0 l 356 0 l 356 60 q 215 -3 315 -3 q 71 45 115 -3 q 26 199 26 93 l 26 246 q 67 389 26 339 q 200 464 108 439 l 351 503 l 351 579 q 331 630 350 615 q 260 644 311 644 q 69 615 144 644 l 69 800 z "},"Ą":{"ha":679,"x_min":7,"x_max":674,"o":"m 618 -132 q 658 -182 618 -182 l 674 -182 l 674 -278 l 640 -278 q 543 -249 578 -278 q 508 -167 508 -219 q 600 0 508 -76 l 474 0 l 433 222 l 243 222 l 206 0 l 7 0 l 196 963 l 486 963 l 672 0 l 674 0 q 618 -132 618 -58 m 272 399 l 403 399 l 336 771 l 272 399 z "},"ą":{"ha":607,"x_min":26,"x_max":551,"o":"m 69 800 q 288 826 146 826 q 490 765 429 826 q 551 578 551 703 l 551 0 l 550 0 q 494 -132 494 -58 q 535 -182 494 -182 l 550 -182 l 550 -278 l 517 -278 q 419 -249 454 -278 q 385 -167 385 -219 q 476 0 385 -76 l 356 0 l 356 60 q 215 -3 315 -3 q 71 45 115 -3 q 26 199 26 93 l 26 246 q 67 389 26 339 q 200 464 108 439 l 351 503 l 351 579 q 331 630 350 615 q 260 644 311 644 q 69 615 144 644 l 69 800 m 232 238 l 232 199 q 281 151 232 151 q 350 167 322 151 l 350 335 l 286 318 q 242 293 251 308 q 232 238 232 278 z "},"Ć":{"ha":572,"x_min":49,"x_max":538,"o":"m 49 735 q 126 908 49 846 q 358 969 203 969 q 533 950 461 969 l 533 758 q 380 782 456 782 q 282 765 304 782 q 260 714 260 747 l 260 247 q 365 181 260 181 q 538 201 469 181 l 538 14 q 356 -7 463 -7 q 124 54 200 -7 q 49 226 49 115 l 49 735 m 350 1176 l 503 1176 l 399 1017 l 289 1017 l 350 1176 z "},"ć":{"ha":522,"x_min":49,"x_max":494,"o":"m 49 585 q 321 826 49 826 q 494 806 418 826 l 494 613 q 363 635 421 635 q 282 620 306 635 q 258 567 258 606 l 258 253 q 282 199 258 214 q 363 185 306 185 q 494 207 421 185 l 494 14 q 321 -7 418 -7 q 49 235 49 -7 l 49 585 m 322 1038 l 475 1038 l 371 878 l 261 878 l 322 1038 z "},"Č":{"ha":572,"x_min":49,"x_max":538,"o":"m 260 714 l 260 247 q 365 181 260 181 q 538 201 469 181 l 538 14 q 356 -7 463 -7 q 124 54 200 -7 q 49 226 49 115 l 49 735 q 126 908 49 846 q 358 969 203 969 q 533 950 461 969 l 533 758 q 380 782 456 782 q 282 765 304 782 q 260 714 260 747 m 264 1017 l 181 1176 l 282 1176 l 339 1101 l 394 1176 l 496 1176 l 413 1017 l 264 1017 z "},"č":{"ha":522,"x_min":49,"x_max":494,"o":"m 494 613 q 363 635 421 635 q 282 620 306 635 q 258 567 258 606 l 258 253 q 282 199 258 214 q 363 185 306 185 q 494 207 421 185 l 494 14 q 321 -7 418 -7 q 49 235 49 -7 l 49 585 q 321 826 49 826 q 494 806 418 826 l 494 613 m 244 878 l 161 1038 l 263 1038 l 319 963 l 375 1038 l 476 1038 l 393 878 l 244 878 z "},"Ď":{"ha":685,"x_min":63,"x_max":636,"o":"m 63 963 l 400 963 q 574 908 513 963 q 636 749 636 854 l 636 226 q 413 0 636 0 l 63 0 l 63 963 m 428 243 l 428 740 q 416 778 428 765 q 371 792 404 792 l 271 792 l 271 179 l 371 179 q 428 243 428 179 m 251 1017 l 168 1176 l 269 1176 l 326 1101 l 382 1176 l 483 1176 l 400 1017 l 251 1017 z "},"ď":{"ha":681,"x_min":49,"x_max":779,"o":"m 731 1038 q 779 993 779 1038 q 752 907 779 958 q 699 822 725 856 l 632 822 l 667 1038 l 731 1038 m 369 633 l 324 633 q 258 564 258 633 l 258 221 q 300 185 258 185 q 369 201 342 185 l 369 633 m 368 1038 l 579 1038 l 579 0 l 375 0 l 375 58 q 233 -6 325 -6 q 94 44 140 -6 q 49 183 49 94 l 49 571 q 113 753 49 688 q 307 819 176 819 l 368 819 l 368 1038 z "},"Đ":{"ha":693,"x_min":-12,"x_max":650,"o":"m 76 963 l 414 963 q 588 908 526 963 q 650 749 650 854 l 650 226 q 426 0 650 0 l 76 0 l 76 388 l -12 388 l -12 560 l 76 560 l 76 963 m 442 243 l 442 740 q 430 778 442 765 q 385 792 418 792 l 285 792 l 285 560 l 363 560 l 363 388 l 285 388 l 285 179 l 385 179 q 442 243 442 179 z "},"đ":{"ha":646,"x_min":53,"x_max":639,"o":"m 639 972 l 639 883 l 583 883 l 583 0 l 379 0 l 379 58 q 237 -6 329 -6 q 99 44 144 -6 q 53 183 53 94 l 53 571 q 117 753 53 688 q 311 819 181 819 l 372 819 l 372 883 l 194 883 l 194 972 l 372 972 l 372 1038 l 583 1038 l 583 972 l 639 972 m 374 633 l 328 633 q 263 564 263 633 l 263 221 q 304 185 263 185 q 374 201 346 185 l 374 633 z "},"Ē":{"ha":585,"x_min":63,"x_max":550,"o":"m 114 1150 l 485 1150 l 485 1043 l 114 1043 l 114 1150 m 63 963 l 550 963 l 550 782 l 271 782 l 271 578 l 513 578 l 513 397 l 271 397 l 271 181 l 550 181 l 550 0 l 63 0 l 63 963 z "},"ē":{"ha":600,"x_min":49,"x_max":565,"o":"m 49 233 l 49 610 q 114 774 49 715 q 311 833 179 833 q 565 610 565 833 l 565 328 l 250 328 l 250 250 q 273 191 250 208 q 374 174 296 174 q 546 201 453 174 l 546 18 q 338 -8 449 -8 q 49 233 49 -8 m 250 488 l 372 488 l 372 607 q 311 660 372 660 q 250 607 250 660 l 250 488 m 493 1011 l 493 904 l 122 904 l 122 1011 l 493 1011 z "},"Ė":{"ha":585,"x_min":63,"x_max":550,"o":"m 388 1097 q 388 1059 388 1097 q 307 1021 388 1021 q 226 1097 226 1021 q 307 1172 226 1172 q 388 1097 388 1172 m 63 963 l 550 963 l 550 782 l 271 782 l 271 578 l 513 578 l 513 397 l 271 397 l 271 181 l 550 181 l 550 0 l 63 0 l 63 963 z "},"ė":{"ha":600,"x_min":49,"x_max":565,"o":"m 49 233 l 49 610 q 114 774 49 715 q 311 833 179 833 q 565 610 565 833 l 565 328 l 250 328 l 250 250 q 273 191 250 208 q 374 174 296 174 q 546 201 453 174 l 546 18 q 338 -8 449 -8 q 49 233 49 -8 m 250 488 l 372 488 l 372 607 q 311 660 372 660 q 250 607 250 660 l 250 488 m 393 958 q 393 920 393 958 q 313 882 393 882 q 232 958 232 882 q 313 1033 232 1033 q 393 958 393 1033 z "},"Ę":{"ha":585,"x_min":63,"x_max":550,"o":"m 550 782 l 271 782 l 271 578 l 513 578 l 513 397 l 271 397 l 271 181 l 550 181 l 550 0 q 494 -132 494 -58 q 535 -182 494 -182 l 550 -182 l 550 -278 l 517 -278 q 419 -249 454 -278 q 385 -167 385 -219 q 476 0 385 -76 l 63 0 l 63 963 l 550 963 l 550 782 z "},"ę":{"ha":600,"x_min":49,"x_max":565,"o":"m 49 233 l 49 610 q 114 774 49 715 q 311 833 179 833 q 565 610 565 833 l 565 328 l 250 328 l 250 250 q 273 191 250 208 q 374 174 296 174 q 546 201 453 174 l 546 18 l 540 17 q 489 -111 489 -40 q 529 -161 489 -161 l 544 -161 l 544 -257 l 511 -257 q 414 -228 449 -257 q 379 -146 379 -199 q 446 -3 379 -72 q 338 -8 407 -8 q 49 233 49 -8 m 250 488 l 372 488 l 372 607 q 311 660 372 660 q 250 607 250 660 l 250 488 z "},"Ě":{"ha":585,"x_min":63,"x_max":550,"o":"m 550 782 l 271 782 l 271 578 l 513 578 l 513 397 l 271 397 l 271 181 l 550 181 l 550 0 l 63 0 l 63 963 l 550 963 l 550 782 m 225 1017 l 142 1176 l 243 1176 l 300 1101 l 356 1176 l 457 1176 l 374 1017 l 225 1017 z "},"ě":{"ha":600,"x_min":49,"x_max":565,"o":"m 49 233 l 49 610 q 114 774 49 715 q 311 833 179 833 q 565 610 565 833 l 565 328 l 250 328 l 250 250 q 273 191 250 208 q 374 174 296 174 q 546 201 453 174 l 546 18 q 338 -8 449 -8 q 49 233 49 -8 m 250 488 l 372 488 l 372 607 q 311 660 372 660 q 250 607 250 660 l 250 488 m 238 878 l 154 1038 l 256 1038 l 313 963 l 368 1038 l 469 1038 l 386 878 l 238 878 z "},"Ğ":{"ha":650,"x_min":49,"x_max":608,"o":"m 408 1176 l 515 1176 q 468 1060 515 1104 q 349 1017 421 1017 q 229 1061 276 1017 q 182 1176 182 1106 l 289 1176 q 304 1129 289 1147 q 349 1111 319 1111 q 393 1129 378 1111 q 408 1176 408 1147 m 49 731 q 133 905 49 840 q 372 969 217 969 q 568 943 489 969 l 568 746 q 401 778 485 778 q 289 758 318 778 q 260 706 260 739 l 260 249 q 281 198 260 215 q 342 181 301 181 q 406 192 383 181 l 406 517 l 608 517 l 608 51 q 351 -7 500 -7 q 126 54 203 -7 q 49 226 49 115 l 49 731 z "},"ğ":{"ha":633,"x_min":21,"x_max":626,"o":"m 626 729 l 578 729 q 547 726 567 729 q 574 615 574 682 l 574 496 q 510 336 574 393 q 317 276 446 279 q 281 246 281 276 q 292 222 281 228 q 336 215 304 215 l 413 215 q 572 173 519 215 q 624 40 624 131 l 624 6 q 550 -152 624 -96 q 331 -208 476 -208 l 279 -208 q 122 -190 190 -208 q 21 -147 54 -171 l 21 43 q 129 -10 60 13 q 274 -33 199 -33 l 303 -33 q 402 -23 375 -33 q 429 11 429 -12 l 429 18 q 382 46 429 46 l 297 46 q 147 75 197 46 q 97 169 97 104 l 97 192 q 175 293 97 279 q 32 496 32 340 l 32 615 q 99 776 32 719 q 303 833 167 833 q 454 808 393 833 q 604 915 486 915 l 626 915 l 626 729 m 365 497 l 365 614 q 303 668 365 668 q 240 614 240 668 l 240 497 q 303 443 240 443 q 365 497 365 443 m 356 1038 l 463 1038 q 415 922 463 965 q 296 878 368 878 q 176 922 224 878 q 129 1038 129 967 l 236 1038 q 251 990 236 1008 q 296 972 267 972 q 340 990 325 972 q 356 1038 356 1008 z "},"Ģ":{"ha":650,"x_min":49,"x_max":608,"o":"m 376 -85 q 425 -129 425 -85 q 398 -215 425 -164 q 344 -300 371 -267 l 278 -300 l 313 -85 l 376 -85 m 49 731 q 133 905 49 840 q 372 969 217 969 q 568 943 489 969 l 568 746 q 401 778 485 778 q 289 758 318 778 q 260 706 260 739 l 260 249 q 281 198 260 215 q 342 181 301 181 q 406 192 383 181 l 406 517 l 608 517 l 608 51 q 351 -7 500 -7 q 126 54 203 -7 q 49 226 49 115 l 49 731 z "},"ģ":{"ha":633,"x_min":21,"x_max":626,"o":"m 626 729 l 578 729 q 547 726 567 729 q 574 615 574 682 l 574 496 q 510 336 574 393 q 317 276 446 279 q 281 246 281 276 q 292 222 281 228 q 336 215 304 215 l 413 215 q 572 173 519 215 q 624 40 624 131 l 624 6 q 550 -152 624 -96 q 331 -208 476 -208 l 279 -208 q 122 -190 190 -208 q 21 -147 54 -171 l 21 43 q 129 -10 60 13 q 274 -33 199 -33 l 303 -33 q 402 -23 375 -33 q 429 11 429 -12 l 429 18 q 382 46 429 46 l 297 46 q 147 75 197 46 q 97 169 97 104 l 97 192 q 175 293 97 279 q 32 496 32 340 l 32 615 q 99 776 32 719 q 303 833 167 833 q 454 808 393 833 q 604 915 486 915 l 626 915 l 626 729 m 365 497 l 365 614 q 303 668 365 668 q 240 614 240 668 l 240 497 q 303 443 240 443 q 365 497 365 443 m 288 878 q 239 922 239 878 q 266 1008 239 957 q 319 1093 293 1060 l 386 1093 l 351 878 l 288 878 z "},"Ī":{"ha":336,"x_min":-12,"x_max":358,"o":"m -12 1150 l 358 1150 l 358 1043 l -12 1043 l -12 1150 m 63 963 l 274 963 l 274 0 l 63 0 l 63 963 z "},"ī":{"ha":335,"x_min":-18,"x_max":353,"o":"m -18 1011 l 353 1011 l 353 904 l -18 904 l -18 1011 m 63 797 l 272 797 l 272 0 l 63 0 l 63 797 z "},"Į":{"ha":336,"x_min":63,"x_max":274,"o":"m 274 963 l 274 0 q 218 -132 218 -58 q 258 -182 218 -182 l 274 -182 l 274 -278 l 240 -278 q 143 -249 178 -278 q 108 -167 108 -219 q 200 0 108 -76 l 63 0 l 63 963 l 274 963 z "},"į":{"ha":335,"x_min":51,"x_max":283,"o":"m 63 0 l 63 797 l 272 797 l 272 0 q 217 -132 217 -58 q 257 -182 217 -182 l 272 -182 l 272 -278 l 239 -278 q 142 -249 176 -278 q 107 -167 107 -219 q 199 0 107 -76 l 63 0 m 283 952 q 283 898 283 952 q 167 843 283 843 q 51 952 51 843 q 167 1061 51 1061 q 283 952 283 1061 z "},"İ":{"ha":336,"x_min":63,"x_max":274,"o":"m 246 1097 q 246 1059 246 1097 q 165 1021 246 1021 q 85 1097 85 1021 q 165 1172 85 1172 q 246 1097 246 1172 m 63 963 l 274 963 l 274 0 l 63 0 l 63 963 z "},"ı":{"ha":335,"x_min":63,"x_max":272,"o":"m 63 797 l 272 797 l 272 0 l 63 0 l 63 797 z "},"Ķ":{"ha":675,"x_min":63,"x_max":668,"o":"m 271 0 l 63 0 l 63 963 l 271 963 l 271 529 l 429 963 l 651 963 l 475 497 l 668 0 l 436 0 l 271 460 l 271 0 m 372 -85 q 421 -129 421 -85 q 394 -215 421 -164 q 340 -300 367 -267 l 274 -300 l 308 -85 l 372 -85 z "},"ķ":{"ha":603,"x_min":63,"x_max":596,"o":"m 265 0 l 63 0 l 63 1038 l 265 1038 l 265 479 l 368 819 l 575 819 l 457 432 l 596 0 l 376 0 l 265 403 l 265 0 m 319 -85 q 368 -129 368 -85 q 341 -215 368 -164 q 288 -300 314 -267 l 221 -300 l 256 -85 l 319 -85 z "},"Ĺ":{"ha":538,"x_min":63,"x_max":531,"o":"m 63 963 l 274 963 l 274 175 l 531 175 l 531 0 l 63 0 l 63 963 m 169 1176 l 322 1176 l 218 1017 l 108 1017 l 169 1176 z "},"ĺ":{"ha":335,"x_min":63,"x_max":326,"o":"m 63 1038 l 272 1038 l 272 0 l 63 0 l 63 1038 m 174 1246 l 326 1246 l 222 1086 l 113 1086 l 174 1246 z "},"Ļ":{"ha":538,"x_min":63,"x_max":531,"o":"m 296 -85 q 344 -129 344 -85 q 317 -215 344 -164 q 264 -300 290 -267 l 197 -300 l 232 -85 l 296 -85 m 63 963 l 274 963 l 274 175 l 531 175 l 531 0 l 63 0 l 63 963 z "},"ļ":{"ha":335,"x_min":63,"x_max":272,"o":"m 178 -85 q 226 -129 226 -85 q 199 -215 226 -164 q 146 -300 172 -267 l 79 -300 l 114 -85 l 178 -85 m 63 1038 l 272 1038 l 272 0 l 63 0 l 63 1038 z "},"Ľ":{"ha":538,"x_min":3,"x_max":531,"o":"m 274 175 l 531 175 l 531 0 l 63 0 l 63 963 l 274 963 l 274 175 m 86 1017 l 3 1176 l 104 1176 l 161 1101 l 217 1176 l 318 1176 l 235 1017 l 86 1017 z "},"ľ":{"ha":335,"x_min":63,"x_max":469,"o":"m 421 1038 q 469 993 469 1038 q 442 907 469 958 q 389 822 415 856 l 322 822 l 357 1038 l 421 1038 m 63 1038 l 272 1038 l 272 0 l 63 0 l 63 1038 z "},"Ł":{"ha":540,"x_min":0,"x_max":544,"o":"m 288 175 l 544 175 l 544 0 l 76 0 l 76 367 l 0 335 l 0 474 l 76 506 l 76 963 l 288 963 l 288 592 l 407 640 l 407 501 l 288 453 l 288 175 z "},"ł":{"ha":340,"x_min":3,"x_max":338,"o":"m 275 0 l 65 0 l 65 540 l 3 515 l 3 654 l 65 679 l 65 1038 l 275 1038 l 275 764 l 338 789 l 338 650 l 275 625 l 275 0 z "},"Ń":{"ha":739,"x_min":63,"x_max":676,"o":"m 471 963 l 676 963 l 676 0 l 476 0 q 239 633 271 525 q 268 256 268 524 l 268 0 l 63 0 l 63 963 l 268 963 l 394 640 q 503 326 475 433 q 471 721 471 461 l 471 963 m 507 1176 l 403 1017 l 293 1017 l 354 1176 l 507 1176 z "},"ń":{"ha":643,"x_min":63,"x_max":588,"o":"m 260 783 q 413 824 333 824 q 540 780 492 824 q 588 649 588 736 l 588 0 l 375 0 l 375 597 q 339 631 375 631 q 272 613 303 631 l 272 0 l 63 0 l 63 819 l 260 819 l 260 783 m 308 1038 l 461 1038 l 357 878 l 247 878 l 308 1038 z "},"Ņ":{"ha":739,"x_min":63,"x_max":676,"o":"m 471 963 l 676 963 l 676 0 l 476 0 q 239 633 271 525 q 268 256 268 524 l 268 0 l 63 0 l 63 963 l 268 963 l 394 640 q 503 326 475 433 q 471 721 471 461 l 471 963 m 375 -85 q 424 -129 424 -85 q 397 -215 424 -164 q 343 -300 369 -267 l 276 -300 l 311 -85 l 375 -85 z "},"ņ":{"ha":643,"x_min":63,"x_max":588,"o":"m 336 -85 q 385 -129 385 -85 q 358 -215 385 -164 q 304 -300 331 -267 l 238 -300 l 272 -85 l 336 -85 m 260 783 q 413 824 333 824 q 540 780 492 824 q 588 649 588 736 l 588 0 l 375 0 l 375 597 q 339 631 375 631 q 272 613 303 631 l 272 0 l 63 0 l 63 819 l 260 819 l 260 783 z "},"Ň":{"ha":739,"x_min":63,"x_max":676,"o":"m 471 963 l 676 963 l 676 0 l 476 0 q 239 633 271 525 q 268 256 268 524 l 268 0 l 63 0 l 63 963 l 268 963 l 394 640 q 503 326 475 433 q 471 721 471 461 l 471 963 m 283 1017 l 200 1176 l 301 1176 l 358 1101 l 414 1176 l 515 1176 l 432 1017 l 283 1017 z "},"ň":{"ha":643,"x_min":63,"x_max":588,"o":"m 260 819 l 260 783 q 413 824 333 824 q 540 780 492 824 q 588 649 588 736 l 588 0 l 375 0 l 375 597 q 339 631 375 631 q 272 613 303 631 l 272 0 l 63 0 l 63 819 l 260 819 m 238 878 l 154 1038 l 256 1038 l 313 963 l 368 1038 l 469 1038 l 386 878 l 238 878 z "},"Ō":{"ha":679,"x_min":49,"x_max":631,"o":"m 422 717 q 340 786 422 786 q 257 717 257 786 l 257 246 q 340 176 257 176 q 422 246 422 176 l 422 717 m 49 728 q 122 909 49 842 q 339 976 196 976 q 556 909 482 976 q 631 728 631 842 l 631 235 q 556 53 631 121 q 339 -14 482 -14 q 122 53 196 -14 q 49 235 49 121 l 49 728 m 156 1150 l 526 1150 l 526 1043 l 156 1043 l 156 1150 z "},"ō":{"ha":625,"x_min":49,"x_max":576,"o":"m 371 603 q 313 656 371 656 q 254 603 254 656 l 254 217 q 313 164 254 164 q 371 217 371 164 l 371 603 m 49 610 q 115 774 49 715 q 313 833 181 833 q 510 774 444 833 q 576 610 576 715 l 576 210 q 510 45 576 104 q 313 -14 444 -14 q 115 45 181 -14 q 49 210 49 104 l 49 610 m 125 1011 l 496 1011 l 496 904 l 125 904 l 125 1011 z "},"Ő":{"ha":679,"x_min":49,"x_max":631,"o":"m 422 717 q 340 786 422 786 q 257 717 257 786 l 257 246 q 340 176 257 176 q 422 246 422 176 l 422 717 m 49 728 q 122 909 49 842 q 339 976 196 976 q 556 909 482 976 q 631 728 631 842 l 631 235 q 556 53 631 121 q 339 -14 482 -14 q 122 53 196 -14 q 49 235 49 121 l 49 728 m 267 1176 l 406 1176 l 294 1017 l 199 1017 l 267 1176 m 433 1176 l 572 1176 l 461 1017 l 365 1017 l 433 1176 z "},"ő":{"ha":625,"x_min":49,"x_max":576,"o":"m 371 603 q 313 656 371 656 q 254 603 254 656 l 254 217 q 313 164 254 164 q 371 217 371 164 l 371 603 m 49 610 q 115 774 49 715 q 313 833 181 833 q 510 774 444 833 q 576 610 576 715 l 576 210 q 510 45 576 104 q 313 -14 444 -14 q 115 45 181 -14 q 49 210 49 104 l 49 610 m 249 1038 l 388 1038 l 276 878 l 181 878 l 249 1038 m 415 1038 l 554 1038 l 443 878 l 347 878 l 415 1038 z "},"Œ":{"ha":989,"x_min":76,"x_max":951,"o":"m 951 782 l 672 782 l 672 578 l 914 578 l 914 397 l 672 397 l 672 181 l 951 181 l 951 0 l 300 0 q 76 226 76 0 l 76 749 q 138 908 76 854 q 313 963 200 963 l 951 963 l 951 782 m 342 179 l 464 179 l 464 792 l 342 792 q 297 778 308 792 q 285 740 285 765 l 285 243 q 342 179 285 179 z "},"œ":{"ha":947,"x_min":49,"x_max":892,"o":"m 49 210 l 49 610 q 115 774 49 715 q 297 833 181 833 q 475 799 413 833 q 638 833 538 833 q 892 610 892 833 l 892 328 l 576 328 l 576 250 q 599 191 576 208 q 701 174 622 174 q 872 201 779 174 l 872 18 q 663 -8 775 -8 q 485 26 550 -8 q 301 -14 421 -14 q 115 45 181 -14 q 49 210 49 104 m 371 217 l 371 603 q 313 656 371 656 q 254 603 254 656 l 254 217 q 313 164 254 164 q 371 217 371 164 m 576 488 l 699 488 l 699 607 q 638 660 699 660 q 576 607 576 660 l 576 488 z "},"Ŕ":{"ha":669,"x_min":63,"x_max":656,"o":"m 271 347 l 271 0 l 63 0 l 63 963 l 376 963 q 554 908 490 963 q 618 750 618 854 l 618 572 q 504 364 618 406 l 656 0 l 426 0 l 297 347 l 271 347 m 271 785 l 271 513 l 353 513 q 397 526 385 513 q 410 575 410 540 l 410 732 q 396 774 410 763 q 353 785 382 785 l 271 785 m 471 1176 l 367 1017 l 257 1017 l 318 1176 l 471 1176 z "},"ŕ":{"ha":447,"x_min":63,"x_max":440,"o":"m 417 824 l 440 824 l 440 631 l 408 631 q 272 603 331 631 l 272 0 l 63 0 l 63 819 l 260 819 l 260 764 q 359 815 331 807 q 417 824 388 824 m 281 1038 l 433 1038 l 329 878 l 219 878 l 281 1038 z "},"Ŗ":{"ha":669,"x_min":63,"x_max":656,"o":"m 271 347 l 271 0 l 63 0 l 63 963 l 376 963 q 554 908 490 963 q 618 750 618 854 l 618 572 q 504 364 618 406 l 656 0 l 426 0 l 297 347 l 271 347 m 271 785 l 271 513 l 353 513 q 397 526 385 513 q 410 575 410 540 l 410 732 q 396 774 410 763 q 353 785 382 785 l 271 785 m 360 -85 q 408 -129 408 -85 q 381 -215 408 -164 q 328 -300 354 -267 l 261 -300 l 296 -85 l 360 -85 z "},"ŗ":{"ha":447,"x_min":63,"x_max":440,"o":"m 178 -85 q 226 -129 226 -85 q 199 -215 226 -164 q 146 -300 172 -267 l 79 -300 l 114 -85 l 178 -85 m 417 824 l 440 824 l 440 631 l 408 631 q 272 603 331 631 l 272 0 l 63 0 l 63 819 l 260 819 l 260 764 q 359 815 331 807 q 417 824 388 824 z "},"Ř":{"ha":669,"x_min":63,"x_max":656,"o":"m 271 347 l 271 0 l 63 0 l 63 963 l 376 963 q 554 908 490 963 q 618 750 618 854 l 618 572 q 504 364 618 406 l 656 0 l 426 0 l 297 347 l 271 347 m 271 785 l 271 513 l 353 513 q 397 526 385 513 q 410 575 410 540 l 410 732 q 396 774 410 763 q 353 785 382 785 l 271 785 m 239 1017 l 156 1176 l 257 1176 l 314 1101 l 369 1176 l 471 1176 l 388 1017 l 239 1017 z "},"ř":{"ha":447,"x_min":63,"x_max":440,"o":"m 417 824 l 440 824 l 440 631 l 408 631 q 272 603 331 631 l 272 0 l 63 0 l 63 819 l 260 819 l 260 764 q 359 815 331 807 q 417 824 388 824 m 181 878 l 97 1038 l 199 1038 l 256 963 l 311 1038 l 413 1038 l 329 878 l 181 878 z "},"Ś":{"ha":610,"x_min":28,"x_max":585,"o":"m 28 738 q 103 909 28 849 q 319 969 178 969 q 529 940 460 969 l 529 740 q 336 776 444 776 q 261 759 281 776 q 242 710 242 742 l 242 689 q 255 631 242 650 q 313 589 268 613 l 471 500 q 585 313 585 438 l 585 226 q 501 53 585 114 q 267 -7 418 -7 q 40 25 117 -7 l 40 226 q 254 186 135 186 q 374 254 374 186 l 374 275 q 360 323 374 307 q 311 358 347 339 l 163 439 q 28 650 28 514 l 28 738 m 314 1176 l 467 1176 l 363 1017 l 253 1017 l 314 1176 z "},"ś":{"ha":539,"x_min":28,"x_max":511,"o":"m 31 603 q 98 770 31 714 q 315 826 165 826 q 485 806 418 826 l 485 621 q 348 642 422 642 q 253 629 274 642 q 233 589 233 617 l 233 578 q 244 549 233 561 q 289 514 254 538 l 401 439 q 483 363 454 404 q 511 258 511 321 l 511 224 q 208 -7 511 -7 q 28 11 103 -7 l 28 199 q 172 179 93 179 q 277 192 251 179 q 303 232 303 206 l 303 244 q 289 278 303 265 q 129 389 272 294 q 31 567 31 456 l 31 603 m 294 1038 l 447 1038 l 343 878 l 233 878 l 294 1038 z "},"Ş":{"ha":610,"x_min":28,"x_max":585,"o":"m 304 -85 q 353 -129 353 -85 q 326 -215 353 -164 q 272 -300 299 -267 l 206 -300 l 240 -85 l 304 -85 m 28 738 q 103 909 28 849 q 319 969 178 969 q 529 940 460 969 l 529 740 q 336 776 444 776 q 261 759 281 776 q 242 710 242 742 l 242 689 q 255 631 242 650 q 313 589 268 613 l 471 500 q 585 313 585 438 l 585 226 q 501 53 585 114 q 267 -7 418 -7 q 40 25 117 -7 l 40 226 q 254 186 135 186 q 374 254 374 186 l 374 275 q 360 323 374 307 q 311 358 347 339 l 163 439 q 28 650 28 514 l 28 738 z "},"ş":{"ha":539,"x_min":28,"x_max":511,"o":"m 275 -85 q 324 -129 324 -85 q 297 -215 324 -164 q 243 -300 269 -267 l 176 -300 l 211 -85 l 275 -85 m 31 603 q 98 770 31 714 q 315 826 165 826 q 485 806 418 826 l 485 621 q 348 642 422 642 q 253 629 274 642 q 233 589 233 617 l 233 578 q 244 549 233 561 q 289 514 254 538 l 401 439 q 483 363 454 404 q 511 258 511 321 l 511 224 q 208 -7 511 -7 q 28 11 103 -7 l 28 199 q 172 179 93 179 q 277 192 251 179 q 303 232 303 206 l 303 244 q 289 278 303 265 q 129 389 272 294 q 31 567 31 456 l 31 603 z "},"Š":{"ha":610,"x_min":28,"x_max":585,"o":"m 585 313 l 585 226 q 501 53 585 114 q 267 -7 418 -7 q 40 25 117 -7 l 40 226 q 254 186 135 186 q 374 254 374 186 l 374 275 q 360 323 374 307 q 311 358 347 339 l 163 439 q 28 650 28 514 l 28 738 q 103 909 28 849 q 319 969 178 969 q 529 940 460 969 l 529 740 q 336 776 444 776 q 261 759 281 776 q 242 710 242 742 l 242 689 q 255 631 242 650 q 313 589 268 613 l 471 500 q 585 313 585 438 m 224 1017 l 140 1176 l 242 1176 l 299 1101 l 354 1176 l 456 1176 l 372 1017 l 224 1017 z "},"š":{"ha":539,"x_min":28,"x_max":511,"o":"m 511 258 l 511 224 q 208 -7 511 -7 q 28 11 103 -7 l 28 199 q 172 179 93 179 q 277 192 251 179 q 303 232 303 206 l 303 244 q 289 278 303 265 q 129 389 272 294 q 31 567 31 456 l 31 603 q 98 770 31 714 q 315 826 165 826 q 485 806 418 826 l 485 621 q 348 642 422 642 q 253 629 274 642 q 233 589 233 617 l 233 578 q 244 549 233 561 q 289 514 254 538 l 401 439 q 483 363 454 404 q 511 258 511 321 m 218 878 l 135 1038 l 236 1038 l 293 963 l 349 1038 l 450 1038 l 367 878 l 218 878 z "},"Ţ":{"ha":572,"x_min":7,"x_max":565,"o":"m 565 963 l 565 782 l 392 782 l 392 0 l 181 0 l 181 782 l 7 782 l 7 963 l 565 963 m 299 -85 q 347 -129 347 -85 q 320 -215 347 -164 q 267 -300 293 -267 l 200 -300 l 235 -85 l 299 -85 z "},"ţ":{"ha":443,"x_min":7,"x_max":422,"o":"m 275 -85 q 324 -129 324 -85 q 297 -215 324 -164 q 243 -300 269 -267 l 176 -300 l 211 -85 l 275 -85 m 343 176 q 422 196 386 176 l 422 10 q 299 -12 375 -12 q 131 43 181 -12 q 81 204 81 99 l 81 643 l 7 643 l 7 819 l 90 819 l 154 961 l 290 961 l 290 819 l 414 819 l 414 643 l 290 643 l 290 226 q 343 176 290 176 z "},"Ť":{"ha":572,"x_min":7,"x_max":565,"o":"m 565 963 l 565 782 l 392 782 l 392 0 l 181 0 l 181 782 l 7 782 l 7 963 l 565 963 m 210 1017 l 126 1176 l 228 1176 l 285 1101 l 340 1176 l 442 1176 l 358 1017 l 210 1017 z "},"ť":{"ha":443,"x_min":7,"x_max":557,"o":"m 343 176 q 422 196 386 176 l 422 10 q 299 -12 375 -12 q 131 43 181 -12 q 81 204 81 99 l 81 643 l 7 643 l 7 819 l 90 819 l 154 961 l 290 961 l 290 819 l 414 819 l 414 643 l 290 643 l 290 226 q 343 176 290 176 m 492 1175 q 557 1115 557 1175 q 520 1000 557 1071 q 449 885 483 929 l 365 885 l 414 1175 l 492 1175 z "},"Ū":{"ha":688,"x_min":56,"x_max":632,"o":"m 157 1150 l 528 1150 l 528 1043 l 157 1043 l 157 1150 m 424 963 l 632 963 l 632 235 q 559 53 632 121 q 344 -14 486 -14 q 128 53 201 -14 q 56 235 56 119 l 56 963 l 264 963 l 264 246 q 344 176 264 176 q 424 246 424 176 l 424 963 z "},"ū":{"ha":649,"x_min":56,"x_max":586,"o":"m 136 1011 l 507 1011 l 507 904 l 136 904 l 136 1011 m 376 819 l 586 819 l 586 0 l 389 0 l 389 38 q 234 0 321 0 q 101 47 147 0 q 56 183 56 94 l 56 819 l 268 819 l 268 225 q 308 189 268 189 q 376 206 349 189 l 376 819 z "},"Ů":{"ha":688,"x_min":56,"x_max":632,"o":"m 424 963 l 632 963 l 632 235 q 559 53 632 121 q 344 -14 486 -14 q 128 53 201 -14 q 56 235 56 119 l 56 963 l 264 963 l 264 246 q 344 176 264 176 q 424 246 424 176 l 424 963 m 382 1096 q 372 1124 382 1113 q 343 1135 361 1135 q 315 1124 325 1135 q 304 1096 304 1113 q 343 1056 304 1056 q 382 1096 382 1056 m 260 1017 q 245 1033 260 1017 q 231 1096 231 1049 q 260 1174 231 1143 q 343 1206 290 1206 q 426 1174 396 1206 q 456 1095 456 1143 q 426 1016 456 1047 q 343 985 396 985 q 260 1017 290 985 z "},"ů":{"ha":649,"x_min":56,"x_max":586,"o":"m 376 819 l 586 819 l 586 0 l 389 0 l 389 38 q 234 0 321 0 q 101 47 147 0 q 56 183 56 94 l 56 819 l 268 819 l 268 225 q 308 189 268 189 q 376 206 349 189 l 376 819 m 353 957 q 342 985 353 974 q 314 996 332 996 q 285 985 296 996 q 275 957 275 974 q 314 917 275 917 q 353 957 353 917 m 231 878 q 216 894 231 878 q 201 957 201 910 q 231 1035 201 1004 q 314 1067 261 1067 q 397 1035 367 1067 q 426 956 426 1004 q 397 877 426 908 q 314 846 367 846 q 231 878 261 846 z "},"Ű":{"ha":688,"x_min":56,"x_max":632,"o":"m 267 1176 l 406 1176 l 294 1017 l 199 1017 l 267 1176 m 433 1176 l 572 1176 l 461 1017 l 365 1017 l 433 1176 m 424 963 l 632 963 l 632 235 q 559 53 632 121 q 344 -14 486 -14 q 128 53 201 -14 q 56 235 56 119 l 56 963 l 264 963 l 264 246 q 344 176 264 176 q 424 246 424 176 l 424 963 z "},"ű":{"ha":649,"x_min":56,"x_max":586,"o":"m 249 1038 l 388 1038 l 276 878 l 181 878 l 249 1038 m 415 1038 l 554 1038 l 443 878 l 347 878 l 415 1038 m 376 819 l 586 819 l 586 0 l 389 0 l 389 38 q 234 0 321 0 q 101 47 147 0 q 56 183 56 94 l 56 819 l 268 819 l 268 225 q 308 189 268 189 q 376 206 349 189 l 376 819 z "},"Ų":{"ha":688,"x_min":56,"x_max":632,"o":"m 424 963 l 632 963 l 632 235 q 482 8 632 64 q 432 -118 432 -49 q 472 -168 432 -168 l 488 -168 l 488 -264 l 454 -264 q 357 -235 392 -264 q 322 -153 322 -206 q 386 -12 322 -79 q 343 -14 372 -14 q 128 53 201 -14 q 56 235 56 119 l 56 963 l 264 963 l 264 246 q 344 176 264 176 q 424 246 424 176 l 424 963 z "},"ų":{"ha":649,"x_min":56,"x_max":586,"o":"m 586 819 l 586 0 q 531 -132 531 -58 q 571 -182 531 -182 l 586 -182 l 586 -278 l 553 -278 q 456 -249 490 -278 q 421 -167 421 -219 q 513 0 421 -76 l 389 0 l 389 38 q 234 0 321 0 q 101 47 147 0 q 56 183 56 94 l 56 819 l 268 819 l 268 225 q 308 189 268 189 q 376 206 349 189 l 376 819 l 586 819 z "},"Ÿ":{"ha":669,"x_min":0,"x_max":669,"o":"m 440 0 l 229 0 l 229 299 l 0 963 l 214 963 l 260 817 q 338 514 314 646 q 417 819 364 649 l 461 963 l 669 963 l 440 299 l 440 0 m 538 1097 q 538 1059 538 1097 q 457 1021 538 1021 q 376 1097 376 1021 q 457 1172 376 1172 q 538 1097 538 1172 m 300 1097 q 300 1059 300 1097 q 219 1021 300 1021 q 139 1097 139 1021 q 219 1172 139 1172 q 300 1097 300 1172 z "},"Ź":{"ha":590,"x_min":28,"x_max":563,"o":"m 33 963 l 557 963 l 557 794 l 246 176 l 563 176 l 563 0 l 28 0 l 28 176 l 331 786 l 33 786 l 33 963 m 297 1176 l 450 1176 l 346 1017 l 236 1017 l 297 1176 z "},"ź":{"ha":506,"x_min":28,"x_max":478,"o":"m 32 819 l 474 819 l 474 694 l 258 175 l 478 175 l 478 0 l 28 0 l 28 128 l 249 644 l 32 644 l 32 819 m 263 1038 l 415 1038 l 311 878 l 201 878 l 263 1038 z "},"Ż":{"ha":590,"x_min":28,"x_max":563,"o":"m 379 1097 q 379 1059 379 1097 q 299 1021 379 1021 q 218 1097 218 1021 q 299 1172 218 1172 q 379 1097 379 1172 m 33 963 l 557 963 l 557 794 l 246 176 l 563 176 l 563 0 l 28 0 l 28 176 l 331 786 l 33 786 l 33 963 z "},"ż":{"ha":506,"x_min":28,"x_max":478,"o":"m 331 958 q 331 920 331 958 q 250 882 331 882 q 169 958 169 882 q 250 1033 169 1033 q 331 958 331 1033 m 32 819 l 474 819 l 474 694 l 258 175 l 478 175 l 478 0 l 28 0 l 28 128 l 249 644 l 32 644 l 32 819 z "},"Ž":{"ha":590,"x_min":28,"x_max":563,"o":"m 563 176 l 563 0 l 28 0 l 28 176 l 331 786 l 33 786 l 33 963 l 557 963 l 557 794 l 246 176 l 563 176 m 214 1017 l 131 1176 l 232 1176 l 289 1101 l 344 1176 l 446 1176 l 363 1017 l 214 1017 z "},"ž":{"ha":506,"x_min":28,"x_max":478,"o":"m 478 175 l 478 0 l 28 0 l 28 128 l 249 644 l 32 644 l 32 819 l 474 819 l 474 694 l 258 175 l 478 175 m 179 878 l 96 1038 l 197 1038 l 254 963 l 310 1038 l 411 1038 l 328 878 l 179 878 z "},"ƒ":{"ha":547,"x_min":35,"x_max":547,"o":"m 547 869 q 497 872 525 872 q 454 857 469 872 q 435 806 439 842 l 426 738 l 507 738 l 507 574 l 404 574 l 358 229 q 288 53 343 113 q 111 -6 233 -6 q 35 1 79 -6 l 35 163 q 85 160 57 160 q 128 175 113 160 q 147 226 143 190 l 193 574 l 85 574 l 85 738 l 215 738 l 224 803 q 294 978 239 919 q 471 1038 349 1038 q 547 1031 503 1038 l 547 869 z "},"Ș":{"ha":610,"x_min":28,"x_max":585,"o":"m 317 -85 q 365 -129 365 -85 q 338 -215 365 -164 q 285 -300 311 -267 l 218 -300 l 253 -85 l 317 -85 m 28 738 q 103 909 28 849 q 319 969 178 969 q 529 940 460 969 l 529 740 q 336 776 444 776 q 261 759 281 776 q 242 710 242 742 l 242 689 q 255 631 242 650 q 313 589 268 613 l 471 500 q 585 313 585 438 l 585 226 q 501 53 585 114 q 267 -7 418 -7 q 40 25 117 -7 l 40 226 q 254 186 135 186 q 374 254 374 186 l 374 275 q 360 323 374 307 q 311 358 347 339 l 163 439 q 28 650 28 514 l 28 738 z "},"ș":{"ha":539,"x_min":28,"x_max":511,"o":"m 289 -85 q 338 -129 338 -85 q 310 -215 338 -164 q 257 -300 283 -267 l 190 -300 l 225 -85 l 289 -85 m 31 603 q 98 770 31 714 q 315 826 165 826 q 485 806 418 826 l 485 621 q 348 642 422 642 q 253 629 274 642 q 233 589 233 617 l 233 578 q 244 549 233 561 q 289 514 254 538 l 401 439 q 483 363 454 404 q 511 258 511 321 l 511 224 q 208 -7 511 -7 q 28 11 103 -7 l 28 199 q 172 179 93 179 q 277 192 251 179 q 303 232 303 206 l 303 244 q 289 278 303 265 q 129 389 272 294 q 31 567 31 456 l 31 603 z "},"Ț":{"ha":572,"x_min":7,"x_max":565,"o":"m 565 963 l 565 782 l 392 782 l 392 0 l 181 0 l 181 782 l 7 782 l 7 963 l 565 963 m 299 -85 q 347 -129 347 -85 q 320 -215 347 -164 q 267 -300 293 -267 l 200 -300 l 235 -85 l 299 -85 z "},"ț":{"ha":443,"x_min":7,"x_max":422,"o":"m 275 -85 q 324 -129 324 -85 q 297 -215 324 -164 q 243 -300 269 -267 l 176 -300 l 211 -85 l 275 -85 m 343 176 q 422 196 386 176 l 422 10 q 299 -12 375 -12 q 131 43 181 -12 q 81 204 81 99 l 81 643 l 7 643 l 7 819 l 90 819 l 154 961 l 290 961 l 290 819 l 414 819 l 414 643 l 290 643 l 290 226 q 343 176 290 176 z "},"ˆ":{"ha":486,"x_min":85,"x_max":400,"o":"m 400 878 l 299 878 l 243 953 l 186 878 l 85 878 l 168 1038 l 317 1038 l 400 878 z "},"ˇ":{"ha":486,"x_min":85,"x_max":400,"o":"m 299 1038 l 400 1038 l 317 878 l 168 878 l 85 1038 l 186 1038 l 243 963 l 299 1038 z "},"ˉ":{"ha":486,"x_min":57,"x_max":428,"o":"m 57 1011 l 428 1011 l 428 904 l 57 904 l 57 1011 z "},"˘":{"ha":486,"x_min":76,"x_max":410,"o":"m 303 1038 l 410 1038 q 363 922 410 965 q 243 878 315 878 q 124 922 171 878 q 76 1038 76 967 l 183 1038 q 199 990 183 1008 q 243 972 214 972 q 288 990 272 972 q 303 1038 303 1008 z "},"˙":{"ha":486,"x_min":163,"x_max":324,"o":"m 324 958 q 324 920 324 958 q 243 882 324 882 q 163 958 163 882 q 243 1033 163 1033 q 324 958 324 1033 z "},"˚":{"ha":486,"x_min":131,"x_max":356,"o":"m 282 957 q 272 985 282 974 q 243 996 261 996 q 215 985 225 996 q 204 957 204 974 q 243 917 204 917 q 282 957 282 917 m 160 878 q 145 894 160 878 q 131 957 131 910 q 160 1035 131 1004 q 243 1067 190 1067 q 326 1035 296 1067 q 356 956 356 1004 q 326 877 356 908 q 243 846 296 846 q 160 878 190 846 z "},"˛":{"ha":486,"x_min":163,"x_max":328,"o":"m 272 -132 q 313 -182 272 -182 l 328 -182 l 328 -278 l 294 -278 q 197 -249 232 -278 q 163 -167 163 -219 q 254 0 163 -76 l 328 0 q 272 -132 272 -58 z "},"˜":{"ha":486,"x_min":39,"x_max":446,"o":"m 336 1033 l 446 1033 l 446 1026 q 414 919 444 958 q 322 881 383 881 q 238 908 285 881 q 178 935 190 935 q 149 883 149 935 l 149 879 l 39 879 l 39 882 q 163 1032 42 1032 q 249 1005 203 1032 q 307 978 294 978 q 336 1028 336 978 l 336 1033 z "},"˝":{"ha":486,"x_min":56,"x_max":429,"o":"m 124 1038 l 263 1038 l 151 878 l 56 878 l 124 1038 m 290 1038 l 429 1038 l 318 878 l 222 878 l 290 1038 z "},"π":{"ha":643,"x_min":63,"x_max":671,"o":"m 63 819 l 671 819 l 671 643 l 588 643 l 588 0 l 375 0 l 375 643 l 272 643 l 272 0 l 63 0 l 63 819 z "},"ँ":{"ha":0,"x_min":-447,"x_max":136,"o":"m -57 1258 l 136 1258 l 136 1251 q -156 1019 136 1019 q -447 1251 -447 1019 l -447 1258 l -253 1258 q -230 1204 -253 1221 q -154 1188 -207 1188 q -57 1258 -57 1188 m -154 1264 q -203 1264 -154 1264 q -251 1361 -251 1264 q -154 1458 -251 1458 q -57 1361 -57 1458 q -154 1264 -57 1264 z "},"ं":{"ha":0,"x_min":-260,"x_max":-53,"o":"m -156 1010 q -208 1010 -156 1010 q -260 1114 -260 1010 q -156 1218 -260 1218 q -53 1114 -53 1218 q -156 1010 -53 1010 z "},"ः":{"ha":346,"x_min":68,"x_max":276,"o":"m 174 0 q 68 104 68 0 q 172 208 68 208 q 276 104 276 208 q 174 0 276 0 m 172 476 q 120 476 172 476 q 68 581 68 476 q 172 685 68 685 q 276 581 276 685 q 172 476 276 476 z "},"अ":{"ha":844,"x_min":58,"x_max":900,"o":"m 592 932 l 900 932 l 900 769 l 786 769 l 786 0 l 592 0 l 592 296 l 494 296 l 494 288 q 424 111 493 172 q 203 50 356 50 q 58 68 110 50 l 58 244 q 191 226 125 226 q 280 242 257 226 q 304 296 303 258 l 304 353 q 231 421 304 421 l 149 421 l 149 600 l 231 600 q 287 615 269 600 q 304 664 304 631 l 304 693 q 281 747 304 731 q 199 763 258 763 q 78 746 139 763 l 78 922 q 204 939 126 939 q 494 701 494 939 l 494 664 q 435 511 494 553 q 474 463 458 496 l 592 463 l 592 932 z "},"आ":{"ha":1156,"x_min":58,"x_max":1211,"o":"m 1211 932 l 1211 769 l 1097 769 l 1097 0 l 903 0 l 903 769 l 786 769 l 786 0 l 592 0 l 592 296 l 494 296 l 494 288 q 424 111 493 172 q 203 50 356 50 q 58 68 110 50 l 58 244 q 191 226 125 226 q 280 242 257 226 q 304 296 303 258 l 304 353 q 231 421 304 421 l 149 421 l 149 600 l 231 600 q 287 615 269 600 q 304 664 304 631 l 304 693 q 281 747 304 731 q 199 763 258 763 q 78 746 139 763 l 78 922 q 204 939 126 939 q 494 701 494 939 l 494 664 q 435 511 494 553 q 474 463 458 496 l 592 463 l 592 932 l 1211 932 z "},"इ":{"ha":582,"x_min":-56,"x_max":636,"o":"m 328 -8 q 239 1 294 -8 l 239 -114 l 47 -114 l 47 235 l 239 235 l 239 174 q 303 164 271 164 q 348 177 335 164 q 361 218 361 190 l 361 242 q 307 293 361 293 l 271 293 q 95 339 154 293 q 36 489 36 385 l 36 503 q 93 654 36 608 q 271 700 150 700 l 325 700 l 325 769 l -56 769 l -56 932 l 636 932 l 636 769 l 519 769 l 519 533 l 271 533 q 239 525 247 533 q 231 496 231 517 l 231 493 q 271 456 231 456 l 307 456 q 495 406 435 456 q 556 249 556 356 l 556 211 q 503 46 556 100 q 328 -8 451 -8 z "},"ई":{"ha":582,"x_min":-56,"x_max":636,"o":"m 481 1258 q 592 1250 553 1258 l 592 1078 q 544 1082 571 1082 q 502 1072 518 1082 q 486 1024 486 1061 q 514 932 486 988 l 636 932 l 636 769 l 519 769 l 519 533 l 271 533 q 239 525 247 533 q 231 496 231 517 l 231 493 q 271 456 231 456 l 307 456 q 495 406 435 456 q 556 249 556 356 l 556 211 q 503 46 556 100 q 328 -8 451 -8 q 239 1 294 -8 l 239 -114 l 47 -114 l 47 235 l 239 235 l 239 174 q 303 164 271 164 q 348 177 335 164 q 361 218 361 190 l 361 242 q 307 293 361 293 l 271 293 q 95 339 154 293 q 36 489 36 385 l 36 503 q 93 654 36 608 q 271 700 150 700 l 325 700 l 325 769 l -56 769 l -56 932 l 325 932 q 290 1075 290 1014 q 481 1258 290 1258 z "},"उ":{"ha":563,"x_min":-56,"x_max":617,"o":"m 313 704 q 297 769 313 749 l -56 769 l -56 932 l 617 932 l 617 769 l 492 769 q 507 704 507 746 l 507 597 q 450 458 507 496 q 507 317 507 418 l 507 233 q 222 -7 507 -7 q 54 11 158 -7 l 54 188 q 219 169 150 169 q 313 238 313 169 l 313 303 q 244 371 313 371 l 160 371 l 160 550 l 258 550 q 301 564 290 550 q 313 604 313 578 l 313 704 z "},"ऊ":{"ha":833,"x_min":-56,"x_max":889,"o":"m 313 704 q 297 769 313 749 l -56 769 l -56 932 l 889 932 l 889 769 l 492 769 q 507 704 507 746 l 507 597 q 500 532 507 563 q 592 544 547 544 q 810 339 810 544 l 810 226 q 756 56 810 115 q 601 -3 703 -3 l 561 0 l 561 179 l 574 179 q 608 191 600 181 q 615 233 615 201 l 615 300 q 602 350 615 335 q 556 365 589 365 l 503 365 q 507 317 507 342 l 507 233 q 222 -7 507 -7 q 54 11 158 -7 l 54 188 q 219 169 150 169 q 313 238 313 169 l 313 303 q 244 371 313 371 l 160 371 l 160 550 l 258 550 q 301 564 290 550 q 313 604 313 578 l 313 704 z "},"ऋ":{"ha":1043,"x_min":-56,"x_max":1099,"o":"m 1099 769 l 622 769 l 622 608 q 736 599 688 599 q 813 664 813 599 l 813 682 l 1001 682 l 1001 226 l 936 226 q 864 156 864 226 q 956 86 864 86 q 1035 93 997 86 l 1035 -68 q 931 -75 990 -75 q 675 147 675 -75 q 714 286 675 233 q 822 346 753 339 l 822 436 q 739 419 789 419 q 622 431 689 419 l 622 0 l 440 0 l 440 36 q 454 240 440 157 l 451 240 q 351 89 415 161 l 276 0 l 36 0 l 35 6 l 428 429 l 428 496 q 324 510 379 510 q 244 489 268 510 q 221 424 221 468 l 221 336 l 35 336 l 35 438 q 98 624 35 560 q 303 689 161 689 q 428 675 372 689 l 428 769 l -56 769 l -56 932 l 1099 932 l 1099 769 z "},"ऌ":{"ha":901,"x_min":-56,"x_max":957,"o":"m 842 769 l 842 18 q 700 31 758 31 q 628 -25 628 31 q 700 -81 628 -81 q 843 -68 758 -81 l 843 -244 q 696 -258 768 -258 q 502 -198 568 -258 q 436 -31 436 -137 q 647 206 436 186 l 647 500 q 599 507 626 507 q 539 453 539 507 l 539 308 l 344 308 l 344 453 q 333 493 344 479 q 290 507 322 507 q 247 493 258 507 q 236 453 236 479 l 236 261 q 254 201 236 222 q 310 179 272 179 q 375 182 347 179 l 375 4 q 318 0 342 0 q 108 62 175 0 q 42 253 42 124 l 42 460 q 104 627 42 568 q 283 686 167 686 q 384 663 346 686 q 438 610 422 640 q 581 685 488 685 q 647 678 615 685 l 647 769 l -56 769 l -56 932 l 957 932 l 957 769 l 842 769 z "},"ऍ":{"ha":613,"x_min":-56,"x_max":668,"o":"m 349 -7 q 126 57 196 -7 q 57 256 57 121 l 57 769 l -56 769 l -56 932 l 668 932 l 668 769 l 565 769 l 565 561 q 517 395 565 449 q 344 342 468 342 q 317 344 336 342 l 317 524 l 329 524 q 363 533 356 524 q 371 574 371 542 l 371 769 l 251 769 l 251 263 q 274 194 251 215 q 369 172 297 172 q 528 197 442 172 l 528 21 q 349 -7 444 -7 m 408 1251 l 603 1251 l 603 1244 q 310 1013 603 1013 q 18 1244 18 1013 l 18 1251 l 213 1251 q 235 1197 213 1214 q 311 1181 258 1181 q 408 1251 408 1181 z "},"ऎ":{"ha":613,"x_min":-56,"x_max":668,"o":"m 564 932 l 668 932 l 668 769 l 565 769 l 565 561 q 517 395 565 449 q 344 342 468 342 q 317 344 336 342 l 317 524 l 329 524 q 363 533 356 524 q 371 574 371 542 l 371 769 l 251 769 l 251 263 q 274 194 251 215 q 369 172 297 172 q 528 197 442 172 l 528 21 q 349 -7 444 -7 q 126 57 196 -7 q 57 256 57 121 l 57 769 l -56 769 l -56 932 l 371 932 q 351 994 371 975 q 276 1014 332 1014 q 63 1065 128 1014 q -3 1251 -3 1117 l 192 1251 q 211 1190 192 1208 q 288 1171 231 1171 q 498 1115 432 1171 q 564 932 564 1060 z "},"ए":{"ha":613,"x_min":-56,"x_max":668,"o":"m 349 -7 q 126 57 196 -7 q 57 256 57 121 l 57 769 l -56 769 l -56 932 l 668 932 l 668 769 l 565 769 l 565 561 q 517 395 565 449 q 344 342 468 342 q 317 344 336 342 l 317 524 l 329 524 q 363 533 356 524 q 371 574 371 542 l 371 769 l 251 769 l 251 263 q 274 194 251 215 q 369 172 297 172 q 528 197 442 172 l 528 21 q 349 -7 444 -7 z "},"ऐ":{"ha":613,"x_min":-56,"x_max":668,"o":"m 668 932 l 668 769 l 565 769 l 565 561 q 517 395 565 449 q 344 342 468 342 q 317 344 336 342 l 317 524 l 329 524 q 363 533 356 524 q 371 574 371 542 l 371 769 l 251 769 l 251 263 q 274 194 251 215 q 369 172 297 172 q 528 197 442 172 l 528 21 q 349 -7 444 -7 q 126 57 196 -7 q 57 256 57 121 l 57 769 l -56 769 l -56 932 l 363 932 l 133 1251 l 349 1251 l 560 932 l 668 932 z "},"ऑ":{"ha":1157,"x_min":58,"x_max":1213,"o":"m 1213 932 l 1213 769 l 1099 769 l 1099 0 l 904 0 l 904 769 l 786 769 l 786 0 l 592 0 l 592 296 l 494 296 l 494 288 q 424 111 493 172 q 203 50 356 50 q 58 68 110 50 l 58 244 q 191 226 125 226 q 280 242 257 226 q 304 296 303 258 l 304 353 q 231 421 304 421 l 149 421 l 149 600 l 231 600 q 287 615 269 600 q 304 664 304 631 l 304 693 q 281 747 304 731 q 199 763 258 763 q 78 746 139 763 l 78 922 q 204 939 126 939 q 494 701 494 939 l 494 664 q 435 511 494 553 q 474 463 458 496 l 592 463 l 592 932 l 1213 932 m 1147 1251 l 1147 1244 q 856 1013 1147 1013 q 565 1244 565 1013 l 565 1251 l 758 1251 q 781 1197 758 1214 q 856 1181 804 1181 q 953 1251 953 1181 l 1147 1251 z "},"ऒ":{"ha":1157,"x_min":58,"x_max":1213,"o":"m 1099 932 l 1213 932 l 1213 769 l 1099 769 l 1099 0 l 904 0 l 904 769 l 786 769 l 786 0 l 592 0 l 592 296 l 494 296 l 494 288 q 424 111 493 172 q 203 50 356 50 q 58 68 110 50 l 58 244 q 191 226 125 226 q 280 242 257 226 q 304 296 303 258 l 304 353 q 231 421 304 421 l 149 421 l 149 600 l 231 600 q 287 615 269 600 q 304 664 304 631 l 304 693 q 281 747 304 731 q 199 763 258 763 q 78 746 139 763 l 78 922 q 204 939 126 939 q 494 701 494 939 l 494 664 q 435 511 494 553 q 474 463 458 496 l 592 463 l 592 932 l 904 932 q 885 994 904 975 q 811 1014 867 1014 q 598 1065 663 1014 q 533 1251 533 1117 l 726 1251 q 746 1190 726 1208 q 822 1171 765 1171 q 1033 1115 967 1171 q 1099 932 1099 1058 z "},"ओ":{"ha":1157,"x_min":58,"x_max":1213,"o":"m 1213 932 l 1213 769 l 1099 769 l 1099 0 l 904 0 l 904 769 l 786 769 l 786 0 l 592 0 l 592 296 l 494 296 l 494 288 q 424 111 493 172 q 203 50 356 50 q 58 68 110 50 l 58 244 q 191 226 125 226 q 280 242 257 226 q 304 296 303 258 l 304 353 q 231 421 304 421 l 149 421 l 149 600 l 231 600 q 287 615 269 600 q 304 664 304 631 l 304 693 q 281 747 304 731 q 199 763 258 763 q 78 746 139 763 l 78 922 q 204 939 126 939 q 494 701 494 939 l 494 664 q 435 511 494 553 q 474 463 458 496 l 592 463 l 592 932 l 901 932 l 829 1032 q 724 1090 788 1090 q 688 1089 701 1090 l 688 1247 q 770 1251 719 1251 q 871 1226 821 1251 q 968 1129 921 1200 l 1099 932 l 1213 932 z "},"औ":{"ha":1157,"x_min":58,"x_max":1213,"o":"m 1213 932 l 1213 769 l 1099 769 l 1099 0 l 904 0 l 904 769 l 786 769 l 786 0 l 592 0 l 592 296 l 494 296 l 494 288 q 424 111 493 172 q 203 50 356 50 q 58 68 110 50 l 58 244 q 191 226 125 226 q 280 242 257 226 q 304 296 303 258 l 304 353 q 231 421 304 421 l 149 421 l 149 600 l 231 600 q 287 615 269 600 q 304 664 304 631 l 304 693 q 281 747 304 731 q 199 763 258 763 q 78 746 139 763 l 78 922 q 204 939 126 939 q 494 701 494 939 l 494 664 q 435 511 494 553 q 474 463 458 496 l 592 463 l 592 932 l 719 932 l 638 1032 q 532 1090 589 1090 q 496 1089 510 1090 l 496 1247 q 558 1251 528 1251 q 669 1219 622 1251 q 772 1114 717 1188 l 908 932 l 925 932 l 889 1032 q 866 1076 878 1064 q 839 1089 854 1089 q 817 1088 824 1089 l 817 1247 q 864 1251 842 1251 q 1033 1114 990 1251 l 1090 932 l 1213 932 z "},"क":{"ha":878,"x_min":-56,"x_max":932,"o":"m 226 289 q 239 245 226 260 q 283 231 251 231 q 343 242 315 231 l 343 769 l -56 769 l -56 932 l 932 932 l 932 769 l 532 769 l 532 694 q 617 701 569 701 q 781 647 729 701 q 833 483 833 593 l 833 299 q 785 135 833 188 q 622 82 736 82 l 593 85 l 593 267 q 640 274 631 261 q 649 318 649 288 l 649 476 q 636 520 649 506 q 590 535 624 535 l 532 528 l 532 0 l 342 0 l 342 82 q 258 71 303 71 q 93 122 144 71 q 42 281 42 172 l 42 483 q 94 647 42 593 q 258 701 146 701 l 299 697 l 299 533 q 272 535 292 535 q 239 520 251 535 q 226 476 226 506 l 226 289 z "},"ख":{"ha":1101,"x_min":-56,"x_max":1156,"o":"m 333 704 q 319 769 333 747 l -56 769 l -56 932 l 1156 932 l 1156 769 l 1040 769 l 1040 0 l 851 0 l 851 146 q 779 138 826 138 q 607 190 656 138 q 558 356 558 243 l 558 464 q 603 634 558 579 q 769 689 649 689 l 851 682 l 851 769 l 504 769 q 513 704 513 747 l 513 536 q 460 370 513 426 q 293 314 408 314 q 231 319 272 314 l 231 271 q 260 194 231 221 q 372 168 290 168 q 529 200 453 168 l 529 19 q 346 -7 454 -7 q 119 68 192 -7 q 46 268 46 143 l 46 626 l 231 626 l 231 488 q 286 485 264 485 q 333 539 333 485 l 333 704 m 796 521 q 732 465 732 521 l 732 356 q 796 300 732 300 l 851 307 l 851 514 q 796 521 828 521 z "},"ग":{"ha":686,"x_min":-56,"x_max":740,"o":"m 740 932 l 740 769 l 628 769 l 628 0 l 433 0 l 433 769 l 325 769 l 325 465 q 263 291 325 349 q 90 233 200 233 l 14 238 l 14 425 q 61 422 39 422 q 131 482 131 422 l 131 769 l -56 769 l -56 932 l 740 932 z "},"घ":{"ha":701,"x_min":-56,"x_max":756,"o":"m 449 769 l 265 769 q 251 704 251 751 l 251 653 q 263 613 251 626 q 306 599 274 599 l 367 599 l 367 419 l 297 419 q 254 406 265 419 q 243 365 243 392 l 243 326 q 268 269 243 286 q 347 253 293 253 q 449 267 401 253 l 449 769 m 57 704 q 65 769 57 742 l -56 769 l -56 932 l 756 932 l 756 769 l 643 769 l 643 0 l 449 0 l 449 93 q 315 79 385 79 q 116 140 183 79 q 49 301 49 201 l 49 372 q 110 514 49 478 q 57 646 57 554 l 57 704 z "},"ङ":{"ha":769,"x_min":-56,"x_max":825,"o":"m 654 338 q 602 338 654 338 q 550 442 550 338 q 654 546 550 546 q 758 442 758 546 q 654 338 758 338 m 567 226 l 567 217 q 494 42 567 99 q 269 -15 421 -15 q 71 8 181 -15 l 71 185 q 244 161 181 161 q 326 164 307 161 q 358 179 344 167 q 372 217 372 192 l 372 222 q 361 258 372 246 q 318 271 350 271 l 283 271 q 108 317 167 271 q 49 467 49 363 l 49 503 q 106 654 49 608 q 283 700 163 700 l 331 700 l 331 769 l -56 769 l -56 932 l 825 932 l 825 769 l 525 769 l 525 533 l 283 533 q 243 490 243 533 l 243 476 q 283 433 243 433 l 318 433 q 506 383 446 433 q 567 226 567 333 z "},"च":{"ha":679,"x_min":-56,"x_max":733,"o":"m 93 439 q 101 507 93 476 l 18 507 l 18 682 l 376 682 l 376 515 l 303 515 q 288 438 288 496 l 288 311 q 363 244 288 244 q 426 254 397 244 l 426 769 l -56 769 l -56 932 l 733 932 l 733 769 l 621 769 l 621 0 l 426 0 l 426 85 q 325 74 382 74 q 149 130 206 74 q 93 304 93 186 l 93 439 z "},"छ":{"ha":771,"x_min":-56,"x_max":825,"o":"m 526 447 q 506 516 526 496 q 442 536 486 536 q 371 524 399 536 l 371 682 q 460 696 407 696 l 460 769 l 265 769 q 250 704 250 751 l 250 519 q 261 479 250 493 q 304 465 272 465 l 411 465 l 411 296 l 311 296 q 259 285 274 296 q 244 238 244 274 l 244 233 q 269 181 244 193 q 383 169 294 169 q 499 188 472 169 q 526 253 526 207 l 526 447 m 56 704 q 71 769 56 739 l -56 769 l -56 932 l 825 932 l 825 769 l 640 769 l 640 665 q 715 482 715 626 l 715 243 q 642 53 715 111 q 387 -4 569 -4 q 126 49 204 -4 q 49 222 49 103 l 49 254 q 110 381 49 343 q 56 511 56 417 l 56 704 z "},"ज":{"ha":825,"x_min":-56,"x_max":879,"o":"m 278 438 q 263 503 278 478 l 125 503 l 125 682 l 572 682 l 572 769 l -56 769 l -56 932 l 879 932 l 879 769 l 767 769 l 767 0 l 572 0 l 572 515 l 460 515 q 472 450 472 492 l 472 308 q 401 127 472 188 q 196 67 329 67 q 74 81 131 67 l 74 256 q 188 243 133 243 q 278 315 278 243 l 278 438 z "},"झ":{"ha":900,"x_min":-56,"x_max":954,"o":"m 290 456 l 647 456 l 647 769 l 539 769 l 539 533 l 290 533 q 259 525 268 533 q 250 497 250 517 l 250 494 q 258 465 250 474 q 290 456 267 456 m 306 293 l 290 293 q 115 339 174 293 q 56 489 56 385 l 56 503 q 113 654 56 608 q 290 700 169 700 l 344 700 l 344 769 l -56 769 l -56 932 l 954 932 l 954 769 l 842 769 l 842 0 l 647 0 l 647 306 l 539 306 q 557 235 557 278 l 557 200 q 502 40 557 86 q 342 -7 447 -7 l 244 1 l 244 -112 l 53 -112 l 53 235 l 244 235 l 244 167 q 307 161 274 161 q 353 174 340 161 q 367 215 367 188 l 367 236 q 353 279 367 265 q 306 293 340 293 z "},"ञ":{"ha":840,"x_min":-56,"x_max":894,"o":"m 292 314 l 292 461 q 270 519 292 500 q 192 539 249 539 q 83 525 136 539 l 83 697 q 199 715 138 715 q 419 653 351 715 q 486 476 486 592 l 486 469 l 588 469 l 588 769 l -56 769 l -56 932 l 894 932 l 894 769 l 782 769 l 782 0 l 588 0 l 588 303 l 486 303 l 486 296 q 419 120 486 181 q 199 60 351 60 q 83 78 146 60 l 83 250 q 195 236 142 236 q 270 256 249 236 q 292 314 292 275 z "},"ट":{"ha":581,"x_min":-56,"x_max":635,"o":"m 243 422 l 243 251 q 272 187 243 204 q 367 169 300 169 q 529 185 435 169 l 529 11 q 347 -7 433 -7 q 125 58 201 -7 q 49 247 49 122 l 49 438 q 113 619 49 557 q 307 682 178 682 l 315 682 l 315 769 l -56 769 l -56 932 l 635 932 l 635 769 l 510 769 l 510 506 l 331 506 q 266 484 289 506 q 243 422 243 463 z "},"ठ":{"ha":594,"x_min":-56,"x_max":649,"o":"m 358 217 l 358 485 q 297 543 358 543 q 236 485 236 543 l 236 217 q 297 158 236 158 q 358 217 358 158 m 546 492 l 546 219 q 297 -7 546 -7 q 49 219 49 -7 l 49 492 q 200 697 49 663 l 200 769 l -56 769 l -56 932 l 649 932 l 649 769 l 394 769 l 394 697 q 546 492 546 663 z "},"ड":{"ha":596,"x_min":-56,"x_max":651,"o":"m 525 533 l 283 533 q 243 490 243 533 l 243 476 q 283 433 243 433 l 318 433 q 506 383 446 433 q 567 226 567 333 l 567 217 q 494 42 567 99 q 269 -15 421 -15 q 71 8 178 -15 l 71 185 q 254 161 186 161 q 347 173 322 161 q 372 221 372 185 q 318 271 372 271 l 283 271 q 108 317 167 271 q 49 467 49 363 l 49 503 q 106 654 49 608 q 283 700 163 700 l 331 700 l 331 769 l -56 769 l -56 932 l 651 932 l 651 769 l 525 769 l 525 533 z "},"ढ":{"ha":604,"x_min":-56,"x_max":658,"o":"m 290 693 l 340 693 l 340 769 l -56 769 l -56 932 l 658 932 l 658 769 l 532 769 l 532 517 l 290 517 q 249 505 258 517 q 239 465 239 493 l 239 239 q 253 188 239 204 q 308 171 267 171 q 364 186 350 171 q 378 236 378 201 l 378 240 q 326 286 378 286 l 292 282 l 292 453 q 356 457 319 457 q 513 408 461 457 q 564 246 564 360 l 564 225 q 503 49 564 106 q 308 -7 442 -7 q 47 232 47 -7 l 47 472 q 104 642 47 590 q 290 693 161 693 z "},"ण":{"ha":904,"x_min":-56,"x_max":960,"o":"m 349 769 l 243 769 l 243 371 q 253 330 243 343 q 296 317 264 317 q 338 330 328 317 q 349 371 349 343 l 349 769 m 543 369 q 296 143 543 143 q 49 369 49 143 l 49 769 l -56 769 l -56 932 l 960 932 l 960 769 l 846 769 l 846 0 l 651 0 l 651 769 l 543 769 l 543 369 z "},"त":{"ha":643,"x_min":-56,"x_max":699,"o":"m 292 689 q 390 681 346 689 l 390 769 l -56 769 l -56 932 l 699 932 l 699 769 l 585 769 l 585 0 l 390 0 l 390 503 q 321 510 353 510 q 243 442 243 510 l 243 233 q 258 191 243 201 q 311 181 274 181 l 311 -3 l 269 -3 q 97 49 146 -3 q 49 214 49 101 l 49 449 q 108 625 49 561 q 292 689 168 689 z "},"थ":{"ha":831,"x_min":49,"x_max":886,"o":"m 578 932 l 886 932 l 886 769 l 772 769 l 772 0 l 578 0 l 578 118 q 415 103 507 103 q 148 183 247 103 q 49 404 49 263 l 49 586 l 233 586 q 312 606 290 586 q 333 671 333 625 l 333 715 q 325 753 333 742 q 292 765 317 765 q 250 711 250 765 l 254 668 l 69 668 q 65 713 65 688 q 287 939 65 939 q 508 717 508 939 l 508 636 q 263 418 508 418 l 247 418 l 247 411 q 288 311 247 342 q 425 281 329 281 q 578 294 521 281 l 578 932 z "},"द":{"ha":597,"x_min":-56,"x_max":653,"o":"m 42 301 l 42 467 q 101 638 42 589 q 293 688 161 688 l 338 688 l 338 769 l -56 769 l -56 932 l 653 932 l 653 769 l 532 769 l 532 511 l 293 511 q 247 499 258 511 q 236 460 236 488 l 236 308 q 249 269 236 282 q 292 256 261 256 q 350 264 322 256 l 350 386 l 544 386 l 544 0 l 350 0 l 350 93 q 265 85 317 85 q 96 138 150 85 q 42 301 42 192 z "},"ध":{"ha":701,"x_min":-56,"x_max":757,"o":"m 57 704 q 72 769 57 739 l -56 769 l -56 932 l 351 932 l 351 769 l 274 769 q 251 704 251 751 l 251 653 q 263 613 251 626 q 306 599 274 599 l 367 599 l 367 419 l 297 419 q 254 406 265 419 q 243 365 243 392 l 243 326 q 346 253 243 253 q 449 267 393 253 l 449 932 l 757 932 l 757 769 l 643 769 l 643 0 l 449 0 l 449 93 q 318 79 393 79 q 117 138 185 79 q 49 301 49 197 l 49 372 q 110 514 49 478 q 57 646 57 554 l 57 704 z "},"न":{"ha":844,"x_min":-56,"x_max":900,"o":"m 276 503 q 236 490 246 503 q 226 449 226 476 l 226 300 q 236 259 226 272 q 276 246 246 246 q 317 259 307 246 q 326 300 326 272 l 326 418 q 317 503 326 478 l 276 503 m 592 503 l 500 503 q 508 425 508 474 l 508 299 q 454 129 508 186 q 276 72 400 72 q 97 130 153 72 q 42 299 42 188 l 42 456 q 97 624 42 567 q 276 682 153 682 l 592 682 l 592 769 l -56 769 l -56 932 l 900 932 l 900 769 l 786 769 l 786 0 l 592 0 l 592 503 z "},"ऩ":{"ha":851,"x_min":-56,"x_max":907,"o":"m 65 -178 q 13 -178 65 -178 q -39 -74 -39 -178 q 65 31 -39 31 q 169 -74 169 31 q 65 -178 169 -178 m 283 503 q 243 490 253 503 q 233 449 233 476 l 233 300 q 243 259 233 272 q 283 246 253 246 q 324 259 314 246 q 333 300 333 272 l 333 418 q 324 503 333 478 l 283 503 m 599 503 l 507 503 q 515 425 515 474 l 515 299 q 461 129 515 186 q 283 72 407 72 q 104 130 160 72 q 49 299 49 188 l 49 456 q 104 624 49 567 q 283 682 160 682 l 599 682 l 599 769 l -56 769 l -56 932 l 907 932 l 907 769 l 793 769 l 793 0 l 599 0 l 599 503 z "},"प":{"ha":618,"x_min":-56,"x_max":674,"o":"m 308 331 q 365 340 333 331 l 365 769 l 246 769 l 246 386 q 308 331 246 331 m 365 0 l 365 169 q 275 158 329 158 q 103 213 156 158 q 51 378 51 267 l 51 769 l -56 769 l -56 932 l 674 932 l 674 769 l 560 769 l 560 0 l 365 0 z "},"फ":{"ha":894,"x_min":-56,"x_max":950,"o":"m 356 769 l 247 769 l 247 367 q 310 311 247 311 q 356 317 336 311 l 356 769 m 600 517 q 550 508 575 517 l 550 0 l 356 0 l 356 147 q 276 139 314 139 q 105 193 157 139 q 53 358 53 247 l 53 769 l -56 769 l -56 932 l 950 932 l 950 769 l 550 769 l 550 685 q 628 696 581 696 q 853 469 853 696 l 853 297 q 800 134 853 188 q 632 81 747 81 q 608 82 617 81 l 608 263 q 649 274 639 263 q 658 317 658 285 l 658 463 q 600 517 658 517 z "},"ब":{"ha":653,"x_min":-56,"x_max":708,"o":"m -56 932 l 708 932 l 708 769 l 594 769 l 594 0 l 410 0 l 410 85 q 310 74 372 74 q 108 126 175 74 q 42 307 42 178 l 42 469 q 105 651 42 599 q 301 703 168 703 q 410 688 364 703 l 410 769 l -56 769 l -56 932 m 410 528 q 322 543 367 543 q 251 525 276 543 l 410 368 l 410 528 m 226 315 q 324 233 226 233 q 401 239 354 233 l 226 413 l 226 315 z "},"भ":{"ha":900,"x_min":50,"x_max":956,"o":"m 344 603 l 344 706 q 335 747 344 733 q 294 760 326 760 q 253 747 263 760 q 244 706 244 733 l 250 661 l 56 661 q 50 713 50 692 q 294 939 50 939 q 539 713 539 939 l 539 603 l 647 603 l 647 932 l 956 932 l 956 769 l 842 769 l 842 0 l 647 0 l 647 439 l 531 439 l 531 288 q 290 75 531 75 q 50 288 50 75 l 50 392 q 290 603 50 603 l 344 603 m 344 294 l 344 439 l 290 439 q 247 425 258 439 q 236 385 236 411 l 236 294 q 247 254 236 268 q 290 240 258 240 q 333 254 322 240 q 344 294 344 268 z "},"म":{"ha":867,"x_min":-56,"x_max":922,"o":"m 618 0 l 618 456 l 515 456 l 515 289 q 275 76 515 76 q 35 289 35 76 l 35 408 q 275 619 35 619 l 329 619 l 329 769 l -56 769 l -56 932 l 922 932 l 922 769 l 808 769 l 808 0 l 618 0 m 515 619 l 618 619 l 618 769 l 515 769 l 515 619 m 329 296 l 329 456 l 275 456 q 232 442 243 456 q 221 401 221 428 l 221 296 q 232 256 221 269 q 275 242 243 242 q 318 256 307 242 q 329 296 329 269 z "},"य":{"ha":732,"x_min":-56,"x_max":788,"o":"m 199 704 q 189 769 199 750 l -56 769 l -56 932 l 788 932 l 788 769 l 674 769 l 674 0 l 479 0 l 479 132 q 364 119 436 119 q 129 187 217 119 q 42 375 42 254 l 42 550 l 75 550 q 173 568 147 550 q 199 638 199 586 l 199 704 m 388 704 l 388 597 q 232 428 388 436 l 232 403 q 375 300 232 300 q 479 311 436 300 l 479 769 l 379 769 q 388 704 388 742 z "},"र":{"ha":608,"x_min":-56,"x_max":663,"o":"m 333 336 q 250 346 306 336 l 250 249 q 378 168 250 168 q 561 204 475 168 l 561 24 q 338 -7 474 -7 q 129 61 203 -7 q 56 242 56 129 l 56 626 l 250 626 l 250 514 q 306 507 275 507 q 347 521 336 507 q 358 561 358 535 l 358 704 q 344 769 358 747 l -56 769 l -56 932 l 663 932 l 663 769 l 544 769 q 553 704 553 747 l 553 558 q 501 392 553 449 q 333 336 449 336 z "},"ऱ":{"ha":619,"x_min":-67,"x_max":675,"o":"m 346 336 q 263 346 318 336 l 263 249 q 390 168 263 168 q 574 204 488 168 l 574 24 q 351 -7 486 -7 q 142 61 215 -7 q 68 242 68 129 l 68 626 l 263 626 l 263 514 q 318 507 288 507 q 360 521 349 507 q 371 561 371 535 l 371 704 q 357 769 371 747 l -56 769 l -56 932 l 675 932 l 675 769 l 557 769 q 565 704 565 747 l 565 558 q 513 392 565 449 q 346 336 461 336 m 35 -237 q -67 -133 -67 -237 q 35 -29 -67 -29 q 139 -133 139 -29 q 35 -237 139 -237 z "},"ल":{"ha":907,"x_min":-56,"x_max":963,"o":"m 49 253 l 49 460 q 111 627 49 568 q 290 686 174 686 q 444 610 406 686 q 588 685 494 685 l 654 678 l 654 769 l -56 769 l -56 932 l 963 932 l 963 769 l 849 769 l 849 0 l 654 0 l 654 500 q 606 507 633 507 q 546 453 546 507 l 546 294 l 351 294 l 351 453 q 340 493 351 479 q 297 507 329 507 q 254 493 265 507 q 243 453 243 479 l 243 261 q 263 200 243 221 q 335 179 283 179 q 424 183 386 179 l 424 6 q 331 0 379 0 q 116 62 183 0 q 49 253 49 124 z "},"ळ":{"ha":867,"x_min":-56,"x_max":922,"o":"m 529 460 l 529 222 q 541 178 529 193 q 586 164 553 164 q 631 178 619 164 q 643 222 643 193 l 643 460 q 631 503 643 489 q 586 518 619 518 q 541 503 553 518 q 529 460 529 489 m 232 460 l 232 222 q 244 178 232 193 q 289 164 256 164 q 334 178 322 164 q 346 222 346 193 l 346 460 q 334 503 346 489 q 289 518 322 518 q 244 503 256 518 q 232 460 232 489 m 818 463 l 818 219 q 765 51 818 108 q 603 -7 713 -7 q 439 56 493 -7 q 282 -7 381 -7 q 49 219 49 -7 l 49 468 q 282 689 49 689 q 439 625 382 689 q 499 669 465 656 l 499 769 l -56 769 l -56 932 l 922 932 l 922 769 l 693 769 l 693 675 q 818 463 818 633 z "},"ऴ":{"ha":867,"x_min":-56,"x_max":922,"o":"m 439 -276 q 387 -276 439 -276 q 335 -172 335 -276 q 439 -68 335 -68 q 543 -172 543 -68 q 439 -276 543 -276 m 529 460 l 529 222 q 541 178 529 193 q 586 164 553 164 q 631 178 619 164 q 643 222 643 193 l 643 460 q 631 503 643 489 q 586 518 619 518 q 541 503 553 518 q 529 460 529 489 m 232 460 l 232 222 q 244 178 232 193 q 289 164 256 164 q 334 178 322 164 q 346 222 346 193 l 346 460 q 334 503 346 489 q 289 518 322 518 q 244 503 256 518 q 232 460 232 489 m 818 463 l 818 219 q 765 51 818 108 q 603 -7 713 -7 q 439 56 493 -7 q 282 -7 381 -7 q 49 219 49 -7 l 49 468 q 282 689 49 689 q 439 625 382 689 q 499 669 465 656 l 499 769 l -56 769 l -56 932 l 922 932 l 922 769 l 693 769 l 693 675 q 818 463 818 633 z "},"व":{"ha":621,"x_min":-56,"x_max":676,"o":"m 311 539 q 238 479 238 539 l 238 297 q 313 236 238 236 q 378 246 351 236 l 378 532 q 311 539 343 539 m 368 769 l -56 769 l -56 932 l 676 932 l 676 769 l 563 769 l 563 0 l 368 0 l 368 82 q 276 72 319 72 q 101 126 153 72 q 49 293 49 181 l 49 481 q 102 647 49 592 q 276 703 156 703 q 368 693 319 703 l 368 769 z "},"श":{"ha":890,"x_min":56,"x_max":946,"o":"m 326 321 q 250 331 286 321 l 250 272 q 363 178 250 178 q 531 214 444 178 l 531 33 q 317 3 443 3 q 123 76 190 3 q 56 265 56 149 l 56 560 l 250 560 l 250 499 q 306 492 275 492 q 347 505 336 492 q 358 544 358 518 l 358 706 q 347 746 358 732 q 304 760 336 760 q 250 701 250 760 q 256 649 250 671 l 61 649 q 56 713 56 688 q 304 939 56 939 q 553 713 553 939 l 553 538 q 326 321 553 321 m 638 932 l 946 932 l 946 769 l 832 769 l 832 0 l 638 0 l 638 932 z "},"ष":{"ha":651,"x_min":-58,"x_max":707,"o":"m -58 932 l 707 932 l 707 769 l 593 769 l 593 0 l 399 0 l 399 172 q 278 158 343 158 q 103 213 157 158 q 49 378 49 268 l 49 769 l -58 769 l -58 932 m 399 769 l 243 769 l 243 685 l 399 550 l 399 769 m 243 386 q 315 331 243 331 q 399 344 356 331 l 399 415 l 243 551 l 243 386 z "},"स":{"ha":892,"x_min":-56,"x_max":947,"o":"m 340 704 q 326 769 340 747 l -56 769 l -56 932 l 947 932 l 947 769 l 833 769 l 833 0 l 639 0 l 639 363 l 479 363 q 315 308 428 308 q 244 315 276 308 l 244 249 q 372 168 244 168 q 540 204 454 168 l 540 24 q 325 -7 453 -7 q 124 61 197 -7 q 50 242 50 129 l 50 626 l 244 626 l 244 485 q 292 479 267 479 q 340 533 340 479 l 340 704 m 639 529 l 639 769 l 522 769 q 531 704 531 747 l 531 529 l 639 529 z "},"ह":{"ha":622,"x_min":-56,"x_max":678,"o":"m 53 219 l 53 243 q 113 378 53 338 q 51 499 53 413 l 51 524 q 108 663 51 621 q 286 706 165 706 l 351 706 l 351 769 l -56 769 l -56 932 l 678 932 l 678 769 l 546 769 l 546 539 l 286 539 q 246 507 246 539 l 246 496 q 286 464 246 464 l 388 464 q 536 417 492 464 q 581 274 581 371 l 581 231 l 410 231 l 410 256 q 400 294 410 283 q 363 304 390 304 l 301 304 q 258 290 269 304 q 247 250 247 276 l 247 232 q 367 158 247 158 q 560 186 468 158 l 560 18 q 335 -10 461 -10 q 131 49 210 -10 q 53 219 53 107 z "},"़":{"ha":0,"x_min":-387,"x_max":-179,"o":"m -283 -276 q -335 -276 -283 -276 q -387 -172 -387 -276 q -283 -68 -387 -68 q -179 -172 -179 -68 q -283 -276 -179 -276 z "},"ऽ":{"ha":585,"x_min":31,"x_max":550,"o":"m 550 263 l 550 233 q 304 -7 550 -7 l 279 -7 q 31 233 31 -7 l 31 310 l 225 310 l 225 226 q 286 174 225 174 l 294 174 q 356 226 356 174 l 356 267 q 345 320 356 301 q 306 360 335 339 l 132 483 q 32 674 32 556 l 32 710 q 86 876 32 821 q 265 932 140 932 l 515 932 l 515 751 l 281 751 q 238 738 249 751 q 226 699 226 724 l 226 683 q 238 637 226 654 q 278 599 249 619 l 446 479 q 530 387 510 433 q 550 263 550 340 z "},"ा":{"ha":311,"x_min":-56,"x_max":367,"o":"m 58 769 l -56 769 l -56 932 l 367 932 l 367 769 l 253 769 l 253 0 l 58 0 l 58 769 z "},"ि":{"ha":311,"x_min":-56,"x_max":822,"o":"m 63 932 l 63 954 q 158 1180 63 1106 q 419 1254 253 1254 q 623 1238 522 1254 q 822 1192 724 1222 l 822 1019 q 436 1075 625 1075 q 296 1047 335 1075 q 257 950 257 1019 l 257 932 l 367 932 l 367 769 l 253 769 l 253 0 l 58 0 l 58 769 l -56 769 l -56 932 l 63 932 z "},"ी":{"ha":311,"x_min":-254,"x_max":367,"o":"m 58 932 l 58 1029 q -1 1083 58 1083 q -61 1029 -61 1083 l -61 1004 l -254 1004 l -254 1032 q -187 1202 -254 1146 q 0 1258 -121 1258 q 187 1202 121 1258 q 253 1032 253 1146 l 253 932 l 367 932 l 367 769 l 253 769 l 253 0 l 58 0 l 58 769 l -56 769 l -56 932 l 58 932 z "},"ु":{"ha":0,"x_min":-665,"x_max":24,"o":"m -146 -167 q -146 -155 -146 -167 q -159 -132 -146 -142 q -219 -122 -172 -122 q -317 -133 -267 -122 l -317 17 q -174 28 -268 28 q -28 -17 -81 28 q 24 -165 24 -62 q -21 -314 24 -268 q -164 -360 -65 -360 l -293 -360 q -424 -333 -369 -360 q -537 -231 -479 -307 l -665 -62 l -453 -62 l -392 -140 q -334 -199 -356 -186 q -268 -212 -312 -212 l -203 -212 q -159 -203 -172 -212 q -146 -167 -146 -193 z "},"ू":{"ha":0,"x_min":-393,"x_max":285,"o":"m -178 -374 q -338 -328 -283 -374 q -393 -181 -393 -283 q -349 -32 -393 -78 q -206 14 -304 14 l -122 14 q 10 -14 -47 14 q 125 -119 68 -42 l 285 -337 l 78 -337 l -24 -206 q -81 -147 -60 -160 q -147 -133 -103 -133 l -167 -133 q -210 -143 -197 -133 q -224 -179 -224 -153 q -164 -224 -224 -224 q -76 -217 -125 -224 l -76 -367 q -178 -374 -132 -374 z "},"ृ":{"ha":0,"x_min":-464,"x_max":-57,"o":"m -58 -189 q -203 -176 -133 -176 q -272 -232 -272 -176 q -201 -287 -272 -287 q -57 -275 -151 -287 l -57 -451 q -204 -465 -126 -465 q -398 -405 -332 -465 q -464 -232 -464 -344 q -398 -59 -464 -119 q -204 1 -332 1 q -58 -12 -150 1 l -58 -189 z "},"ॄ":{"ha":0,"x_min":-461,"x_max":-57,"o":"m -265 -444 l -265 -450 q -250 -481 -265 -474 q -174 -487 -235 -487 q -57 -481 -112 -487 l -57 -656 q -208 -665 -117 -665 q -460 -446 -460 -665 q -425 -328 -460 -371 q -461 -207 -461 -283 q -401 -50 -461 -100 q -212 0 -340 0 q -60 -7 -136 0 l -60 -172 q -185 -165 -143 -165 q -238 -167 -228 -165 q -258 -178 -249 -168 q -267 -206 -267 -187 l -267 -208 q -254 -242 -267 -235 q -212 -249 -242 -249 l -100 -249 l -100 -404 l -211 -404 q -240 -406 -231 -404 q -258 -417 -250 -407 q -265 -444 -265 -426 z "},"ॅ":{"ha":0,"x_min":-447,"x_max":136,"o":"m -57 1258 l 136 1258 l 136 1251 q -156 1019 136 1019 q -447 1251 -447 1019 l -447 1258 l -253 1258 q -230 1204 -253 1221 q -154 1188 -207 1188 q -57 1258 -57 1188 z "},"ॆ":{"ha":0,"x_min":-625,"x_max":-58,"o":"m -251 932 q -271 994 -251 975 q -346 1014 -290 1014 q -560 1065 -494 1014 q -625 1251 -625 1117 l -431 1251 q -411 1190 -431 1208 q -335 1171 -392 1171 q -124 1115 -190 1171 q -58 932 -58 1060 l -251 932 z "},"े":{"ha":0,"x_min":-469,"x_max":-58,"o":"m -469 1247 q -387 1251 -437 1251 q -286 1226 -336 1251 q -189 1129 -236 1200 l -58 932 l -256 932 l -328 1032 q -433 1090 -369 1090 q -469 1089 -456 1090 l -469 1247 z "},"ै":{"ha":0,"x_min":-653,"x_max":-58,"o":"m -285 1251 q -115 1114 -158 1251 l -58 932 l -224 932 l -260 1032 q -283 1076 -271 1064 q -310 1089 -294 1089 q -332 1088 -325 1089 l -332 1247 q -285 1251 -307 1251 m -590 1251 q -479 1219 -526 1251 q -376 1114 -432 1188 l -240 932 l -429 932 l -511 1032 q -617 1090 -560 1090 q -653 1089 -639 1090 l -653 1247 q -590 1251 -621 1251 z "},"ॉ":{"ha":311,"x_min":-128,"x_max":454,"o":"m 260 1251 l 454 1251 l 454 1244 q 163 1013 454 1013 q -128 1244 -128 1013 l -128 1251 l 65 1251 q 88 1197 65 1214 q 163 1181 111 1181 q 260 1251 260 1181 m 58 769 l -56 769 l -56 932 l 367 932 l 367 769 l 253 769 l 253 0 l 58 0 l 58 769 z "},"ॊ":{"ha":311,"x_min":-312,"x_max":367,"o":"m 58 769 l -56 769 l -56 932 l 58 932 q 40 994 58 975 q -35 1014 21 1014 q -248 1065 -183 1014 q -312 1251 -312 1117 l -119 1251 q -100 1190 -119 1208 q -24 1171 -81 1171 q 187 1115 121 1171 q 253 932 253 1058 l 367 932 l 367 769 l 253 769 l 253 0 l 58 0 l 58 769 z "},"ो":{"ha":311,"x_min":-158,"x_max":367,"o":"m 367 932 l 367 769 l 253 769 l 253 0 l 58 0 l 58 769 l -56 769 l -56 932 l 56 932 l -17 1032 q -122 1090 -58 1090 q -158 1089 -144 1090 l -158 1247 q -76 1251 -128 1251 q 25 1226 -25 1251 q 122 1129 75 1200 l 253 932 l 367 932 z "},"ौ":{"ha":311,"x_min":-350,"x_max":367,"o":"m 367 932 l 367 769 l 253 769 l 253 0 l 58 0 l 58 769 l -189 769 l -189 932 l -126 932 l -208 1032 q -314 1090 -257 1090 q -350 1089 -336 1090 l -350 1247 q -287 1251 -319 1251 q -176 1219 -224 1251 q -74 1114 -129 1188 l 63 932 l 79 932 l 43 1032 q 20 1076 32 1064 q -7 1089 8 1089 q -29 1088 -22 1089 l -29 1247 q 18 1251 -4 1251 q 188 1114 144 1251 l 244 932 l 367 932 z "},"्":{"ha":0,"x_min":-239,"x_max":115,"o":"m 115 -318 l -85 -318 l -239 -81 l -64 -81 l 115 -318 z "},"ॐ":{"ha":1149,"x_min":58,"x_max":1072,"o":"m 592 429 l 592 713 q 832 939 592 939 q 1072 715 1072 939 l 1072 258 q 999 59 1072 125 q 774 -7 926 -7 q 635 8 701 -7 l 635 185 q 768 172 699 172 q 861 194 838 172 q 885 274 885 217 l 885 706 q 874 747 885 733 q 832 760 864 760 q 790 747 800 760 q 779 706 779 733 l 779 351 q 764 283 779 304 q 699 263 749 263 l 494 263 l 494 231 q 424 54 493 115 q 203 -7 356 -7 q 58 11 110 -7 l 58 188 q 191 169 125 169 q 280 185 257 169 q 304 239 303 201 l 304 311 q 231 379 304 379 l 149 379 l 149 558 l 231 558 q 287 574 269 558 q 304 622 304 589 l 304 693 q 281 747 304 731 q 199 763 258 763 q 78 746 139 763 l 78 922 q 204 939 126 939 q 494 701 494 939 l 494 622 q 435 469 494 511 q 469 429 457 454 l 592 429 m 828 1182 l 828 1175 q 535 943 828 943 q 243 1175 243 943 l 243 1182 l 438 1182 q 460 1128 438 1144 q 536 1111 483 1111 q 633 1182 633 1111 l 828 1182 m 633 1285 q 633 1236 633 1285 q 536 1188 633 1188 q 439 1285 439 1188 q 536 1382 439 1382 q 633 1285 633 1382 z "},"॑":{"ha":0,"x_min":-253,"x_max":-58,"o":"m -253 1363 l -58 1363 l -58 1001 l -253 1001 l -253 1363 z "},"॒":{"ha":0,"x_min":-696,"x_max":-75,"o":"m -75 -276 l -696 -276 l -696 -112 l -75 -112 l -75 -276 z "},"॓":{"ha":468,"x_min":35,"x_max":421,"o":"m 35 1363 l 240 1363 l 421 1001 l 215 1001 l 35 1363 z "},"॔":{"ha":465,"x_min":35,"x_max":421,"o":"m 215 1363 l 421 1363 l 240 1001 l 35 1001 l 215 1363 z "},"क़":{"ha":875,"x_min":-56,"x_max":932,"o":"m 189 -181 q 137 -181 189 -181 q 85 -76 85 -181 q 189 28 85 28 q 293 -76 293 28 q 189 -181 293 -181 m 226 289 q 239 245 226 260 q 283 231 251 231 q 343 242 315 231 l 343 769 l -56 769 l -56 932 l 932 932 l 932 769 l 532 769 l 532 694 q 617 701 569 701 q 781 647 729 701 q 833 483 833 593 l 833 299 q 785 135 833 188 q 622 82 736 82 l 593 85 l 593 267 q 640 274 631 261 q 649 318 649 288 l 649 476 q 636 520 649 506 q 590 535 624 535 l 532 528 l 532 0 l 342 0 l 342 82 q 258 71 303 71 q 93 122 144 71 q 42 281 42 172 l 42 483 q 94 647 42 593 q 258 701 146 701 l 299 697 l 299 533 q 272 535 292 535 q 239 520 251 535 q 226 476 226 506 l 226 289 z "},"ख़":{"ha":1106,"x_min":-56,"x_max":1161,"o":"m 340 704 q 326 769 340 747 l -56 769 l -56 932 l 1161 932 l 1161 769 l 1047 769 l 1047 0 l 858 0 l 858 146 q 786 138 833 138 q 614 190 663 138 q 565 356 565 243 l 565 464 q 610 634 565 579 q 776 689 656 689 l 858 682 l 858 769 l 511 769 q 519 704 519 747 l 519 536 q 467 370 519 426 q 300 314 415 314 q 238 319 279 314 l 238 271 q 267 194 238 221 q 378 168 297 168 q 536 200 460 168 l 536 19 q 353 -7 461 -7 q 126 68 199 -7 q 53 268 53 143 l 53 626 l 238 626 l 238 488 q 294 485 271 485 q 340 539 340 485 l 340 704 m 803 521 q 739 465 739 521 l 739 356 q 803 300 739 300 l 858 307 l 858 514 q 803 521 835 521 m 69 6 q 174 -99 174 6 q 69 -203 174 -203 q -32 -99 -32 -203 q 69 6 -32 6 z "},"ग़":{"ha":697,"x_min":-44,"x_max":751,"o":"m 751 932 l 751 769 l 639 769 l 639 0 l 444 0 l 444 769 l 336 769 l 336 465 q 274 291 336 349 q 101 233 211 233 l 25 238 l 25 425 q 72 422 50 422 q 142 482 142 422 l 142 769 l -44 769 l -44 932 l 751 932 m 72 47 q 72 99 72 47 q 176 151 72 151 q 281 47 281 151 q 176 -57 281 -57 q 72 47 72 -57 z "},"ज़":{"ha":825,"x_min":-56,"x_max":879,"o":"m 278 438 q 263 503 278 478 l 125 503 l 125 682 l 572 682 l 572 769 l -56 769 l -56 932 l 879 932 l 879 769 l 767 769 l 767 0 l 572 0 l 572 515 l 460 515 q 472 450 472 492 l 472 308 q 401 127 472 188 q 196 67 329 67 q 74 81 131 67 l 74 256 q 188 243 133 243 q 278 315 278 243 l 278 438 m 89 -193 q 37 -193 89 -193 q -15 -89 -15 -193 q 90 15 -15 15 q 193 -89 193 15 q 89 -193 193 -193 z "},"ड़":{"ha":597,"x_min":-56,"x_max":651,"o":"m 525 533 l 283 533 q 243 490 243 533 l 243 476 q 283 433 243 433 l 318 433 q 506 383 446 433 q 567 226 567 333 l 567 217 q 494 42 567 99 q 269 -15 421 -15 q 71 8 178 -15 l 71 185 q 254 161 186 161 q 347 173 322 161 q 372 221 372 185 q 318 271 372 271 l 283 271 q 108 317 167 271 q 49 467 49 363 l 49 503 q 106 654 49 608 q 283 700 163 700 l 331 700 l 331 769 l -56 769 l -56 932 l 651 932 l 651 769 l 525 769 l 525 533 m 208 -172 q 208 -120 208 -172 q 313 -68 208 -68 q 417 -172 417 -68 q 313 -276 417 -276 q 208 -172 208 -276 z "},"ढ़":{"ha":604,"x_min":-56,"x_max":658,"o":"m 313 -276 q 260 -276 313 -276 q 208 -172 208 -276 q 313 -68 208 -68 q 417 -172 417 -68 q 313 -276 417 -276 m 367 276 q 361 281 367 276 q 332 286 356 286 q 292 275 308 286 l 292 446 q 358 457 318 457 q 514 408 464 457 q 564 246 564 360 l 564 225 q 503 49 564 106 q 308 -7 442 -7 q 47 232 47 -7 l 47 472 q 104 642 47 590 q 290 693 161 693 l 340 693 l 340 769 l -56 769 l -56 932 l 658 932 l 658 769 l 532 769 l 532 517 l 290 517 q 249 505 258 517 q 239 465 239 493 l 239 239 q 253 188 239 204 q 308 171 267 171 q 364 186 350 171 q 378 236 378 201 l 378 239 q 367 276 378 267 z "},"फ़":{"ha":911,"x_min":-56,"x_max":967,"o":"m 372 769 l 264 769 l 264 367 q 326 311 264 311 q 372 317 353 311 l 372 769 m 617 517 q 567 508 592 517 l 567 0 l 372 0 l 372 147 q 293 139 331 139 q 122 193 174 139 q 69 358 69 247 l 69 769 l -56 769 l -56 932 l 967 932 l 967 769 l 567 769 l 567 685 q 644 696 597 696 q 869 469 869 696 l 869 297 q 817 134 869 188 q 649 81 764 81 q 625 82 633 81 l 625 263 q 665 274 656 263 q 675 317 675 285 l 675 463 q 617 517 675 517 m 133 -137 q 81 -137 133 -137 q 29 -33 29 -137 q 133 71 29 71 q 238 -33 238 71 q 133 -137 238 -137 z "},"य़":{"ha":743,"x_min":-56,"x_max":799,"o":"m 210 704 q 200 769 210 750 l -56 769 l -56 932 l 799 932 l 799 769 l 685 769 l 685 0 l 490 0 l 490 132 q 375 119 447 119 q 140 187 228 119 q 53 375 53 254 l 53 550 l 86 550 q 184 568 158 550 q 210 638 210 586 l 210 704 m 399 704 l 399 597 q 243 428 399 436 l 243 403 q 386 300 243 300 q 490 311 447 300 l 490 769 l 390 769 q 399 704 399 742 m 75 -93 q -26 11 -26 -93 q 75 115 -26 115 q 179 11 179 115 q 75 -93 179 -93 z "},"ॠ":{"ha":1076,"x_min":-56,"x_max":1131,"o":"m 1131 769 l 622 769 l 622 613 q 756 599 696 599 q 832 664 832 599 l 832 682 l 1021 682 l 1021 226 l 929 226 q 886 200 890 226 q 883 171 883 189 q 885 142 883 153 q 898 123 888 132 q 929 114 908 114 l 994 114 l 994 -47 l 932 -47 q 894 -58 906 -47 q 883 -102 883 -69 q 899 -147 883 -135 q 958 -158 915 -158 q 1056 -149 1001 -158 l 1056 -314 q 938 -324 992 -324 q 690 -128 690 -324 q 739 21 690 -32 q 694 161 694 68 q 842 346 694 331 l 842 436 q 759 419 808 419 q 622 433 710 419 l 622 0 l 440 0 l 440 36 q 454 240 440 157 l 451 240 q 351 89 415 161 l 276 0 l 36 0 l 35 6 l 428 429 l 428 496 q 324 510 379 510 q 244 489 268 510 q 221 424 221 468 l 221 336 l 35 336 l 35 438 q 98 624 35 560 q 303 689 161 689 q 428 675 372 689 l 428 769 l -56 769 l -56 932 l 1131 932 l 1131 769 z "},"ॡ":{"ha":907,"x_min":-56,"x_max":963,"o":"m 849 172 l 696 172 q 667 169 676 172 q 642 134 642 165 q 654 96 642 103 q 696 89 667 89 l 808 89 l 808 -76 l 697 -76 q 668 -78 678 -76 q 643 -115 643 -83 q 658 -153 643 -146 q 735 -160 674 -160 q 851 -153 796 -160 l 851 -328 q 700 -337 792 -337 q 449 -118 449 -337 q 486 6 449 -40 q 447 139 447 50 q 654 336 447 322 l 654 500 q 606 507 633 507 q 546 453 546 507 l 546 364 l 351 364 l 351 453 q 340 493 351 479 q 297 507 329 507 q 254 493 265 507 q 243 453 243 479 l 243 261 q 263 200 243 221 q 342 179 283 179 l 363 179 l 363 0 l 331 0 q 116 62 183 0 q 49 253 49 124 l 49 460 q 111 627 49 568 q 290 686 174 686 q 444 610 406 686 q 588 685 494 685 l 654 678 l 654 769 l -56 769 l -56 932 l 963 932 l 963 769 l 849 769 l 849 172 z "},"।":{"ha":447,"x_min":194,"x_max":389,"o":"m 194 0 l 194 932 l 389 932 l 389 0 l 194 0 z "},"॥":{"ha":614,"x_min":58,"x_max":556,"o":"m 361 0 l 361 932 l 556 932 l 556 0 l 361 0 m 58 0 l 58 932 l 253 932 l 253 0 l 58 0 z "},"०":{"ha":651,"x_min":49,"x_max":603,"o":"m 394 719 q 380 772 394 754 q 325 789 365 789 q 271 772 285 789 q 257 719 257 756 l 257 243 q 271 191 257 208 q 325 174 285 174 q 380 191 365 174 q 394 243 394 208 l 394 719 m 49 728 q 116 910 49 844 q 325 976 183 976 q 535 910 467 976 q 603 728 603 843 l 603 235 q 535 53 603 119 q 325 -14 467 -14 q 116 52 183 -14 q 49 235 49 118 l 49 728 z "},"१":{"ha":446,"x_min":21,"x_max":383,"o":"m 383 963 l 383 0 l 172 0 l 172 710 l 21 599 l 21 828 l 203 963 l 383 963 z "},"२":{"ha":614,"x_min":49,"x_max":565,"o":"m 264 969 q 565 736 565 969 l 565 654 q 463 443 565 519 l 338 338 q 273 271 285 293 q 261 201 261 249 l 261 183 l 553 183 l 553 0 l 49 0 l 49 226 q 164 453 49 364 l 303 572 q 344 620 333 596 q 354 690 354 644 l 354 710 q 334 759 354 742 q 261 776 314 776 q 68 739 156 776 l 68 939 q 264 969 151 969 z "},"३":{"ha":585,"x_min":35,"x_max":536,"o":"m 226 971 q 457 910 381 971 q 533 738 533 849 l 533 642 q 508 543 533 582 q 439 493 482 504 q 536 358 536 483 l 536 225 q 461 53 536 114 q 245 -8 386 -8 q 35 21 104 -8 l 35 218 q 223 182 119 182 q 326 249 326 182 l 326 329 q 311 374 326 363 q 256 386 296 386 l 147 386 l 147 581 l 253 581 q 324 649 324 581 l 324 714 q 223 781 324 781 q 57 756 122 781 l 57 951 q 226 971 115 971 z "},"४":{"ha":643,"x_min":14,"x_max":636,"o":"m 636 344 l 636 163 l 546 163 l 546 0 l 350 0 l 350 163 l 14 163 l 14 356 l 281 963 l 546 963 l 546 344 l 636 344 m 358 344 l 358 740 l 190 344 l 358 344 z "},"५":{"ha":613,"x_min":56,"x_max":568,"o":"m 358 363 q 296 422 358 422 q 63 410 269 422 l 63 963 l 536 963 l 536 768 l 269 768 l 269 606 q 344 607 293 607 q 509 553 450 607 q 568 394 568 500 l 568 225 q 268 -8 568 -8 q 56 24 156 -8 l 56 218 q 265 182 171 182 q 358 249 358 182 l 358 363 z "},"६":{"ha":644,"x_min":49,"x_max":603,"o":"m 326 454 q 257 446 290 454 l 257 239 q 271 187 257 204 q 325 169 285 169 q 380 187 365 169 q 394 239 394 204 l 394 392 q 326 454 394 454 m 49 708 q 122 898 49 826 q 357 969 196 969 q 554 940 485 969 l 554 743 q 367 776 476 776 q 257 685 257 776 l 257 621 q 371 633 294 633 q 543 575 483 633 q 603 413 603 517 l 603 235 q 535 53 603 119 q 325 -14 467 -14 q 116 52 183 -14 q 49 235 49 118 l 49 708 z "},"७":{"ha":536,"x_min":7,"x_max":515,"o":"m 7 963 l 515 963 l 515 794 l 394 432 q 351 144 351 306 l 351 0 l 140 0 l 140 163 q 186 467 140 344 l 281 769 l 7 769 l 7 963 z "},"८":{"ha":660,"x_min":49,"x_max":611,"o":"m 611 733 l 611 636 q 547 481 611 531 q 611 324 611 429 l 611 229 q 542 51 611 115 q 330 -14 472 -14 q 118 50 188 -14 q 49 229 49 114 l 49 324 q 113 481 49 429 q 49 636 49 531 l 49 733 q 118 913 49 849 q 330 976 188 976 q 542 912 472 976 q 611 733 611 847 m 254 731 l 254 629 q 330 560 254 560 q 406 629 406 560 l 406 731 q 329 797 406 797 q 271 781 288 797 q 254 731 254 764 m 406 232 l 406 331 q 330 400 406 400 q 254 331 254 400 l 254 232 q 330 165 254 165 q 406 232 406 165 z "},"९":{"ha":644,"x_min":42,"x_max":596,"o":"m 315 494 q 388 507 356 494 l 388 724 q 374 776 388 758 q 319 793 360 793 q 265 776 279 793 q 250 724 250 758 l 250 563 q 315 494 250 494 m 42 728 q 110 910 42 843 q 319 976 178 976 q 528 910 461 976 q 596 728 596 844 l 596 226 q 519 54 596 115 q 294 -7 442 -7 q 78 22 147 -7 l 78 219 q 275 183 163 183 q 388 250 388 183 l 388 332 q 249 315 346 315 q 97 374 151 315 q 42 538 42 432 l 42 728 z "},"॰":{"ha":611,"x_min":58,"x_max":551,"o":"m 304 540 q 284 540 304 540 q 247 519 264 540 q 231 451 231 499 q 247 382 231 403 q 305 361 264 361 q 363 382 346 361 q 379 450 379 403 q 362 519 379 497 q 304 540 344 540 m 304 204 q 241 204 304 204 q 118 269 178 204 q 58 451 58 335 q 118 632 58 567 q 304 697 178 697 q 491 631 431 697 q 551 450 551 565 q 491 269 551 335 q 304 204 431 204 z "},"ॲ":{"ha":844,"x_min":58,"x_max":983,"o":"m 790 1258 l 983 1258 l 983 1251 q 692 1019 983 1019 q 400 1251 400 1019 l 400 1258 l 594 1258 q 617 1204 594 1221 q 693 1188 640 1188 q 790 1258 790 1188 m 592 463 l 592 932 l 900 932 l 900 769 l 786 769 l 786 0 l 592 0 l 592 296 l 494 296 l 494 288 q 424 111 493 172 q 203 50 356 50 q 58 68 110 50 l 58 244 q 191 226 125 226 q 280 242 257 226 q 304 296 303 258 l 304 353 q 231 421 304 421 l 149 421 l 149 600 l 231 600 q 287 615 269 600 q 304 664 304 631 l 304 693 q 281 747 304 731 q 199 763 258 763 q 78 746 139 763 l 78 922 q 204 939 126 939 q 494 701 494 939 l 494 664 q 435 511 494 553 q 474 463 458 496 l 592 463 z "},"ॽ":{"ha":642,"x_min":57,"x_max":582,"o":"m 57 640 l 57 783 q 123 951 57 893 q 319 1010 189 1010 q 516 951 450 1010 q 582 783 582 893 l 582 486 q 539 324 582 375 q 390 263 496 272 l 390 0 l 210 0 l 210 433 l 319 433 q 373 450 358 435 q 388 500 388 465 l 388 776 q 319 829 388 829 q 251 776 251 829 l 251 640 l 57 640 z "},"​":{"ha":0,"x_min":0,"x_max":0,"o":""},"‌":{"ha":0,"x_min":-32,"x_max":33,"o":"m 33 -319 l -32 -319 l -32 1126 l 33 1126 l 33 -319 z "},"‍":{"ha":0,"x_min":-176,"x_max":179,"o":"m 33 -319 l -32 -319 l -32 882 l -128 781 l -174 826 l -44 956 l -176 1088 l -131 1133 l 1 1001 l 135 1133 l 179 1089 l 46 956 l 179 824 l 133 778 l 33 882 l 33 -319 z "},"–":{"ha":868,"x_min":57,"x_max":788,"o":"m 57 551 l 788 551 l 788 371 l 57 371 l 57 551 z "},"—":{"ha":1201,"x_min":57,"x_max":1135,"o":"m 57 551 l 1135 551 l 1135 371 l 57 371 l 57 551 z "},"‘":{"ha":285,"x_min":35,"x_max":250,"o":"m 119 674 q 35 753 35 674 q 76 882 35 806 q 161 1018 117 958 l 250 1018 l 192 674 l 119 674 z "},"’":{"ha":285,"x_min":35,"x_max":250,"o":"m 165 1018 q 250 939 250 1018 q 209 810 250 886 q 124 674 168 733 l 35 674 l 93 1018 l 165 1018 z "},"‚":{"ha":285,"x_min":35,"x_max":250,"o":"m 165 201 q 250 122 250 201 q 209 -7 250 69 q 124 -143 168 -83 l 35 -143 l 93 201 l 165 201 z "},"“":{"ha":513,"x_min":35,"x_max":478,"o":"m 119 674 q 35 753 35 674 q 76 882 35 806 q 161 1018 117 958 l 242 1018 l 183 674 l 119 674 m 356 674 q 271 753 271 674 q 312 882 271 806 q 397 1018 353 958 l 478 1018 l 419 674 l 356 674 z "},"”":{"ha":513,"x_min":35,"x_max":478,"o":"m 157 1018 q 242 939 242 1018 q 201 810 242 886 q 115 674 160 733 l 35 674 l 93 1018 l 157 1018 m 393 1018 q 478 939 478 1018 q 437 810 478 886 q 351 674 396 733 l 271 674 l 329 1018 l 393 1018 z "},"„":{"ha":513,"x_min":35,"x_max":478,"o":"m 157 201 q 242 122 242 201 q 201 -7 242 69 q 115 -143 160 -83 l 35 -143 l 93 201 l 157 201 m 393 201 q 478 122 478 201 q 437 -7 478 69 q 351 -143 396 -83 l 271 -143 l 329 201 l 393 201 z "},"†":{"ha":542,"x_min":26,"x_max":521,"o":"m 176 1157 l 371 1157 q 357 918 371 1057 q 521 932 431 932 l 521 769 q 357 783 440 769 q 371 504 371 656 l 371 -42 l 176 -42 l 176 504 q 190 783 176 639 q 26 769 117 769 l 26 932 q 190 918 107 932 q 176 1157 176 1044 z "},"‡":{"ha":543,"x_min":25,"x_max":519,"o":"m 175 1157 l 369 1157 q 356 918 369 1057 q 519 932 429 932 l 519 769 q 356 783 439 769 q 358 561 358 718 q 356 332 358 404 q 519 346 429 346 l 519 183 q 356 197 439 183 q 369 -42 369 118 l 175 -42 q 189 197 175 100 q 25 183 115 183 l 25 346 q 189 332 106 346 q 186 560 186 404 q 189 783 186 717 q 25 769 115 769 l 25 932 q 189 918 106 932 q 175 1157 175 1044 z "},"•":{"ha":350,"x_min":33,"x_max":311,"o":"m 172 331 q 103 331 172 331 q 33 469 33 331 q 172 608 33 608 q 311 469 311 608 q 172 331 311 331 z "},"…":{"ha":1025,"x_min":44,"x_max":936,"o":"m 490 -7 q 438 -7 490 -7 q 386 97 386 -7 q 490 201 386 201 q 594 97 594 201 q 490 -7 594 -7 m 149 -7 q 97 -7 149 -7 q 44 97 44 -7 q 149 201 44 201 q 253 97 253 201 q 149 -7 253 -7 m 832 -7 q 780 -7 832 -7 q 728 97 728 -7 q 832 201 728 201 q 936 97 936 201 q 832 -7 936 -7 z "},"‰":{"ha":1444,"x_min":49,"x_max":1399,"o":"m 1399 231 q 1399 111 1399 231 q 1199 -8 1399 -8 q 999 231 999 -8 q 1199 469 999 469 q 1399 231 1399 469 m 1139 231 q 1139 176 1139 231 q 1197 122 1139 122 q 1256 231 1256 122 q 1197 339 1256 339 q 1139 231 1139 339 m 953 231 q 953 111 953 231 q 753 -8 953 -8 q 553 231 553 -8 q 753 469 553 469 q 953 231 953 469 m 693 231 q 693 176 693 231 q 751 122 693 122 q 810 231 810 122 q 751 339 810 339 q 693 231 693 339 m 449 732 q 449 613 449 732 q 249 493 449 493 q 49 732 49 493 q 249 971 49 971 q 449 732 449 971 m 189 732 q 189 678 189 732 q 247 624 189 624 q 306 732 306 624 q 247 840 306 840 q 189 732 189 840 m 656 963 l 794 963 l 346 0 l 207 0 l 656 963 z "},"‹":{"ha":700,"x_min":158,"x_max":535,"o":"m 326 701 l 535 701 l 365 447 l 535 193 l 326 193 l 158 447 l 326 701 z "},"›":{"ha":656,"x_min":158,"x_max":535,"o":"m 158 701 l 367 701 l 535 447 l 367 193 l 158 193 l 328 447 l 158 701 z "},"⁄":{"ha":476,"x_min":-107,"x_max":585,"o":"m 453 963 l 585 963 l 25 0 l -107 0 l 453 963 z "},"⁴":{"ha":444,"x_min":31,"x_max":440,"o":"m 251 622 l 251 911 l 151 622 l 251 622 m 382 1024 l 382 622 l 440 622 l 440 506 l 382 506 l 382 400 l 251 400 l 251 506 l 31 506 l 31 629 l 178 1024 l 382 1024 z "},"€":{"ha":656,"x_min":28,"x_max":589,"o":"m 311 321 l 311 247 q 416 181 311 181 q 589 201 521 181 l 589 14 q 407 -7 514 -7 q 176 54 251 -7 q 100 226 100 115 l 100 321 l 28 321 l 28 457 l 100 457 l 100 513 l 28 513 l 28 649 l 100 649 l 100 735 q 177 908 100 846 q 410 969 254 969 q 585 950 511 969 l 585 758 q 431 782 507 782 q 333 765 356 782 q 311 714 311 747 l 311 649 l 450 649 l 450 513 l 311 513 l 311 457 l 450 457 l 450 321 l 311 321 z "},"₹":{"ha":688,"x_min":63,"x_max":642,"o":"m 539 560 l 539 542 q 481 383 539 433 q 296 332 424 332 l 281 332 l 553 0 l 325 0 l 64 329 l 64 490 l 289 490 q 350 549 350 490 l 350 560 l 64 560 l 64 700 l 350 700 l 350 715 q 339 756 350 742 q 296 769 328 769 l 63 769 l 63 932 l 640 932 l 640 769 l 521 769 q 539 708 539 749 l 539 700 l 642 700 l 642 560 l 539 560 z "},"ℓ":{"ha":738,"x_min":29,"x_max":679,"o":"m 408 174 q 488 193 451 174 l 488 10 q 364 -12 440 -12 q 198 42 247 -12 q 147 199 149 96 l 29 169 l 29 378 q 147 413 81 388 l 147 786 q 210 980 147 908 q 404 1051 272 1051 q 608 976 536 1051 q 679 761 679 901 q 351 282 679 457 l 351 224 q 408 174 351 174 m 351 788 l 351 525 q 474 763 474 628 q 410 861 474 861 q 351 788 351 861 z "},"™":{"ha":903,"x_min":132,"x_max":844,"o":"m 844 1001 l 844 622 l 751 622 l 751 840 l 772 988 l 686 622 l 604 622 l 518 988 l 539 840 l 539 622 l 446 622 l 446 1001 l 599 1001 l 638 790 l 646 731 l 653 790 l 692 1001 l 844 1001 m 132 925 l 132 1001 l 417 1001 l 417 925 l 326 925 l 326 622 l 225 622 l 225 925 l 132 925 z "},"Ω":{"ha":833,"x_min":74,"x_max":763,"o":"m 126 728 q 201 909 126 842 q 418 976 275 976 q 635 909 561 976 q 710 728 710 842 l 710 276 q 685 181 710 208 l 763 181 l 763 0 l 457 0 l 457 174 q 501 246 501 188 l 501 717 q 418 786 501 786 q 335 717 335 786 l 335 246 q 379 174 335 188 l 379 0 l 74 0 l 74 181 l 151 181 q 126 276 126 208 l 126 728 z "},"℮":{"ha":958,"x_min":90,"x_max":878,"o":"m 661 642 q 499 693 613 693 q 329 635 385 693 l 329 468 l 661 468 l 661 642 m 501 -14 q 201 100 313 -14 q 90 390 90 214 q 202 683 90 565 q 490 800 314 800 q 772 699 665 800 q 878 428 878 599 q 875 365 878 392 l 329 365 l 329 156 q 506 100 393 100 q 767 233 683 100 l 861 172 q 501 -14 747 -14 z "},"∂":{"ha":629,"x_min":56,"x_max":581,"o":"m 318 490 q 256 436 256 490 l 256 229 q 318 174 256 174 q 381 226 381 174 l 381 481 q 318 490 354 490 m 581 431 l 581 222 q 514 53 581 113 q 317 -7 447 -7 q 122 52 188 -7 q 56 221 56 111 l 56 443 q 103 595 56 544 q 251 646 150 646 q 357 593 328 646 q 131 963 311 756 l 365 963 q 517 721 454 861 q 581 431 581 581 z "},"∆":{"ha":674,"x_min":63,"x_max":649,"o":"m 468 963 l 649 0 l 63 0 l 243 963 l 468 963 m 274 185 l 438 185 l 356 694 l 274 185 z "},"∏":{"ha":711,"x_min":63,"x_max":649,"o":"m 63 963 l 649 963 l 649 0 l 438 0 l 438 778 l 274 778 l 274 0 l 63 0 l 63 963 z "},"∑":{"ha":590,"x_min":33,"x_max":557,"o":"m 33 963 l 557 963 l 557 786 l 260 786 l 408 482 l 260 176 l 557 176 l 557 0 l 33 0 l 33 168 l 188 482 l 33 794 l 33 963 z "},"−":{"ha":692,"x_min":57,"x_max":632,"o":"m 57 550 l 632 550 l 632 369 l 57 369 l 57 550 z "},"∕":{"ha":476,"x_min":-56,"x_max":532,"o":"m 393 963 l 532 963 l 83 0 l -56 0 l 393 963 z "},"∙":{"ha":342,"x_min":53,"x_max":285,"o":"m 169 371 q 111 371 169 371 q 53 480 53 371 q 169 589 53 589 q 285 480 285 589 q 169 371 285 371 z "},"√":{"ha":674,"x_min":29,"x_max":667,"o":"m 29 353 l 29 531 l 275 531 l 333 194 l 469 963 l 667 963 l 476 0 l 190 0 l 124 353 l 29 353 z "},"∞":{"ha":1021,"x_min":42,"x_max":979,"o":"m 746 715 q 979 469 979 715 q 746 222 979 222 q 510 347 614 222 q 277 222 406 222 q 95 286 149 222 q 42 468 42 350 q 95 651 42 586 q 277 715 149 715 q 510 590 406 715 q 746 715 614 715 m 288 390 q 417 469 354 390 q 288 547 351 547 q 235 529 249 547 q 222 468 222 511 q 236 408 222 425 q 288 390 250 390 m 732 390 q 787 407 775 390 q 799 467 799 424 q 784 529 799 511 q 732 547 769 547 q 603 468 665 547 q 732 390 667 390 z "},"∫":{"ha":410,"x_min":11,"x_max":372,"o":"m 86 958 q 162 1142 86 1082 q 372 1196 238 1203 l 372 1015 q 313 1004 329 1015 q 297 964 297 993 l 297 6 q 222 -178 297 -118 q 11 -232 146 -239 l 11 -51 q 70 -40 54 -51 q 86 0 86 -29 l 86 958 z "},"≈":{"ha":868,"x_min":35,"x_max":829,"o":"m 821 757 q 829 664 829 721 q 804 563 829 607 q 736 500 779 518 q 531 504 651 464 l 333 571 q 252 576 285 592 q 229 504 219 560 l 42 504 q 35 599 35 544 q 60 699 35 654 q 128 761 85 743 q 333 757 213 797 l 531 690 q 612 685 579 669 q 635 757 644 701 l 821 757 m 821 438 q 829 344 829 401 q 804 243 829 288 q 736 181 779 199 q 531 185 651 144 l 333 251 q 252 256 285 272 q 229 185 219 240 l 42 185 q 35 280 35 225 q 60 379 35 335 q 128 442 85 424 q 333 438 213 478 l 531 371 q 612 366 579 350 q 635 438 644 382 l 821 438 z "},"≠":{"ha":672,"x_min":44,"x_max":619,"o":"m 619 513 l 436 513 l 399 410 l 619 410 l 619 229 l 332 229 l 279 89 l 107 89 l 160 229 l 44 229 l 44 410 l 226 410 l 264 513 l 44 513 l 44 693 l 332 693 l 385 836 l 557 836 l 504 693 l 619 693 l 619 513 z "},"≤":{"ha":654,"x_min":39,"x_max":614,"o":"m 614 886 l 614 699 l 251 588 l 614 476 l 614 289 l 39 497 l 39 678 l 614 886 m 39 69 l 39 250 l 614 250 l 614 69 l 39 69 z "},"≥":{"ha":654,"x_min":39,"x_max":614,"o":"m 39 886 l 614 678 l 614 497 l 39 289 l 39 476 l 401 588 l 39 699 l 39 886 m 39 69 l 39 250 l 614 250 l 614 69 l 39 69 z "},"◊":{"ha":633,"x_min":21,"x_max":613,"o":"m 404 410 l 317 635 l 229 410 l 317 183 l 404 410 m 201 819 l 432 819 l 613 410 l 432 0 l 201 0 l 21 410 l 201 819 z "},"◌":{"ha":917,"x_min":61,"x_max":856,"o":"m 374 733 q 366 742 374 733 q 357 778 357 750 q 374 822 357 806 q 418 839 392 839 q 462 822 444 839 q 479 778 479 806 q 462 733 479 750 q 418 717 444 717 q 374 733 392 717 m 594 696 q 581 696 594 696 q 550 714 568 696 q 532 758 532 732 q 549 801 532 783 q 594 819 567 819 q 638 802 621 819 q 654 758 654 785 q 637 714 654 732 q 594 696 619 696 m 681 619 q 673 627 681 619 q 664 663 664 636 q 681 707 664 689 q 725 725 699 725 q 769 708 751 725 q 786 663 786 690 q 769 619 786 636 q 725 601 751 601 q 681 619 699 601 m 750 455 q 742 464 750 455 q 733 499 733 472 q 750 542 733 525 q 794 560 767 560 q 838 542 821 560 q 856 499 856 525 q 838 455 856 472 q 794 438 821 438 q 750 455 767 438 m 738 269 q 728 277 738 269 q 719 313 719 286 q 738 357 719 339 q 781 375 756 375 q 824 357 807 375 q 842 313 842 339 q 824 269 842 286 q 781 251 807 251 q 738 269 756 251 m 635 133 q 627 141 635 133 q 618 176 618 150 q 635 220 618 203 q 679 238 653 238 q 724 220 706 238 q 742 176 742 203 q 724 133 742 150 q 679 115 706 115 q 635 133 653 115 m 467 58 q 458 67 467 58 q 450 103 450 75 q 467 147 450 131 q 511 164 483 164 q 556 147 539 164 q 574 103 574 129 q 556 59 574 76 q 511 42 539 42 q 467 58 483 42 m 336 61 q 323 61 336 61 q 292 79 310 61 q 274 124 274 97 q 292 168 274 150 q 336 186 310 186 q 380 168 363 186 q 397 124 397 150 q 380 79 397 97 q 336 61 363 61 m 150 185 q 142 194 150 185 q 133 229 133 203 q 151 273 133 256 q 194 290 168 290 q 238 273 221 290 q 256 229 256 256 q 238 185 256 203 q 194 168 221 168 q 150 185 167 168 m 78 347 q 70 356 78 347 q 61 390 61 364 q 78 435 61 417 q 122 453 96 453 q 166 435 149 453 q 183 391 183 418 q 166 347 183 364 q 122 331 149 331 q 78 347 96 331 m 97 522 q 88 530 97 522 q 79 565 79 539 q 97 609 79 592 q 142 626 115 626 q 186 609 168 626 q 204 565 204 592 q 186 522 204 539 q 142 504 168 504 q 97 522 115 504 m 254 656 q 241 656 254 656 q 210 673 228 656 q 193 717 193 690 q 210 762 193 744 q 254 779 228 779 q 298 762 281 779 q 315 717 315 744 q 298 673 315 690 q 254 656 281 656 z "},"":{"ha":486,"x_min":169,"x_max":317,"o":"m 268 -85 q 317 -129 317 -85 q 290 -215 317 -164 q 236 -300 263 -267 l 169 -300 l 204 -85 l 268 -85 z "},"ﬁ":{"ha":675,"x_min":7,"x_max":613,"o":"m 613 819 l 613 0 l 403 0 l 403 656 l 297 656 l 297 0 l 86 0 l 86 656 l 7 656 l 7 819 l 86 819 l 86 829 q 386 1064 86 1064 q 568 1044 474 1064 l 568 883 q 426 900 504 900 q 322 884 347 900 q 297 832 297 868 l 297 819 l 613 819 z "},"ﬂ":{"ha":675,"x_min":7,"x_max":613,"o":"m 613 1038 l 613 0 l 407 0 l 407 903 l 393 903 q 318 885 340 903 q 296 832 296 868 l 296 819 l 368 819 l 368 656 l 297 656 l 297 0 l 86 0 l 86 656 l 7 656 l 7 819 l 86 819 l 86 829 q 160 1004 86 944 q 372 1064 233 1064 q 556 1038 468 1064 l 613 1038 z "}}}
